<?xml version="1.0" encoding="UTF-8"?>
<svg id="Layer_1" xmlns="http://www.w3.org/2000/svg" version="1.1" viewBox="0 0 906.9 964.6">
  <!-- Generator: Adobe Illustrator 30.1.0, SVG Export Plug-In . SVG Version: 2.1.1 Build 136)  -->
  <defs>
    <style>
      .st0 {
        fill: #fff;
      }
    </style>
  </defs>
  <path class="st0" d="M903,252.1l-30.7-46.7c-7.4-11.3-23.9-11.3-31.3,0l-30.7,46.7c-6,9.2.6,21.3,11.5,21.3h14.1v117.1h-117.6s0-214.7,0-214.7h14.2c11,0,17.5-12.2,11.5-21.3l-30.7-46.7c-7.4-11.3-23.9-11.3-31.3,0l-30.7,46.7c-6,9.2.6,21.3,11.5,21.3h13.5v214.7h-117.6s0-312.3,0-312.3h13.1c11,0,17.5-12.2,11.5-21.3l-30.7-46.7c-7.4-11.3-23.9-11.3-31.3,0l-30.7,46.7c-6,9.2.6,21.3,11.5,21.3h14.6v842.5h-.2v42h361.2v-22h.1V273.4h13.6c11,0,17.5-12.2,11.5-21.3ZM558.7,609.3h117.6s0,134.7,0,134.7h-117.6s0-134.7,0-134.7ZM718.3,609.3h117.6s0,134.7,0,134.7h-117.6s0-134.7,0-134.7ZM835.8,786v134.7h-117.6v-134.7h117.6ZM835.8,432.5v134.7h-117.6s0-134.7,0-134.7h117.6ZM676.3,432.5v134.7h-117.6s0-134.7,0-134.7h117.6ZM558.7,786h117.6s0,134.7,0,134.7h-117.6v-134.7Z"/>
  <path class="st0" d="M384.2,9.3c-7.4-11.3-23.9-11.3-31.3,0l-30.7,46.7c-6,9.2.6,21.3,11.5,21.3h14.9v313.2h-117.6v-214.7h13.4c11,0,17.5-12.2,11.5-21.3l-30.7-46.7c-7.4-11.3-23.9-11.3-31.3,0l-30.7,46.7c-6,9.2.6,21.3,11.5,21.3h14.3v214.7h-117.6v-118h14.1c11,0,17.5-12.2,11.5-21.3l-30.7-46.7c-7.4-11.3-23.9-11.3-31.3,0l-30.7,46.7c-6,9.2.6,21.3,11.5,21.3h13.7v668.2h.1v22h361.2v-42h-.2V77.4h12.8c11,0,17.5-12.2,11.5-21.3l-30.7-46.7ZM71.5,786h117.6v134.7h-117.6v-134.7ZM71.5,744v-134.7h117.6v134.7h-117.6ZM231,609.3h117.6v134.7h-117.6v-134.7ZM348.6,432.5v134.7h-117.6v-134.7h117.6ZM189,432.5v134.7h-117.6v-134.7h117.6ZM231,920.7v-134.7h117.6v134.7h-117.6Z"/>
</svg>