<?xml version="1.0" encoding="UTF-8"?>
<svg id="Layer_1" xmlns="http://www.w3.org/2000/svg" version="1.1" viewBox="0 0 919.9 544.1">
  <!-- Generator: Adobe Illustrator 30.1.0, SVG Export Plug-In . SVG Version: 2.1.1 Build 136)  -->
  <defs>
    <style>
      .st0 {
        fill: #ff6b4a;
      }
    </style>
  </defs>
  <polygon class="st0" points="769.1 503.5 732 503.5 685.9 503.5 648.7 503.5 600.6 503.5 563.1 503.5 352.2 503.5 314.6 503.5 266.5 503.5 229.3 503.5 183.2 503.5 146.1 503.5 1.6 503.5 1.6 541.2 917.3 541.2 917.3 503.5 769.1 503.5"/>
  <path class="st0" d="M388,105.9l39.6-5.2-17.2,36c-2.2,4.6,3.6,8.9,7.3,5.3l29-27.5,7.3,39.3c.9,5,8.1,5,9.1,0l7.3-39.3,29,27.5c3.7,3.5,9.5-.7,7.3-5.3l-17.2-36,39.6,5.2c5.1.7,7.3-6.2,2.8-8.6l-35.1-19.1,35.1-19.1c4.5-2.4,2.3-9.3-2.8-8.6l-39.6,5.2,17.2-36c2.2-4.6-3.6-8.9-7.3-5.3l-29,27.5-7.3-39.3c-.9-5-8.1-5-9.1,0l-7.3,39.3-29-27.5c-3.7-3.5-9.5.7-7.3,5.3l17.2,36-39.6-5.2c-5.1-.7-7.3,6.2-2.8,8.6l35.1,19.1-35.1,19.1c-4.5,2.4-2.3,9.3,2.8,8.6Z"/>
  <path class="st0" d="M370.4,461.5c16-22.2,40.2-38,68.1-43v-37.4c-49,6.5-90.3,37.6-111,80.5h42.9Z"/>
  <path class="st0" d="M480.5,419.2c26.3,5.7,49.1,21.1,64.3,42.3h42.9c-20.2-41.8-59.9-72.4-107.3-79.9v37.6Z"/>
  <path class="st0" d="M898.2,336.4c-10.8-23.5-23.6-46.4-38-67.9l-30.7,20.6c13.3,19.9,25.1,41,35.1,62.8l33.6-15.4Z"/>
  <path class="st0" d="M336.5,106.7l-10-35.6c-24.9,7-49.5,16.1-73.1,27l15.6,33.6c21.7-10.1,44.4-18.5,67.5-24.9Z"/>
  <path class="st0" d="M661.4,98.2c-23.5-10.9-48.1-20-73.1-27l-10,35.6c23.1,6.5,45.8,14.8,67.5,24.9l15.6-33.6Z"/>
  <path class="st0" d="M194.6,175.3l-21.7-30c-21,15.2-40.9,32.2-59.2,50.6l26.2,26.1c16.9-17,35.3-32.7,54.7-46.8Z"/>
  <path class="st0" d="M801,196.2c-18.3-18.4-38.2-35.4-59.1-50.7l-21.8,29.9c19.4,14.1,37.7,29.8,54.6,46.8l26.2-26.1Z"/>
  <path class="st0" d="M85.2,288.7l-30.7-20.6c-14.5,21.6-27.3,44.4-38.1,68l33.6,15.4c10-21.7,21.8-42.9,35.2-62.8Z"/>
  <path class="st0" d="M480.5,249.9c64.9,5.3,125.2,33.1,171.7,79.6,36.9,36.9,61.9,82.3,73.4,131.9h37.9c-12.1-59.5-41.3-114.1-85.2-158-53.5-53.5-123.1-85.2-197.9-90.6v37.1Z"/>
  <path class="st0" d="M189.6,461.5c11.5-49.5,36.6-95,73.4-131.9,47.4-47.4,109.2-75.4,175.5-79.9v-37.1c-76.2,4.6-147.2,36.4-201.6,90.8-43.9,43.9-73.1,98.5-85.2,158h37.9Z"/>
  <path class="st0" d="M639.3,461.5h38.9c-10.5-37.2-30.4-71.3-58.5-99.4-37.9-37.9-86.6-60.8-139.2-66v37.2c74,8.8,135.2,59.8,158.9,128.2Z"/>
  <path class="st0" d="M438.5,295.7c-54,4.4-104.2,27.6-143,66.3-28.1,28.1-48,62.2-58.5,99.4h38.9c24.1-69.5,87-121.1,162.6-128.6v-37.2Z"/>
</svg>