<?xml version="1.0" encoding="UTF-8"?>
<svg id="Layer_1" xmlns="http://www.w3.org/2000/svg" version="1.1" viewBox="0 0 1016.1 686.1">
  <!-- Generator: Adobe Illustrator 30.1.0, SVG Export Plug-In . SVG Version: 2.1.1 Build 136)  -->
  <defs>
    <style>
      .st0 {
        fill: #fff;
      }
    </style>
  </defs>
  <path class="st0" d="M973,109.3v-37h-277.9v-.4c-52.4.4-95.1,43.3-95.1,95.8h0v347.6h.2c.6,52.2,43.5,94.6,95.7,94.6v-.5h276.9v-37h-278.7v.5c-24.9-.7-46-17.1-53.8-39.6h332.5v-37h-335.9v-32.9s335.9,0,335.9,0v-37h-335.9v-32.9s335.9,0,335.9,0v-37h-335.9v-32.9s335.9,0,335.9,0v-37h-335.9v-32.9s335.9,0,335.9,0v-37h-335.9v-49.2h0c0-2.2.2-4.4.4-6.6v22.9h335.6v-37h-332c8.4-21.5,29.1-36.9,53.3-37.5v.4h278.7Z"/>
  <path class="st0" d="M697,644.9h0c-35.5,0-68.9-13.8-94-38.8-25.1-24.9-39.1-58.2-39.4-93.5h0V171.9h.2c0-35.5,13.8-68.9,38.8-94,25-25.2,58.3-39.1,93.7-39.4h0s317.6,0,317.6,0V1.5h-319.1c-44.8.7-86.8,18.5-118.4,50.3-31.1,31.3-48.6,72.5-49.5,116.5h-.2v344.2h10.3-10.4c.3,45.3,18.2,87.9,50.3,119.8,32.1,31.9,74.8,49.5,120.1,49.5h0c0,0,319.1,0,319.1,0v-37h-319.1Z"/>
  <path class="st0" d="M489.5,512.5V168.3h-.2c-.9-44-18.4-85.2-49.5-116.5C408.2,20,366.2,2.2,321.4,1.6h0c0,0-319.1,0-319.1,0v37h317.6,0c35.4.3,68.7,14.3,93.7,39.4,25,25.2,38.8,58.6,38.8,94h.2v340.6h0c-.3,35.4-14.3,68.6-39.4,93.5-25.2,25-58.6,38.8-94,38.8h0c0,0-319.1,0-319.1,0v37h319.1c45.3,0,87.9-17.7,120.1-49.6,32.1-31.9,50-74.4,50.3-119.7h-10.4c0,0,10.3,0,10.3,0Z"/>
  <path class="st0" d="M43.1,572.3v37h276.9v.5c52.3,0,95.1-42.4,95.7-94.6h.2V167.7h0c0-52.4-42.7-95.4-95.1-95.8v.4H43.1v37h278.7v-.4c24.3.6,45,16,53.3,37.5H43.1v37h335.6v-22.9c.3,2.2.4,4.4.4,6.6h0v49.2H43.1v37h335.9v32.9H43.1v37h335.9v32.9H43.1v37h335.9v32.9H43.1v37h335.9v32.9H43.1v37h332.5c-7.8,22.5-28.9,38.9-53.8,39.6v-.5H43.1Z"/>
</svg>