<?xml version="1.0" encoding="UTF-8"?>
<svg id="Layer_1" xmlns="http://www.w3.org/2000/svg" version="1.1" viewBox="0 0 592.2 288.9">
  <!-- Generator: Adobe Illustrator 30.1.0, SVG Export Plug-In . SVG Version: 2.1.1 Build 136)  -->
  <defs>
    <style>
      .st0 {
        fill: #fff;
      }
    </style>
  </defs>
  <path class="st0" d="M201.9,128.1l-20.1-11.6c0,0,0,.1-.1.2l-69.6-40.1c0,0,0-.1.1-.2l-20.1-11.6c-12.6,21.9-16.4,49.3-10.4,75.2,2.8,11.9,7.4,22.9,13.8,32.8-11.7-.5-23.7,1-35.3,4.5-25.5,7.8-47.3,24.8-59.9,46.7l20.1,11.6s0,0,0,0l69.6,40.1s0,0,0,0l20.1,11.6c19.2-33.2,67.8-52.9,109.7-29.2l5.8-10.3,6-10.1c-41.5-24.4-48.8-76.4-29.6-109.6ZM172.6,138.3c-4.8,17-5.4,35.6-1.2,53.4,1.1,4.8,2.6,9.5,4.3,14l-34-19.6v-.2c-32.9-19.4-44.3-56.3-37.8-87.3l68.8,39.7ZM104.1,257l-68.8-39.7c23.6-21.2,61.3-29.9,94.7-11h0c0,0,33.8,19.5,33.8,19.5-4.7.8-9.4,1.9-14.1,3.3-17.6,5.4-33.5,15.2-45.8,27.9Z"/>
  <path class="st0" d="M387.6,103.8c0,0-.2,0-.2,0V23.5c0,0,.1,0,.2,0V.2c-25.2,0-50.9,10.4-70.4,28.6-8.9,8.3-16.2,17.9-21.6,28.3-5.4-10.4-12.7-20-21.6-28.3C254.6,10.7,228.9.3,203.7.3v23.2s0,0,0,0v80.3s0,0,0,0v23.2c38.4,0,79.8,32.3,80.2,80.4h11.8c0-.1,11.8,0,11.8,0,.4-48.1,41.8-80.4,80.1-80.4v-23.2ZM274.1,132.4c-13.5-12.6-29.9-21.4-47.1-25.7V27.3c30.1,9.9,56.5,38.2,56.8,76.6h0s0,39.1,0,39.1c-3-3.7-6.3-7.2-9.9-10.5ZM317.2,132.4c-3.6,3.4-7,7-10,10.7v-39.2s.2,0,.2,0c.3-38.3,26.6-66.6,56.7-76.5v79.4c-17.1,4.3-33.5,13.1-46.9,25.7Z"/>
  <path class="st0" d="M571,235.5l20.1-11.6c-12.6-21.9-34.5-38.9-60-46.6-11.7-3.6-23.6-5-35.3-4.5,6.3-9.9,11-21,13.7-32.8,6-26,2.2-53.4-10.4-75.2l-20.1,11.6s0,0,0,0l-69.5,40.2s0,0,0,0l-20.1,11.6c19.2,33.2,11.9,85.2-29.5,109.6l6,10.1,5.8,10.2c41.9-23.7,90.5-4.1,109.7,29.2l20.1-11.6c0,0,0-.1-.1-.2l69.5-40.2c0,0,0,.1.1.2ZM487.4,98.4c6.5,31-4.8,68-37.9,87.5h0c0,0-33.8,19.6-33.8,19.6,1.7-4.5,3.1-9.1,4.2-13.8,4.1-17.9,3.6-36.6-1.3-53.6l68.7-39.7ZM441.5,229c-4.7-1.4-9.5-2.5-14.3-3.3l34-19.6v.2c33.4-18.9,71.1-10.3,94.7,10.8l-68.7,39.7c-12.3-12.7-28.1-22.4-45.7-27.8Z"/>
</svg>