<?xml version="1.0" encoding="UTF-8"?>
<svg id="Layer_1" xmlns="http://www.w3.org/2000/svg" xmlns:xlink="http://www.w3.org/1999/xlink" version="1.1" viewBox="0 0 858.9 1009.1">
  <!-- Generator: Adobe Illustrator 30.1.0, SVG Export Plug-In . SVG Version: 2.1.1 Build 136)  -->
  <defs>
    <style>
      .st0 {
        fill: none;
      }

      .st1 {
        fill: #fff;
      }

      .st2 {
        clip-path: url(#clippath);
      }
    </style>
    <clipPath id="clippath">
      <ellipse class="st0" cx="429.8" cy="501.2" rx="410.9" ry="502.7" transform="translate(-136.8 162.2) rotate(-18.5)"/>
    </clipPath>
  </defs>
  <g class="st2">
    <g>
      <path class="st1" d="M507.1,929.3c-36.9,0-74.3-15.2-102.8-41.8-30.8-28.7-47.9-67.5-48.2-109.3l37-.3c.6,68.5,59.4,114.4,114,114.4h0v37h0Z"/>
      <path class="st1" d="M356,778.4c0-36.9,15.2-74.3,41.8-102.8,28.7-30.8,67.5-47.9,109.3-48.2l.3,37c-68.5.6-114.4,59.4-114.4,114h-37Z"/>
      <path class="st1" d="M620.9,778.7c-.6-68.5-59.4-114.4-114-114.4h0v-37h0c36.9,0,74.3,15.2,102.7,41.8,30.8,28.7,47.9,67.5,48.2,109.3l-37,.3Z"/>
      <path class="st1" d="M653.7,857.1c-21.7-21.3-33.3-49.8-32.8-80l37,.7c-.4,20,7.4,38.8,21.7,53l-26,26.4Z"/>
      <path class="st1" d="M731.1,888.7c-30.1,0-58-11.8-78.8-33.4l26.6-25.7c13.7,14.3,32.3,22.1,52.2,22.1s.4,0,.6,0l.3,37c-.3,0-.6,0-.9,0Z"/>
      <path class="st1" d="M987.3,972.1c-34.3-2.4-69.4-19.3-106.6-37.2-47-22.6-95.5-46-150.1-46.1v-37c63.1.1,117.9,26.5,166.2,49.8,33.9,16.3,65.9,31.8,93.1,33.7l-2.6,36.9Z"/>
      <path class="st1" d="M574.9,958.3c-18.1-18.8-42.5-29.1-68.8-29.1s-.5,0-.8,0l-.3-37c36.8-.3,71.1,14.1,96.5,40.4l-26.6,25.7Z"/>
      <path class="st1" d="M527.4,1011c-7.3-7.6-15.9-9.2-21.8-9.2s-.2,0-.3,0l-.3-37c18.7-.2,36.1,7.1,49,20.5l-26.6,25.7Z"/>
      <path class="st1" d="M573,1033.7l-37-.7c.2-10.7-4.8-18-9.1-22.2l26-26.4c13.3,13.1,20.5,30.6,20.1,49.2Z"/>
      <path class="st1" d="M642.6,1034.7l-37-.7c.5-28.6-10.5-55.5-31.1-75.7l26-26.4c27.8,27.4,42.8,63.9,42.1,102.7Z"/>
      <path class="st1" d="M504.8,845.6c-36.6,0-66.4-29.8-66.4-66.4s29.8-66.4,66.4-66.4,66.4,29.8,66.4,66.4-29.8,66.4-66.4,66.4ZM504.8,749.9c-16.2,0-29.4,13.2-29.4,29.4s13.2,29.4,29.4,29.4,29.4-13.2,29.4-29.4-13.2-29.4-29.4-29.4Z"/>
      <path class="st1" d="M507.1,1001.6c-54.4,0-109.8-22.5-151.9-61.8-45.5-42.5-70.8-99.9-71.4-161.7l37-.3c1,111.8,97.1,186.9,186.3,186.9h0v37h0Z"/>
      <path class="st1" d="M283.7,778.5c0-54.5,22.5-109.9,61.8-152,42.5-45.5,99.9-70.8,161.7-71.4l.3,37c-111.8,1-186.9,97.1-186.9,186.4h-37Z"/>
      <path class="st1" d="M711.4,796.9c-10.1,0-18.4-8.2-18.5-18.3-1-111.6-96.9-186.6-186-186.6s0,0,0,0c-10.2,0-18.5-8.3-18.5-18.5,0-10.2,8.3-18.5,18.5-18.5h0c54.4,0,109.7,22.5,151.7,61.8,45.4,42.4,70.8,99.8,71.3,161.5,0,10.2-8.1,18.6-18.3,18.7,0,0-.1,0-.2,0Z"/>
      <path class="st1" d="M875,1116.2c-4.1,0-8.3-1.4-11.8-4.2l-280.3-231.2c-7.9-6.5-9-18.2-2.5-26s18.2-9,26-2.5l280.3,231.2c7.9,6.5,9,18.2,2.5,26-3.7,4.4-9,6.7-14.3,6.7Z"/>
      <path class="st1" d="M836.6,1358.2c-8.1,0-15.5-5.3-17.8-13.5-20.3-72.3-54.7-174.9-102.9-253.8-28.7-47-49-63.4-49.2-63.6h.1c0,0,22.5-29.3,22.5-29.3,3.7,2.8,90.6,71.8,165.1,336.6,2.8,9.8-3,20.1-12.8,22.8-1.7.5-3.4.7-5,.7Z"/>
      <path class="st1" d="M675.1,1477.2c-1.1,0-2.2-.1-3.4-.3-10-1.9-16.7-11.5-14.8-21.6,13.6-73.8,28.1-181.1,19.6-273.2-5-54.9-16-78.5-16.1-78.8h0c0,.1,33.2-16.3,33.2-16.3,2,4.1,49.6,104.4-.3,374.9-1.6,8.9-9.4,15.1-18.2,15.1Z"/>
      <path class="st1" d="M1119.9,1080h0c-5,0-125.7-2.1-365.9-133.2-9-4.9-12.3-16.1-7.4-25.1,4.9-9,16.1-12.3,25.1-7.4,66.5,36.3,165.9,85.2,261.8,112,57.3,16,86.4,16.6,86.7,16.6,10.2,0,18.4,8.4,18.4,18.6,0,10.2-8.4,18.4-18.5,18.4Z"/>
      <path class="st1" d="M423.1,1490.5c-3,0-6-.7-8.8-2.3-9-4.9-12.3-16.1-7.4-25.1,36.3-66.5,85.2-165.9,112-261.8,16-57.3,16.6-86.4,16.6-86.7,0-10.2,8.3-18.4,18.5-18.4h0c10.2,0,18.5,8.4,18.4,18.6,0,5-2.1,125.7-133.2,365.9-3.4,6.2-9.7,9.6-16.3,9.6Z"/>
      <path class="st1" d="M493.8,1486.4c-3,0-6-.7-8.8-2.3-9-4.9-12.3-16.1-7.4-25.1,36.3-66.5,85.2-165.9,112-261.8,16.1-57.3,16.6-86.4,16.6-86.7,0-10.2,8.3-18.4,18.5-18.4h0c10.2,0,18.5,8.4,18.4,18.6,0,5-2.1,125.7-133.2,365.9-3.4,6.2-9.7,9.6-16.3,9.6Z"/>
      <path class="st1" d="M332.6,1494.4c-3,0-6-.7-8.8-2.3-9-4.9-12.3-16.1-7.4-25.1,126.6-232,144.4-342.2,144.6-343.3,1.5-10.1,10.9-17,21-15.5,10.1,1.5,17.1,10.9,15.6,21-.7,4.6-18.2,116.5-148.7,355.6-3.4,6.2-9.7,9.6-16.3,9.6Z"/>
      <path class="st1" d="M554.7,1131.6c-10.2,0-18.5-8.3-18.5-18.5v-78.4c0-10.2,8.3-18.5,18.5-18.5s18.5,8.3,18.5,18.5v78.4c0,10.2-8.3,18.5-18.5,18.5Z"/>
      <path class="st1" d="M624.4,1131.6c-10.2,0-18.5-8.3-18.5-18.5v-78.4c0-10.2,8.3-18.5,18.5-18.5s18.5,8.3,18.5,18.5v78.4c0,10.2-8.3,18.5-18.5,18.5Z"/>
      <path class="st1" d="M490.9,1069.7c-35.9,0-71-7-104.4-20.9-33.3-13.8-63.2-33.8-88.9-59.3-54.7-54.2-85.2-129.3-85.9-211.6,0-10.2,8.1-18.6,18.3-18.7,0,0,.1,0,.2,0,10.1,0,18.4,8.2,18.5,18.3.3,37.5,7.4,72.9,21,105.3,12.8,30.4,30.9,57.4,54,80.3,22.3,22.1,48.3,39.4,77.1,51.4,28.9,12,59.2,18.1,90.2,18.1s0,0,0,0c10.2,0,18.5,8.3,18.5,18.5,0,10.2-8.3,18.5-18.5,18.5h-.1Z"/>
      <path class="st1" d="M211.4,778.5c0-72.1,29.8-145.4,81.9-201.2,56.2-60.2,132.2-93.8,214.1-94.5l.3,37c-155.2,1.3-259.3,134.8-259.3,258.7h-37Z"/>
      <path class="st1" d="M784.4,834.5c-10.2,0-18.5-8.3-18.5-18.5,0-50.5-7.8-96.1-23.2-135.7-13.9-35.7-33.9-66.4-59.5-91.3-46-44.7-108.7-69.3-176.5-69.3s0,0-.1,0c-10.2,0-18.5-8.3-18.5-18.5,0-10.2,8.3-18.5,18.5-18.5h.1c77.5,0,149.4,28.3,202.3,79.7,61.4,59.7,93.9,147.3,93.9,253.5s-8.3,18.5-18.5,18.5Z"/>
      <path class="st1" d="M416.4,1129.2c-1.2,0-2.4-.1-3.6-.4-75.7-15.1-140.7-51.1-188-104-26.8-29.9-47.6-65.1-62-104.6-15.5-42.5-23.6-90.5-24-142.5,0-10.2,8.1-18.6,18.3-18.7,0,0,.1,0,.2,0,10.1,0,18.4,8.2,18.5,18.3.8,91.8,26.6,166.8,76.6,222.8,53,59.2,120.4,82.9,167.7,92.3,10,2,16.5,11.8,14.5,21.8-1.8,8.8-9.5,14.9-18.1,14.9Z"/>
      <path class="st1" d="M138.4,778.6c0-89.8,37.2-181.3,102.2-250.9,70.1-75.1,164.9-117,266.9-117.8l.3,37c-91.8.8-177.1,38.5-240.2,106.1-58.6,62.8-92.2,145.1-92.2,225.6h-37Z"/>
      <path class="st1" d="M830.6,675.3c-7.6,0-14.7-4.7-17.4-12.3-12.9-36.4-30.8-69.1-53.1-97.4-20.8-26.3-45.6-48.9-73.6-67-52.3-33.8-114.5-51.7-179.8-51.7s0,0-.1,0c-10.2,0-18.5-8.3-18.5-18.5,0-10.2,8.3-18.5,18.5-18.5h.1c72.5,0,141.6,19.9,199.9,57.7,31.4,20.4,59.2,45.6,82.5,75.2,24.8,31.4,44.7,67.7,59,107.9,3.4,9.6-1.6,20.2-11.2,23.6-2,.7-4.1,1.1-6.2,1.1Z"/>
      <path class="st1" d="M1157,909.3c-72.5,0-141.6-19.9-199.9-57.7-31.4-20.4-59.2-45.6-82.5-75.2-24.8-31.4-44.7-67.7-59-107.9-3.4-9.6,1.6-20.2,11.2-23.6,9.6-3.4,20.2,1.6,23.6,11.2,12.9,36.4,30.8,69.1,53.1,97.4,20.8,26.3,45.6,48.9,73.6,67,52.3,33.8,114.5,51.7,179.8,51.7s0,0,.1,0c10.2,0,18.5,8.3,18.5,18.5,0,10.2-8.3,18.5-18.5,18.5h-.1Z"/>
      <path class="st1" d="M1010.3,927.6c-1.2,0-2.4-.1-3.6-.3-67.3-13.2-128.3-45.7-181.2-96.8-7.4-7.1-7.6-18.8-.5-26.2,7.1-7.4,18.8-7.6,26.2-.5,47.7,46,102.4,75.3,162.6,87.1,10,2,16.6,11.7,14.6,21.7-1.7,8.8-9.5,15-18.1,15Z"/>
      <path class="st1" d="M1002.5,649.8c-1.2,0-2.4-.1-3.6-.3-67.3-13.2-128.3-45.7-181.2-96.8-7.4-7.1-7.6-18.8-.5-26.2,7.1-7.3,18.8-7.6,26.2-.5,47.7,46,102.4,75.3,162.6,87.1,10,2,16.6,11.7,14.6,21.7-1.7,8.8-9.5,15-18.1,15Z"/>
      <path class="st1" d="M61.3,77.5c0-36.9,15.2-74.3,41.8-102.8,28.7-30.8,67.5-47.9,109.3-48.2l.3,37c-68.5.6-114.4,59.4-114.4,114h-37Z"/>
      <path class="st1" d="M326.3,77.7c-.6-68.5-59.4-114.4-114-114.4h0v-37h0c36.9,0,74.3,15.2,102.8,41.8,30.8,28.7,47.9,67.5,48.2,109.3l-37,.3Z"/>
      <path class="st1" d="M212.3,228.3l-.3-37c68.5-.6,114.4-59.4,114.4-114h37c0,36.9-15.2,74.3-41.8,102.8-28.7,30.8-67.5,47.9-109.3,48.2Z"/>
      <path class="st1" d="M159.9,250.1l-26.4-26c21.3-21.7,49.7-33.3,80-32.8l-.7,37c-20-.4-38.8,7.4-53,21.7Z"/>
      <path class="st1" d="M101.9,302.4c-.2-30.4,11.6-58.7,33.4-79.8l25.7,26.6c-14.4,13.9-22.2,32.6-22.1,52.8l-37,.3Z"/>
      <path class="st1" d="M-20.2,591.9c-3.3,0-6.5-.9-9.5-2.7-8.7-5.3-11.6-16.6-6.3-25.4,9.8-16.3,23.8-35.3,38.5-55.4,44.3-60.4,99.4-135.5,99.5-207.6,0-10.2,8.3-18.5,18.5-18.5h0c10.2,0,18.5,8.3,18.5,18.5,0,37.8-12.2,78.5-37,124.4-20.7,38.3-46.7,73.8-69.7,105.1-14.2,19.4-27.6,37.7-36.6,52.6-3.5,5.8-9.6,8.9-15.9,8.9Z"/>
      <path class="st1" d="M58,171.9l-25.7-26.6c19-18.3,29.3-43,29.1-69.6l37-.3c.3,36.8-14.1,71.1-40.4,96.5Z"/>
      <path class="st1" d="M5.3,124.4l-25.7-26.6c7.7-7.4,9.3-16.1,9.2-22.1l37-.3c.1,18.7-7.1,36.1-20.5,49Z"/>
      <path class="st1" d="M-41.9,143.3c-.4,0-.8,0-1.3,0l.7-37c.2,0,.4,0,.6,0,10.4,0,17.4-4.9,21.6-9.1l26.4,26c-12.8,13-29.8,20.2-47.9,20.2Z"/>
      <path class="st1" d="M-41.5,213c-.9,0-1.7,0-2.6,0l.7-37c28.6.5,55.5-10.5,75.7-31.1l26.4,26c-26.8,27.2-62.2,42.1-100.1,42.1Z"/>
      <path class="st1" d="M211.4,141.5c-36.6,0-66.4-29.8-66.4-66.4S174.8,8.8,211.4,8.8s66.4,29.8,66.4,66.4-29.8,66.4-66.4,66.4ZM211.4,45.8c-16.2,0-29.4,13.2-29.4,29.4s13.2,29.4,29.4,29.4,29.4-13.2,29.4-29.4-13.2-29.4-29.4-29.4Z"/>
      <path class="st1" d="M-11,77.6c0-54.5,22.5-109.9,61.8-152,42.5-45.5,99.9-70.8,161.7-71.4l.3,37C101.1-107.8,26-11.7,26,77.6H-11Z"/>
      <path class="st1" d="M398.5,77.9c-1-111.8-97.1-186.9-186.3-186.9h0v-37h0c54.4,0,109.8,22.5,151.9,61.8,45.5,42.5,70.8,99.9,71.4,161.7l-37,.3Z"/>
      <path class="st1" d="M212.3,300.3c-10.1,0-18.4-8.2-18.5-18.3,0-10.2,8.1-18.6,18.3-18.7,111.7-1,186.6-97,186.6-186.1,0-10.2,8.3-18.5,18.5-18.5h0c10.2,0,18.5,8.3,18.5,18.5,0,54.4-22.5,109.7-61.8,151.8-42.4,45.4-99.8,70.8-161.5,71.3,0,0-.1,0-.2,0Z"/>
      <path class="st1" d="M-107.1,463.9c-4.1,0-8.3-1.4-11.8-4.2-7.9-6.5-9-18.2-2.5-26L109.8,153.2c6.5-7.9,18.2-9,26-2.5,7.9,6.5,9,18.2,2.5,26L-92.8,457.1c-3.7,4.4-9,6.7-14.3,6.7Z"/>
      <path class="st1" d="M-349.1,425.5c-8.1,0-15.5-5.3-17.8-13.5-2.8-9.8,3-20.1,12.8-22.8,72.3-20.3,174.9-54.7,253.8-102.9,47-28.7,63.4-49,63.6-49.2h0c0,.1,29.4,22.6,29.4,22.6-2.8,3.7-71.8,90.6-336.6,165.1-1.7.5-3.4.7-5,.7Z"/>
      <path class="st1" d="M-250.8,286.4c-55.6,0-128.2-5.7-220.7-22.8-10-1.9-16.7-11.5-14.8-21.6,1.9-10,11.5-16.7,21.6-14.8,73.8,13.6,181.1,28.1,273.2,19.6,54.9-5,78.5-16,78.8-16.1h-.1c0,0,16.4,33.2,16.4,33.2-2.7,1.3-47.1,22.4-154.2,22.4Z"/>
      <path class="st1" d="M-170.4,656c-6,0-11.9-2.9-15.5-8.4-5.6-8.5-3.2-20,5.3-25.6.4-.3,24.9-16.8,64.4-61.4,36.7-41.3,94.2-115.9,160-236.4,4.9-9,16.1-12.3,25.1-7.4,9,4.9,12.3,16.1,7.4,25.1-131.1,240.2-232.3,308.3-236.6,311-3.1,2-6.6,3-10.1,3Z"/>
      <path class="st1" d="M-124.2,142.9h0c-5,0-125.7-2.1-365.9-133.2-9-4.9-12.3-16.1-7.4-25.1,4.9-9,16.1-12.3,25.1-7.4C-406,13.6-306.6,62.4-210.8,89.3c57.3,16,86.4,16.6,86.7,16.6,10.2,0,18.4,8.4,18.4,18.6,0,10.2-8.4,18.4-18.5,18.4Z"/>
      <path class="st1" d="M-120.1,213.6h0c-5,0-125.7-2.1-365.9-133.2-9-4.9-12.3-16.1-7.4-25.1,4.9-9,16.1-12.3,25.1-7.4,66.5,36.3,165.9,85.2,261.8,112,57.3,16,86.4,16.6,86.7,16.6,10.2,0,18.4,8.4,18.4,18.6,0,10.2-8.4,18.4-18.5,18.4Z"/>
      <path class="st1" d="M-135.8,68.1c-.9,0-1.8,0-2.7-.2-4.6-.7-116.5-18.2-355.6-148.7-9-4.9-12.3-16.1-7.4-25.1,4.9-9,16.1-12.3,25.1-7.4C-244.4,13.3-134.2,31.1-133.1,31.3c10.1,1.5,17,10.9,15.5,21-1.4,9.2-9.2,15.8-18.3,15.8Z"/>
      <path class="st1" d="M-44.1,143.6h-78.4c-10.2,0-18.5-8.3-18.5-18.5s8.3-18.5,18.5-18.5H-44.1c10.2,0,18.5,8.3,18.5,18.5s-8.3,18.5-18.5,18.5Z"/>
      <path class="st1" d="M-44.1,213.2h-78.4c-10.2,0-18.5-8.3-18.5-18.5s8.3-18.5,18.5-18.5H-44.1c10.2,0,18.5,8.3,18.5,18.5s-8.3,18.5-18.5,18.5Z"/>
      <path class="st1" d="M-60.6,79.9c-10.2,0-18.5-8.3-18.5-18.5,0-35.9,7-71.1,20.9-104.5C-44.4-76.4-24.4-106.3,1.1-132c54.2-54.7,129.3-85.2,211.6-85.9,0,0,.1,0,.2,0,10.1,0,18.4,8.2,18.5,18.3,0,10.2-8.1,18.6-18.3,18.7-37.5.3-72.9,7.4-105.3,21-30.4,12.8-57.4,30.9-80.3,54C5.3-83.7-12-57.7-24-28.9-36,0-42.1,30.4-42.1,61.4c0,10.2-8.3,18.5-18.5,18.5h0Z"/>
      <path class="st1" d="M470.8,78.1c-1.3-155.1-134.8-259.3-258.6-259.3h0v-37h0c72,0,145.3,29.8,201.1,81.9,60.2,56.2,93.8,132.2,94.5,214.1l-37,.3Z"/>
      <path class="st1" d="M174.6,373.3c-10.2,0-18.5-8.3-18.5-18.5s8.3-18.5,18.5-18.5c50.5,0,96.1-7.8,135.7-23.2,35.7-13.9,66.4-33.9,91.3-59.5,44.7-46,69.3-108.7,69.3-176.6,0-10.2,8.3-18.5,18.5-18.5h0c10.2,0,18.5,8.3,18.5,18.5,0,77.6-28.3,149.5-79.7,202.4-59.7,61.4-147.3,93.9-253.5,93.9Z"/>
      <path class="st1" d="M-120.1,5.2c-1.2,0-2.4-.1-3.6-.4-10-2-16.5-11.8-14.5-21.8,15.1-75.7,51.1-140.7,104-188,29.9-26.8,65.1-47.6,104.6-62,42.5-15.5,90.5-23.6,142.5-24,0,0,.1,0,.2,0,10.1,0,18.4,8.2,18.5,18.3,0,10.2-8.1,18.6-18.3,18.7-91.8.8-166.8,26.6-222.8,76.6C-68.8-124.3-92.5-56.9-101.9-9.6s-9.5,14.9-18.1,14.9Z"/>
      <path class="st1" d="M543.7,78.2c-.8-91.8-38.5-177.1-106.1-240.2-62.8-58.6-145-92.2-225.5-92.2h-.1v-37h.1c89.8,0,181.2,37.2,250.7,102.2,75.1,70.1,117,164.9,117.8,266.9l-37,.3Z"/>
      <path class="st1" d="M333.8,419.5c-7.6,0-14.7-4.7-17.4-12.3-3.4-9.6,1.6-20.2,11.2-23.6,36.4-12.9,69.1-30.8,97.4-53.1,26.3-20.8,48.9-45.6,67-73.6,33.9-52.3,51.8-114.5,51.7-179.9,0-10.2,8.3-18.5,18.5-18.5h0c10.2,0,18.5,8.3,18.5,18.5,0,72.5-19.9,141.7-57.7,200-20.4,31.4-45.6,59.2-75.2,82.5-31.4,24.8-67.7,44.7-107.9,59-2,.7-4.1,1.1-6.2,1.1Z"/>
      <path class="st1" d="M1090.3,256.5l-29.4-22.4c41.5-54.4,23.2-126.8-19.9-160.3l22.7-29.2c29.1,22.6,49.4,57.6,55.6,96,6.7,41.5-3.6,82.7-28.9,116Z"/>
      <path class="st1" d="M969.8,314c-32.9,0-64.6-10.6-91.2-30.9l22.4-29.4c54.4,41.5,126.8,23.2,160.3-19.9l29.2,22.7c-22.6,29.1-57.6,49.4-96,55.6-8.3,1.3-16.6,2-24.7,2Z"/>
      <path class="st1" d="M878.7,283.3c-29.1-22.6-49.4-57.6-55.6-96-6.7-41.5,3.6-82.7,28.9-116l29.4,22.4c-41.5,54.4-23.2,126.8,19.9,160.3l-22.7,29.2Z"/>
      <path class="st1" d="M880.4,94.9l-28.8-23.2c12.6-15.6,18-35.2,15.3-55.2l36.7-4.9c4,30.2-4.2,59.7-23.2,83.3Z"/>
      <path class="st1" d="M866.9,17.9c-2.1-19.9-12.2-37.6-28.2-49.8l22.5-29.4c24.2,18.5,39.3,45.2,42.5,75.3l-36.8,4Z"/>
      <path class="st1" d="M850.9-27.3c-4,0-8-1.3-11.4-3.9-29.8-23.3-54.6-57.8-75.6-105.5-17.5-39.9-29.6-82.2-40.2-119.5-6.6-23.1-12.8-44.9-19.1-61.2-3.7-9.5,1.1-20.2,10.6-23.9,9.5-3.7,20.2,1.1,23.9,10.6,6.9,17.8,13.3,40.4,20.1,64.3,20.5,72,46.1,161.6,103,205.9,8.1,6.3,9.5,17.9,3.2,26-3.6,4.7-9.1,7.1-14.6,7.1Z"/>
      <path class="st1" d="M1042.6,75.1c-29.3-22.3-47.5-54.7-51.4-91.1l36.8-4c2.8,26.2,16,49.5,37.1,65.6l-22.5,29.4Z"/>
      <path class="st1" d="M1087.1,17.8c-14.9-11.3-24.1-27.8-26.1-46.3l36.8-4c1.1,10.7,7.1,17.2,11.8,20.8l-22.5,29.4Z"/>
      <path class="st1" d="M1061.5-27.1c-2.5-18.5,2.6-36.7,14.3-51.2l28.8,23.2c-6.7,8.3-7.2,17.2-6.4,23.1l-36.7,4.9Z"/>
      <path class="st1" d="M991.6-14.9c-5.2-38.7,5.4-76.7,29.7-106.9l28.8,23.2c-17.9,22.3-25.7,50.2-21.9,78.8l-36.7,4.9Z"/>
      <path class="st1" d="M973.4,230.9c-14.7,0-28.8-4.8-40.6-14-14-10.9-22.9-26.6-25.2-44.1-2.2-17.6,2.6-35,13.4-49,10.9-14,26.6-22.9,44.1-25.2,17.6-2.2,35,2.6,49,13.4,28.9,22.4,34.2,64.2,11.7,93.2-10.9,14-26.6,22.9-44.1,25.2-2.8.4-5.6.5-8.4.5ZM973.6,135.1c-1.2,0-2.5,0-3.7.2-7.8,1-14.7,4.9-19.5,11.1h0c-4.8,6.2-6.9,13.9-5.9,21.7s4.9,14.7,11.1,19.5c6.2,4.8,13.9,6.9,21.7,5.9,7.8-1,14.7-4.9,19.5-11.1,4.8-6.2,6.9-13.9,5.9-21.7-1-7.8-4.9-14.7-11.1-19.5-5.2-4-11.5-6.2-18-6.2Z"/>
      <path class="st1" d="M1147.3,300.9l-29.4-22.4c67.8-88.9,37.9-207.2-32.6-261.9l22.7-29.2c43,33.4,73,85.2,82.1,142.1,9.9,61.4-5.3,122.3-42.8,171.5Z"/>
      <path class="st1" d="M969,385.8c-48.7,0-95.5-15.7-134.9-45.7l22.4-29.4c88.9,67.8,207.2,37.9,261.9-32.6l29.2,22.7c-33.4,43-85.2,73-142.1,82.1-12.2,2-24.5,3-36.6,3Z"/>
      <path class="st1" d="M845.7,344.3c-4,0-8-1.3-11.3-3.9-43-33.3-72.9-85.1-82-141.9-9.9-61.4,5.3-122.2,42.7-171.3,6.2-8.1,17.8-9.7,25.9-3.5,8.1,6.2,9.7,17.8,3.5,25.9-67.7,88.8-37.8,206.9,32.6,261.5,8.1,6.3,9.5,17.9,3.3,26-3.6,4.7-9.1,7.2-14.6,7.2Z"/>
      <path class="st1" d="M956.1,58.9c-8.5,0-16.1-5.8-18-14.4l-79.7-354.5c-2.2-10,4-19.9,14-22.1,10-2.2,19.9,4,22.1,14l79.7,354.5c2.2,10-4,19.9-14,22.1-1.4.3-2.7.5-4.1.5Z"/>
      <path class="st1" d="M961.9-121.5c-1.2-4.5-27.5-112.2,76-367.1,3.8-9.5,14.6-14,24.1-10.2,9.5,3.8,14,14.6,10.2,24.1-28.2,69.5-64.1,171.7-74.4,263.6-6.1,54.8-.2,80.2-.1,80.4v-.2s-35.8,9.4-35.8,9.4Z"/>
      <path class="st1" d="M1049.4-187v-.2s-36.2-7.3-36.2-7.3c.9-4.5,24.8-112.9,230.2-295.9,7.6-6.8,19.3-6.1,26.1,1.5s6.1,19.3-1.5,26.1c-56,49.9-133.3,125.8-183,203.7-29.7,46.5-35.5,71.9-35.6,72.1Z"/>
      <path class="st1" d="M1140.4-112.2c-4,0-8-1.3-11.4-4-8-6.3-9.4-18-3.1-26,3.1-4,78.7-98,329.6-207.4,9.4-4.1,20.3.2,24.4,9.6,4.1,9.4-.2,20.3-9.6,24.4-69.4,30.3-169,78.8-249,138-47.8,35.4-66.1,58.1-66.3,58.3-3.6,4.6-9.1,7.1-14.5,7.1Z"/>
      <path class="st1" d="M1082-152.3c-4,0-8-1.3-11.4-4-8-6.3-9.4-18-3.1-26,3.1-4,78.7-98,329.6-207.4,9.4-4.1,20.3.2,24.4,9.6,4.1,9.4-.2,20.3-9.6,24.4-69.4,30.3-169,78.8-249,138-47.8,35.4-66.1,58.1-66.3,58.3-3.6,4.6-9.1,7.1-14.5,7.1Z"/>
      <path class="st1" d="M1206.6-75.6c-4.9,0-9.7-1.9-13.4-5.7-7-7.4-6.8-19,.6-26.1,3.4-3.2,85.9-80.8,335.5-189.7,9.4-4.1,20.3.2,24.4,9.6,4.1,9.4-.2,20.3-9.6,24.4-242.2,105.6-323.9,181.7-324.7,182.5-3.6,3.4-8.2,5.1-12.8,5.1Z"/>
      <path class="st1" d="M1090.7-49.4c-4,0-8-1.3-11.3-3.9-8.1-6.3-9.5-17.9-3.3-26l48.1-61.9c6.3-8.1,17.9-9.5,26-3.3,8.1,6.3,9.5,17.9,3.3,26l-48.1,61.9c-3.6,4.7-9.1,7.2-14.6,7.2Z"/>
      <path class="st1" d="M1035.7-92.1c-4,0-8-1.3-11.3-3.9-8.1-6.3-9.5-17.9-3.3-26l48.1-61.9c6.3-8.1,17.9-9.5,26-3.3,8.1,6.3,9.5,17.9,3.3,26l-48.1,61.9c-3.6,4.7-9.1,7.2-14.6,7.2Z"/>
      <path class="st1" d="M1189.5,352.6c-3.9,0-7.9-1.2-11.2-3.8-8.1-6.2-9.7-17.8-3.5-25.9,22.7-29.8,38.9-62.1,48-96.1,8.6-31.9,10.8-64.3,6.6-96.5-4.1-31.2-14-60.7-29.4-87.9-15.5-27.2-35.7-50.6-60.2-69.6-8.1-6.3-9.5-17.9-3.3-26s17.9-9.5,26-3.3c28.4,22,51.8,49.1,69.7,80.6,17.8,31.3,29.2,65.4,33.9,101.4,10,76.3-12,154.4-61.9,219.8-3.6,4.8-9.2,7.3-14.7,7.3Z"/>
      <path class="st1" d="M968.2,457.6c-64.4,0-126.5-20.8-178.6-60.6l22.4-29.4c123.4,94.1,287.5,52.5,363.4-45.3l29.2,22.7c-44.2,56.9-112.7,96.6-188.1,108.7-16.2,2.6-32.4,3.9-48.5,3.9Z"/>
      <path class="st1" d="M801.6,401.4c-4,0-8-1.3-11.3-3.9-61.3-47.5-100.7-114-111-187.1-11.9-84.8,16.2-173.9,81.3-257.8,6.3-8.1,17.9-9.5,26-3.3,8.1,6.3,9.5,17.9,3.3,26-31,39.9-52.8,80.7-64.9,121.4-10.9,36.7-13.9,73.2-9,108.6,8.9,63.5,43.4,121.4,97,163,8.1,6.3,9.5,17.9,3.3,26-3.6,4.7-9.1,7.2-14.6,7.2Z"/>
      <path class="st1" d="M1247,397.4c-3.9,0-7.9-1.2-11.2-3.8-8.1-6.2-9.7-17.8-3.5-25.9,55.7-73,81.3-148,76.1-222.9-5.5-79.2-44.3-139.3-75.8-175.8-6.7-7.7-5.8-19.4,1.9-26.1,7.7-6.7,19.4-5.8,26.1,1.9,50.5,58.4,79.8,126.6,84.7,197.4,2.8,40.1-2.3,80.7-15.2,120.7-13.9,43.1-36.9,85.9-68.4,127.3-3.6,4.8-9.2,7.3-14.7,7.3Z"/>
      <path class="st1" d="M967.5,530.1c-80.3,0-157.7-26-222.7-75.5l22.4-29.4c73,55.7,163.5,78.2,254.8,63.5,84.8-13.7,161.8-58,211.2-121.7l29.2,22.7c-55.1,71-140.5,120.4-234.5,135.5-20.2,3.3-40.4,4.9-60.4,4.9Z"/>
      <path class="st1" d="M757,459.1c-4,0-8-1.3-11.3-3.9-57.3-44.5-99.7-102.6-122.6-168.2-12.4-35.4-18.8-72.4-19.1-110-.3-40,6.2-80.9,19.6-121.4,3.2-9.7,13.7-15,23.4-11.8,9.7,3.2,15,13.7,11.8,23.4-12.1,36.7-18,73.5-17.7,109.5.3,33.6,6,66.6,17,98.1,20.6,58.8,58.7,111.1,110.4,151.2,8.1,6.3,9.5,17.9,3.3,26-3.6,4.7-9.1,7.2-14.6,7.2Z"/>
      <path class="st1" d="M89,744.1c-.6,0-1.1,0-1.7,0-10.2-.9-17.7-9.9-16.8-20.1,5.8-64.2,33.4-133.3,77.7-194.8,46.1-64,107.5-114.7,172.8-142.8,9.4-4,20.3.3,24.3,9.7,4,9.4-.3,20.3-9.7,24.3-59.3,25.5-115.2,71.8-157.4,130.5-40.5,56.1-65.6,118.8-70.8,176.5-.9,9.6-8.9,16.8-18.4,16.8Z"/>
      <path class="st1" d="M13.8,680.1c-3,0-6-.7-8.8-2.2-9-4.9-12.3-16.1-7.4-25.1,2.5-4.7,5.3-9.7,8.1-15.1,29.8-55.5,79.7-148.5,160.6-237.8,6.9-7.6,18.6-8.1,26.1-1.3s8.1,18.6,1.3,26.1c-77.9,86-126.5,176.4-155.5,230.5-2.9,5.4-5.7,10.5-8.2,15.3-3.4,6.2-9.7,9.7-16.3,9.7Z"/>
      <path class="st1" d="M625.1,400.6c-2,0-4-.3-5.9-1-50.9-17.2-71.5-20-115.9-15.5-10.1,1-19.2-6.4-20.2-16.6s6.4-19.2,16.6-20.2c49.8-5,75.5-1.6,131.4,17.3,9.7,3.3,14.9,13.8,11.6,23.5-2.6,7.7-9.8,12.6-17.5,12.6Z"/>
      <path class="st1" d="M558.8,372.1c-3.9,0-7.9-1.2-11.3-3.8-8.1-6.2-9.6-17.8-3.4-25.9,10.1-13.2,15.8-41.6,12.4-62.1-1.7-10.1,5.1-19.6,15.2-21.3,10.1-1.7,19.6,5.1,21.3,15.2,5.1,30.6-3.3,69.6-19.5,90.7-3.6,4.7-9.1,7.2-14.7,7.2Z"/>
    </g>
  </g>
</svg>