<?xml version="1.0" encoding="UTF-8"?>
<svg id="Best_Long_Reads_Ever" xmlns="http://www.w3.org/2000/svg" version="1.1" viewBox="0 0 613.6 889.6">
  <!-- Generator: Adobe Illustrator 30.1.0, SVG Export Plug-In . SVG Version: 2.1.1 Build 136)  -->
  <defs>
    <style>
      .st0 {
        fill: #fff;
      }
    </style>
  </defs>
  <path class="st0" d="M453.8,444.6c31-12.9,59.4-31.9,83.7-56.3,48.2-48.5,74.8-112.9,74.8-181.4h-.5V2.6h-42s-525.4,0-525.4,0h0s-42,0-42,0v204.3h-.6c0,68.7,26.8,133.4,75.4,182,24.2,24.2,52.4,43,83.1,55.8-30.7,12.8-58.9,31.6-83.1,55.8C28.7,548.7,2,612.9,1.7,681.2h0v205.6h10.8c0,.1,597.8.1,597.8.1h0c0-.1,1.9-.1,1.9-.1v-204.4h0c0-68.4-26.6-132.8-74.8-181.4-24.3-24.5-52.7-43.5-83.7-56.3ZM570.2,681.2v163.7H43.7v-162.5h0c0-57.5,22.4-111.6,63.1-152.3,34.3-34.3,78.1-55.6,125.4-61.4v-48.1c-47.4-5.8-91.2-27.1-125.4-61.4-40.4-40.4-62.7-93.9-63.1-151h.6V44.7h525.4v163.5h.5c-.3,56.8-22.5,110.2-62.6,150.5-35.2,35.4-80.5,57.1-129.4,62.3v47.3c48.9,5.2,94.3,26.9,129.4,62.3,40.1,40.3,62.3,93.8,62.6,150.6h0Z"/>
  <path class="st0" d="M326,559.7v-262.7h.2v-21.3c47.5-1.4,85.6-40.4,85.7-88.2,0,0-39.3.7-107.1.7s-99.1-1.1-99.1-1.1h0c0,45.5,34.3,83,78.5,87.9v22h0v299.9h0v6.7c-43,6-76.6,43-76.7,87.6l206.8.2h0c0-48.8-39.4-88.4-88.2-88.5v-6h-.2v-37.2Z"/>
  <path class="st0" d="M242.2,312.8c-20.4-6.2-37.9-15.7-51.8-28.3-24.3-21.9-37.1-52-37.1-87.1h0v-55.7h307.4v56.3h0c-.1,36.7-11.4,65.9-33.6,86.7-15,14.1-34.8,24.2-59.1,30.2v43c36-7.3,65.4-21.6,87.9-42.7,30.6-28.8,46.8-69.6,46.8-117.9h0v-80.1h0v-17.6H111.3v42h0v56.3h0c.2,46.4,18.3,88.2,51,117.7,21.4,19.3,48.5,32.9,79.9,40.6v-43.5Z"/>
  <path class="st0" d="M456.8,565.3c-21.1-19-47.7-32.5-78.6-40.3-3.3-.8-6.7-1.6-10.2-2.3v43c24.2,6.1,44.7,16.4,60.6,30.8,24.3,21.9,37.1,52,37.1,87.1h0v55.7H158.4s0-56.3,0-56.3h0c.1-36.7,11.4-65.9,33.6-86.7,13.1-12.4,30-21.6,50.3-27.8v-43.5c-3.4.8-6.8,1.7-10,2.7-27.6,8-50.6,20.7-69,38-30.6,28.8-46.8,69.6-46.8,117.9h0v80.1h0v17.6h391.4v-42h0v-56.3h0c-.2-46.4-18.3-88.2-51-117.7Z"/>
</svg>