<?xml version="1.0" encoding="UTF-8"?>
<svg id="Layer_1" xmlns="http://www.w3.org/2000/svg" version="1.1" viewBox="0 0 1025.4 947.1">
  <!-- Generator: Adobe Illustrator 30.1.0, SVG Export Plug-In . SVG Version: 2.1.1 Build 136)  -->
  <defs>
    <style>
      .st0 {
        fill: #fff;
      }
    </style>
  </defs>
  <path class="st0" d="M897,715.7c-29.5-36.7-32.3-99.6,10.8-139.3l-25-27.2c-11.7,10.8-21.3,23.2-28.5,36.7l-151.3-116.9c15.4-33,26.8-71.5,26.8-113.1s-2.4-27.5-6.9-39.9L937,38.6l1.9-2.5c13.2-17.6-9.1-39.8-26.7-26.7l-2.5,1.9-292.4,225.8c-2.2-.1-4.3-.2-6.5-.2-42.2,0-79.3,22.1-100.4,55.3-21.1-33.2-58.3-55.3-100.4-55.3s-4.7,0-7,.2L110.4,11.3l-6.3-4.7c-17-12.7-38.4,8.7-25.7,25.7l4.7,6.3,214.6,277.8c-4.4,12.4-6.7,25.6-6.7,39.5,0,33.8,10.4,71.8,29.5,110.6l-154.6,119.4c-7.2-13.6-16.8-26-28.5-36.7l-25,27.2c43.2,39.7,40.3,102.6,10.8,139.3L2.5,836.3l26.2,26.2h0c0,0,55.4,55.3,55.4,55.3h0c0,0,26.2,26.2,26.2,26.2l121-121c36.7-29.1,99.3-31.9,138.9,11.2l27.2-25c-10.1-11-21.8-20.2-34.5-27.3l111.6-144.5c13.5,6.9,25.6,10.3,36.3,10.3s23-3.4,35.7-9.2l110.7,143.4c-12.7,7.1-24.3,16.2-34.5,27.3l27.2,25c39.5-43,102.2-40.3,138.9-11.2l121,121,26.2-26.2h0c0,0,55.4-55.5,55.4-55.5h0c0,0,26.2-26.1,26.2-26.1l-120.6-120.6ZM810.1,598.5l-55.2,55.2-103.4-103.4c10.4-12.8,22.4-29.1,33.8-48.2l124.8,96.4ZM510.8,610.7c-3.3,0-7.7-1.1-13.1-3.3-8.8-3.6-20.1-10.3-33-20.2-12.7-9.7-27-22.5-42-38.7-6.2-6.7-12.6-14-19.1-21.8-1.7-2.1-3.4-4.2-5.1-6.3-11.5-14.5-21.7-29.2-30.6-43.9-6.7-11.1-12.6-22.1-17.7-33.1-14.5-31.1-22.3-61.1-22.3-87.5s0-.2,0-.3c0-15.5,4.4-30,12-42.3,1.1-1.7,2.2-3.4,3.4-5.1,1.9-2.7,4-5.2,6.2-7.6,8.5-9.3,19.1-16.6,31.1-21.2,3.8-1.5,7.7-2.6,11.8-3.5,0,0,.1,0,.2,0,5.6-1.2,11.4-1.9,17.3-1.9,38.3,0,70.6,26.4,79.5,62,1.3,5.3,2.1,10.9,2.4,16.6,0,.8,0,1.7,0,2.6,0,.3,0,.5,0,.8,0,8.4,0,14.8,0,18.9v5.9s0,0,0,0c0,.3,0,.5,0,.8.5,11.3,9.6,18,18.5,18s16.4-5.6,18.1-15.1c.2-1,.3-2.1.3-3.2,0-.2,0-.3,0-.5v-6c0-4.2,0-10.5,0-18.9s0-2.5,0-3.7c0,0,0-.1,0-.2.3-5.4,1-10.6,2.3-15.7,8.8-35.8,41.1-62.4,79.6-62.4s9.6.4,14.2,1.3c1,.2,1.9.3,2.9.5,4.1.9,8,2,11.8,3.5,12,4.5,22.7,11.8,31.2,21.1,2.2,2.4,4.3,4.9,6.2,7.5.4.5.7,1,1.1,1.6,9,13,14.3,28.7,14.5,45.5,0,.3,0,.6,0,1,0,28.8-6.7,58.9-20,89.7-.6,1.5-1.3,2.9-1.9,4.4-4.4,9.8-9.4,19.6-15.1,29.3-8.9,15.3-19.2,30.3-30.6,44.7-2.4,3.1-4.9,6.1-7.5,9.1-5.7,6.7-11.4,13-17,18.8-15.4,15.9-30.2,28.4-43.5,37.7-13.3,9.4-25.1,15.5-34.1,18.7-4.9,1.7-9.1,2.6-12.2,2.6ZM829,112.1l-127.6,166.9c-.4-.5-.9-1-1.3-1.5-1-1.1-2-2.3-3.1-3.4-8.6-9-18.5-16.7-29.6-22.8-1.6-.9-3.2-1.7-4.9-2.5-1-.5-2-1-3-1.4l169.3-135.4ZM183.4,108.6l175.1,140c-.3.1-.6.3-.9.4-1.7.8-3.3,1.7-4.9,2.5-11,6-20.9,13.8-29.5,22.8-1,1.1-2.1,2.2-3.1,3.4-1.3,1.5-2.6,3.1-3.9,4.7L183.4,108.6ZM338.6,499.2c9.8,16,21.1,31.9,33.6,47.5l-107,107-55.2-55.2,128.6-99.3ZM110.3,891.6l-55.4-55.4,74.7-74.7,55.4,55.4-74.7,74.7ZM326.8,768c-9.5-2.2-19.3-3.4-29.3-3.5-31.2-.5-61.8,9.2-85.8,26.8l-56.6-56.6c17.7-23.9,27.3-54.5,26.8-85.8-.2-10.2-1.4-20.3-3.7-29.9l1.9,2.5.2-.2,146.5,146.5v.2ZM349.8,738.3l-58.4-58.4,105.2-105.1c15.1,16,30.6,30.2,45.8,41.9l-92.5,121.7ZM579.5,618.9c16.3-11.7,32.5-25.9,47.3-41l102,102-58.4,58.4-90.8-119.4ZM722.5,764.5c-10,.2-19.8,1.4-29.3,3.5v-.2c-.1,0,146.4-146.5,146.4-146.5l.2.2,1.9-2.5c-2.3,9.7-3.5,19.7-3.7,29.9-.5,31.2,9.2,61.8,26.8,85.8l-56.6,56.6c-23.9-17.7-54.5-27.3-85.8-26.8ZM909.8,891.6l-74.7-74.7,55.4-55.4,74.7,74.7-55.4,55.4Z"/>
</svg>