<?xml version="1.0" encoding="UTF-8"?>
<svg id="Layer_9" xmlns="http://www.w3.org/2000/svg" version="1.1" viewBox="0 0 887.7 305.9">
  <!-- Generator: Adobe Illustrator 30.1.0, SVG Export Plug-In . SVG Version: 2.1.1 Build 136)  -->
  <defs>
    <style>
      .st0 {
        fill: #fff;
      }
    </style>
  </defs>
  <path class="st0" d="M338.3,2.4c-.8,0-1.5,0-2.3,0-38.9,2-70,34.4-70,73.7h0v152.2h0c.2,39.9,32.4,72.7,72.2,73.5h0c0,0,224.9,0,224.9,0v-37h-223.5,0c-17.2-.1-31.7-12.2-35.6-28.3,0-.1,0-.2,0-.3-.7-2.6-1-5.2-1-8,0-.1,0-.2,0-.3,0,0,0-.1,0-.2h0V76.2h0v-2.2h.8-.7s-.2,0-.2,0c0-1.9.2-3.7.5-5.5,0,0,0,0,0-.1,2.5-14.5,14.1-26,28.7-28.2.6,0,1.3-.2,1.9-.2,1.4-.3,2.8-.5,4.2-.5.5,0,1,0,1.5,0,0,0,0,0,0,0h0c0-.1,223.5-.1,223.5-.1V2.2h-224.9v.2Z"/>
  <path class="st0" d="M531,68.4h-174.5c-10.5,0-19.1,8.5-19.3,19l-.2,18h194v-37Z"/>
  <rect class="st0" x="336.9" y="134.3" width="194" height="37"/>
  <path class="st0" d="M337.2,218.8c.1,9.7,8,17.5,17.7,17.5h176.1v-37h-194l.2,19.5Z"/>
  <path class="st0" d="M1.9,40.3h.3v31.9h-.2c0,33.4,16.4,62.9,41.5,80.9C18.4,171.3,2,200.8,2,234.2h.2v32h-.3v37.8h229.5s0-37.8,0-37.8h-.2v-32h.2c0-33.3-16.4-62.9-41.5-80.9,25.1-18.1,41.5-47.7,41.5-80.9h-.2v-31.9h.2V2.5H1.9v37.8ZM193.9,72.7c-.2,33-26.5,60-59.1,61.1v38.9c32.6,1,58.9,28.1,59.1,61.1h-.2v32.4H39.7v-32.4h-.2c.2-32.7,25.8-59.4,57.9-61.1v-38.9c-32.1-1.7-57.7-28.4-57.9-61h.2v-32.4h154.1v32.4h.2Z"/>
  <path class="st0" d="M112.3,102.7h9.9c16.5,0,29.9-13.4,29.9-30h-69.6c0,16.5,13.3,30,29.8,30Z"/>
  <path class="st0" d="M112.4,203.5c-16.5,0-29.9,13.4-29.9,30.1h69.6c0-16.5-13.3-30-29.8-30h-9.9Z"/>
  <path class="st0" d="M787.8,248.5c-.2.1-.4.2-.6.3-1.1.7-2.2,1.3-3.4,2-.2.1-.5.3-.7.4-1.3.7-2.6,1.4-4,2.1-.3.2-.6.3-1,.5-1.2.6-2.3,1.1-3.5,1.7-.3.1-.5.2-.7.3-1.4.6-2.8,1.2-4.2,1.7-.1,0-.3.1-.4.2,0,0-.2,0-.3.1-1.4.5-2.8,1-4.2,1.5-.2,0-.3.1-.5.2-22.1,7.4-46,7.7-68.2,1-.1,0-.3,0-.4-.1-1.4-.4-2.8-.9-4.2-1.4-.1,0-.3,0-.4-.1-.2,0-.4-.2-.6-.2-.4-.2-.9-.3-1.3-.5-.4-.2-.9-.3-1.3-.5-.4-.2-.8-.3-1.2-.5-.3-.1-.6-.2-.9-.4-16-6.6-34.3-3.1-46.5,9.1l-1,1c-1.2,1.2-2.5,2.1-3.9,2.9,11.6,9.3,24.7,16.9,39,22.6,17.9,7.1,36.7,10.6,55.4,10.6,20.3,0,40.7-4.2,59.9-12.5,12.9-5.6,24.8-12.9,35.4-21.5l-18.5-18.5c-4.7-4.7-12.1-5.5-17.8-2Z"/>
  <path class="st0" d="M673,54.2c1.1-.6,2.2-1.2,3.2-1.8.2,0,.3-.2.5-.3,1-.5,2-1,3-1.5.4-.2.8-.4,1.2-.6.8-.4,1.6-.7,2.4-1.1.5-.2.9-.4,1.4-.6.7-.3,1.5-.6,2.2-.9.5-.2,1-.4,1.5-.6.8-.3,1.5-.6,2.3-.8.5-.2,1-.3,1.5-.5.8-.3,1.6-.5,2.4-.8.4-.1.9-.3,1.3-.4,1-.3,2-.6,3-.9.3,0,.6-.2.8-.2,1.3-.3,2.5-.7,3.8-1,.3,0,.7-.1,1-.2.9-.2,1.9-.4,2.8-.6.5,0,1-.2,1.4-.3.8-.1,1.6-.3,2.5-.4.5,0,1-.2,1.6-.2.8-.1,1.6-.2,2.4-.3.5,0,1.1-.1,1.6-.2.8,0,1.6-.2,2.5-.2.5,0,1,0,1.5-.1.9,0,1.8-.1,2.7-.2.4,0,.9,0,1.3,0,1.3,0,2.7,0,4,0,13.8,0,27.8,2.5,41.3,7.9.2,0,.5.2.7.3,15.1,6.1,32.5,2.7,44-8.9l5.8-5.8c-10.9-8.4-23.2-15.4-36.6-20.8-50.4-19.9-105.1-10.7-145.6,19.6l20.4,20.4c3.7,3.7,9.5,4.6,14.1,2Z"/>
  <path class="st0" d="M630.2,75.2l-18.2-18.2c-9.6,11.7-17.6,25.1-23.4,40-14.8,37.4-14.1,78.4,1.9,115.3,5.1,11.7,11.5,22.6,19.2,32.5.8-1.3,1.7-2.5,2.8-3.6l5.8-5.8c10-10,12.6-25,7-37.9,0,0,0-.1,0-.2-12-27.7-12.5-58.3-1.4-86.4.6-1.4,1.1-2.8,1.8-4.2.2-.4.4-.9.6-1.3.4-.9.9-1.9,1.3-2.8.2-.5.5-.9.7-1.4.5-.9.9-1.8,1.4-2.7.2-.4.4-.8.7-1.2.7-1.2,1.4-2.4,2.1-3.6,0,0,0-.1.1-.2,3.6-5.8,2.7-13.4-2.2-18.2Z"/>
  <path class="st0" d="M846.6,58.6l-1.7,1.7c-13.5,13.5-17.7,33.8-10.8,51.6.1.3.2.5.3.8.1.3.2.6.3.9.3.8.6,1.6.9,2.5,0,.2.1.3.2.5.3,1,.6,2,.9,3,0,.3.2.5.2.8.2.8.4,1.5.7,2.3,0,.3.2.6.2.9.3,1,.5,2,.8,3,0,0,0,0,0,0,.2,1,.5,2,.7,3.1,0,.3.1.6.2.9.2.8.3,1.6.4,2.4,0,.3,0,.5.1.8.2,1,.3,2.1.5,3.1,0,.2,0,.3,0,.5.1.9.2,1.8.3,2.6,0,.3,0,.6.1.9,0,.8.2,1.7.2,2.5,0,.2,0,.4,0,.7,0,1,.1,2.1.2,3.1,0,.3,0,.5,0,.8,0,.8,0,1.7,0,2.5,0,.3,0,.6,0,.9,0,1,0,1.9,0,2.9,0,.1,0,.2,0,.3,0,1.1,0,2.1-.1,3.2,0,.3,0,.6,0,.9,0,.8-.1,1.6-.2,2.4,0,.3,0,.6,0,.9,0,1.1-.2,2.1-.3,3.2,0,.1,0,.2,0,.3-.1,1-.2,1.9-.4,2.9,0,.3,0,.6-.1.9-.1.8-.3,1.7-.4,2.5,0,.3,0,.5-.1.8-.2,1.1-.4,2.1-.6,3.2,0,.2-.1.5-.2.7-.2.9-.4,1.7-.6,2.6,0,.3-.2.6-.2,1-.2.9-.5,1.8-.7,2.7,0,.2,0,.4-.1.5-.3,1.1-.6,2.1-1,3.2,0,.3-.2.6-.3.8-.3.8-.5,1.6-.8,2.4-.1.3-.2.6-.3.9-.4,1.1-.8,2.1-1.2,3.1-.4,1-.8,2-1.2,3-.1.3-.3.7-.4,1-.3.7-.6,1.3-.9,2-.2.4-.4.8-.6,1.2-.3.6-.6,1.2-.8,1.7-.2.4-.4.8-.6,1.2-.3.6-.6,1.1-.9,1.6,0,.1-.1.3-.2.4-3.2,6-2.1,13.5,2.8,18.4l18.4,18.4c7.9-10.6,14.5-22.4,19.5-35,20.5-51.8,10.1-108.3-22.2-149.1Z"/>
  <path class="st0" d="M790.5,133.9l11-41.1v-.3c0,0,.8-2.8.8-2.8,1.7-6.2-4-11.8-10.2-10.2l-3.4.9-1.4.4-39.4,10.6c-6.2,1.7-8.2,9.4-3.7,13.9l32.4,32.4c4.5,4.5,12.2,2.5,13.9-3.7Z"/>
  <path class="st0" d="M669.9,169.2l-10.1,37.5v.4c0,0-2,6.9-2,6.9-1.6,6,3.9,11.6,9.9,9.9l5-1.3,1.5-.4,38.3-10.3c6-1.6,8.1-9.2,3.6-13.6l-32.8-32.8c-4.4-4.4-12-2.4-13.6,3.6Z"/>
  <circle class="st0" cx="729.5" cy="151" r="20"/>
</svg>