<?xml version="1.0" encoding="UTF-8"?>
<svg id="Layer_3" xmlns="http://www.w3.org/2000/svg" version="1.1" viewBox="0 0 299.9 524.7">
  <!-- Generator: Adobe Illustrator 30.1.0, SVG Export Plug-In . SVG Version: 2.1.1 Build 136)  -->
  <defs>
    <style>
      .st0 {
        fill: #f66c4c;
      }
    </style>
  </defs>
  <path class="st0" d="M3.8,1.7v36.6h0v446.3h0v36.6h0c40.2,0,81-16.6,112-45.5,14.2-13.3,25.7-28.5,34.3-45.1,8.6,16.6,20.1,31.9,34.3,45.1,31,28.9,71.8,45.5,112,45.5h0v-36.5s0,0,0,0V38.7h0V1.7H3.8ZM259.6,478.3c-48-15.7-90.1-60.8-90.7-122l-18.7.2-18.7-.2c-.5,61.2-42.6,106.3-90.6,122V38.7h218.8v439.5Z"/>
  <path class="st0" d="M86.4,140.9l23.5,17c3.6,2.6,5.2,7.3,3.8,11.6l-8.9,27.6c-3.1,9.5,7.8,17.4,15.9,11.5l23.4-17.1c3.6-2.6,8.5-2.6,12.2,0l23.5,17c8.1,5.9,19-2.1,15.9-11.6l-9-27.6c-1.4-4.3.1-8.9,3.7-11.6l23.4-17.1c8.1-5.9,3.9-18.7-6.1-18.7h-29c-4.5,0-8.5-2.8-9.8-7.1l-9-27.6c-3.1-9.5-16.6-9.5-19.7,0l-8.9,27.6c-1.4,4.3-5.3,7.2-9.8,7.2h-29c-10,0-14.2,12.9-6,18.8Z"/>
</svg>