<?xml version="1.0" encoding="UTF-8"?>
<svg id="Layer_1" xmlns="http://www.w3.org/2000/svg" version="1.1" viewBox="0 0 128.3 134">
  <!-- Generator: Adobe Illustrator 30.1.0, SVG Export Plug-In . SVG Version: 2.1.1 Build 136)  -->
  <defs>
    <style>
      .st0 {
        fill: #2c5143;
      }
    </style>
  </defs>
  <path class="st0" d="M63.4,4.5c-3.8,0-7.2,1.6-10.6,2.1s-7.5-.3-10.8.8-6.7,3-9.8,4.7-6.7,3.2-9.4,5.6-4.7,5.6-6.9,8.5-3.4,6.3-5,9.5-2.9,6.5-3.9,9.9-3.3,6.6-3.9,10.2c-.5,3.6-.3,7.3-.3,10.9,0,3.6-.4,7.4.1,10.9s2.1,7,3.2,10.4c1.1,3.4,3.1,6.5,4.7,9.7s3.6,6.1,5.8,9,4.5,5.4,7.2,7.8,5.2,4.9,8.4,6.7,6.1,3.8,9.7,5,7,1.5,10.7,2,7-.8,10.8-.8c3.8,0,7.2.1,10.6-.4s7.1-1.1,10.4-2.2,6.9-2.3,9.9-4,6.6-3.3,9.2-5.6,4.8-5.4,6.9-8.3,3.4-6.3,5-9.5,3.2-6.3,4.3-9.7,3.5-6.6,4-10.2c.5-3.6.5-7.3.5-10.9s-1-7.2-1.5-10.7-1.6-7-2.7-10.4-2.4-6.8-4-9.9-3.3-6.4-5.5-9.2c-2.2-2.8-4-6.1-6.8-8.5s-5.9-4.2-9.1-6-6.6-2.8-10.1-3.9-6.6-3-10.3-3.6-7.1,0-10.9.2ZM65.5,12.7c4.2,0,7.4,2.9,7.4,6.1s-3.2,6-7.4,5.9c-4.1,0-6.1-2.7-6.1-5.9s1.9-6.2,6.1-6.1ZM71.4,47.2c0,6.6-11.1,6.6-11,0,0-6.6,11.1-6.6,11,0ZM17.3,76.3c-4.4,0-7.8-3.1-7.8-6.5s3.4-6.4,7.8-6.3c4.4,0,6.5,2.9,6.5,6.3s-2.1,6.6-6.5,6.5ZM25,37.4c0-4.8,1.6-9.2,4.9-10.8,3.5-1.8,8.3-.3,11.9,1.5s5.9,4.5,5.8,9.4c0,4.8-2.7,7.2-6,8.9s-7.4,2.5-11,.7-5.6-4.7-5.5-9.5ZM41.2,101.7c-5.7,0-5.7-9.7,0-9.6,5.7,0,5.7,9.7,0,9.6ZM44.7,79.2c-6.6,0-6.6-11.1,0-11,6.6,0,6.6,11.1,0,11ZM57.1,121.7c-5.7,0-5.7-9.7,0-9.6,5.7,0,5.7,9.7,0,9.6ZM67.1,103.7c-4.4,0-7.8-3.1-7.8-6.5s3.4-6.4,7.8-6.3c4.4,0,6.5,2.9,6.5,6.3s-2.1,6.6-6.5,6.5ZM75.6,77c-4.4,0-7.8-3.1-7.8-6.5,0-3.4,3.4-6.4,7.8-6.3,4.4,0,6.5,2.9,6.5,6.3s-2.1,6.6-6.5,6.5ZM85.8,24.9c0-5.7,9.7-5.7,9.6,0,0,5.7-9.7,5.7-9.6,0ZM92.4,103.7c-6.6,0-6.6-11.1,0-11,6.6,0,6.6,11.1,0,11ZM96.5,54.7c-5.5,0-9.4-3.9-9.4-8.1s3.9-8,9.4-7.9c5.5,0,8.1,3.7,8.1,7.9s-2.6,8.2-8.1,8.1ZM107.1,76c-5.7,0-5.7-9.7,0-9.6,5.7,0,5.7,9.7,0,9.6Z"/>
</svg>