<?xml version="1.0" encoding="UTF-8"?>
<svg id="Layer_1" xmlns="http://www.w3.org/2000/svg" version="1.1" viewBox="0 0 419.5 998">
  <!-- Generator: Adobe Illustrator 30.1.0, SVG Export Plug-In . SVG Version: 2.1.1 Build 136)  -->
  <defs>
    <style>
      .st0 {
        fill: #f66c4c;
      }
    </style>
  </defs>
  <path class="st0" d="M341.4,421.9h37c0-14.5-5.6-28.2-15.9-38.6s-24-16.1-38.6-16.1v37c9.6,0,17.5,8,17.5,17.7Z"/>
  <path class="st0" d="M323.9,439.6h0c0,0-195.1,0-195.1,0v1.4-1.5c-14.6,0-28.3,5.8-38.6,16.1-10.3,10.3-15.9,24.1-15.9,38.7h37c0-4.8,1.8-9.2,5.1-12.6,3.3-3.3,7.7-5.2,12.4-5.2h0s195.2,0,195.2,0h0c30-.1,54.5-24.5,54.5-54.5h-37c0,9.6-7.9,17.5-17.6,17.5Z"/>
  <path class="st0" d="M128.8,512v.7-.7h0c-9.7,0-17.6-7.9-17.6-17.6h-37c0,14.7,5.8,28.4,16.1,38.7,10.3,10.3,24,15.9,38.5,15.9h0s195,0,195,0v.2c9.7,0,17.6,8,17.6,17.7h37c0-14.5-5.6-28.2-15.9-38.6-10.2-10.3-23.8-16-38.3-16.1v-.2h-195.3Z"/>
  <path class="st0" d="M324.2,694.1v-.3c9.6.2,17.2,8.1,17.2,17.7h37c0-14.5-5.6-28.2-15.9-38.6s-24-16.1-38.6-16.1v.3h-195.1v.7-.7h0c-9.7,0-17.6-7.9-17.6-17.6h-37c0,30.2,24.6,54.6,54.6,54.6h0s195.3,0,195.3,0Z"/>
  <path class="st0" d="M323.9,584.5h0c0,0-195.1,0-195.1,0v1.6-1.5c-14.6,0-28.3,5.8-38.6,16.1s-15.9,24.1-15.9,38.7h37c0-9.8,7.9-17.8,17.6-17.8v-.2s195.1,0,195.1,0h0c14.5,0,28.2-5.7,38.4-16,10.3-10.3,16.1-24,16.1-38.6h-37c0,9.6-7.9,17.5-17.6,17.5Z"/>
  <path class="st0" d="M323.9,729.1h0c0,0-195.1,0-195.1,0v1.4-1.5c-14.6,0-28.3,5.8-38.6,16.1s-15.9,24.1-15.9,38.7h37c0-9.8,7.8-17.7,17.5-17.8h0s195.2,0,195.2,0h0c14.5,0,28.2-5.7,38.4-16,10.3-10.3,16.1-24,16.1-38.6h-37c0,9.6-7.9,17.5-17.6,17.5Z"/>
  <path class="st0" d="M128.8,801.5v.7-.7h0c-9.7,0-17.6-7.9-17.6-17.6h-37c0,30.2,24.6,54.6,54.6,54.6h0s195,0,195,0v.2c4.7,0,9.1,1.9,12.5,5.2,3.3,3.3,5.1,7.8,5.1,12.5h37c0-14.5-5.6-28.2-15.9-38.6-10.2-10.3-23.8-16-38.3-16.1v-.2h-195.3Z"/>
  <path class="st0" d="M323.9,874h0c0,0-195.1,0-195.1,0v1.6-1.5c-14.6,0-28.3,5.8-38.6,16.1-10.3,10.3-15.9,24.1-15.9,38.7h37c0-4.8,1.8-9.2,5.1-12.6,3.3-3.3,7.7-5.2,12.5-5.2v-.2s195.1,0,195.1,0h0c14.5,0,28.2-5.7,38.4-16,10.3-10.3,16.1-24,16.1-38.6h-37c0,9.6-7.9,17.5-17.6,17.5Z"/>
  <path class="st0" d="M369.9,168.4c.3-8.1,0-16.2-.8-24.2h.2C359.8,60.7,286.5-.3,203.6,4.5c0,0,0,0-.1,0-.6,0-1.1,0-1.7.1-1.5.1-3,.2-4.6.4-.8,0-1.6.1-2.4.2-.8,0-1.6.2-2.3.3-1,.1-2,.3-3,.4-.6,0-1.1.2-1.7.3-26.4,4.1-51.5,14.9-73.1,32-33.1,26.1-54,63.5-58.9,105.3h.2c-.9,7.9-1.3,15.9-1,24-32.3,16.5-51.6,52.8-44.9,90.3,4,22.3,16.4,41.7,34.9,54.6,11.3,7.9,24.1,12.8,37.5,14.5,2.5,19.2,11.1,37,25,51,16.7,16.8,38.9,26,62.5,26.1h0c0,0,153.5,0,153.5,0v-37h-153.6c-13.7,0-26.6-5.4-36.2-15.1-7.6-7.6-12.5-17.2-14.2-27.6l25.2-4.6-30.2-166.7-22.5,4.1c2.3-57.2,45.2-106.1,103.2-114.5,1-.1,2-.3,3-.4,1.1-.1,2.1-.2,3.2-.3.3,0,.6,0,.9,0,.2,0,.4,0,.6,0,7.7-.6,15.6-.4,23.5.5,32,3.8,60.6,19.8,80.6,45.1,16,20.3,24.9,44.7,25.9,70.1l-24.3-4.4-30.2,166.7,36.3,6.6h0c5,.9,10.1,1.3,15.1,1.3,17.2,0,33.9-5.2,48.2-15.2,18.6-12.9,31-32.3,34.9-54.6,6.6-36.8-11.9-72.5-43.1-89.4ZM66.2,282c-10.4-7.3-17.4-18.2-19.7-30.7-4.6-25.7,12.5-50.4,38.1-55.2l17,93.8c-12.5,2.2-25.1-.6-35.5-7.9ZM376.6,251.2c-2.2,12.5-9.2,23.5-19.7,30.7-10.4,7.2-23,10-35.5,7.9l17-93.8c25.6,4.8,42.7,29.5,38.1,55.2Z"/>
  <path class="st0" d="M360.5,954.1h-31.1c-4.4-11.1-15.2-19-27.9-19h-44.8c-9.6,0-18.1,4.5-23.6,11.5h-104.3v.7-.7h0c-9.7,0-17.6-7.9-17.6-17.6h-37c0,14.7,5.8,28.4,16.1,38.7,10.3,10.3,24,15.9,38.5,15.9h0s104.3,0,104.3,0c5.5,7,14,11.5,23.6,11.5h44.8c12.7,0,23.5-7.9,27.9-19h31.1c6.1,0,11-4.9,11-11s-4.9-11-11-11Z"/>
</svg>