<?xml version="1.0" encoding="UTF-8"?>
<svg id="Layer_1" xmlns="http://www.w3.org/2000/svg" version="1.1" viewBox="0 0 301.2 302.4">
  <!-- Generator: Adobe Illustrator 30.2.1, SVG Export Plug-In . SVG Version: 2.1.1 Build 1)  -->
  <defs>
    <style>
      .st0 {
        fill: #fff;
      }
    </style>
  </defs>
  <path class="st0" d="M299.4,2.3c-39.3,0-79.5,11.2-110.3,30.6-16.3,10.3-29.3,22.4-38.8,35.9-9.5-13.5-22.6-25.6-38.8-35.9C80.6,13.5,40.4,2.3,1.1,2.3h0v43.1h0s0,0,.1,0v141.6h0v33.2h0c33.3,0,67.1,9.3,92.7,25.4,13.2,8.3,34.8,25.4,37.7,49.5,0,1.4-.1,2.9-.2,4.3h.5c0,.2,0,.4,0,.6l18.3-.3,18.3.3c0-.2,0-.4,0-.6h.5c0-1.4,0-2.9-.2-4.3,2.9-24.1,24.5-41.2,37.7-49.5,25.6-16.1,59.4-25.4,92.7-25.4h0v-33.2h0V45.4s0,0,.1,0h0V2.3h0ZM111.6,207.8c-21.2-13.3-46.7-22.8-73.4-27.4V49.2c20.3,4.1,39.5,11.5,55.5,21.6,13.5,8.5,36,26.4,37.9,51.6v100.4c-6-5.4-12.7-10.4-20.1-15ZM262.3,180.4c-26.6,4.6-52.2,14.1-73.4,27.4-7.4,4.7-14.2,9.8-20.2,15.2v-97.7h0c0-.2,0-.4,0-.6h0c0-.4,0-.8,0-1.2,1.4-25.7,24.2-44,38-52.6,16-10.1,35.2-17.5,55.5-21.6v131.2Z"/>
</svg>