<?xml version="1.0" encoding="UTF-8"?>
<svg id="Layer_2" xmlns="http://www.w3.org/2000/svg" version="1.1" viewBox="0 0 744.7 297.9">
  <!-- Generator: Adobe Illustrator 30.1.0, SVG Export Plug-In . SVG Version: 2.1.1 Build 136)  -->
  <defs>
    <style>
      .st0 {
        fill: #f66c4c;
      }
    </style>
  </defs>
  <path class="st0" d="M1.9,38.7h.3v31.3h-.2c0,32.6,16.2,61.6,40.9,79.2C18.2,166.8,2,195.7,2,228.4h.2v31.3h-.3v37h226.5v-37h-.2v-31.3h.2c0-32.6-16.2-61.5-41-79.2,24.8-17.7,41-46.6,41-79.2h-.2v-31.3h.2V1.7H1.9v37ZM191.4,70.4c-.2,32.3-26.2,58.7-58.3,59.8v38c32.2,1,58.1,27.5,58.3,59.8h-.2v31.7H39.2v-31.7h-.2c.2-32,25.5-58.2,57.1-59.8v-38.1c-31.6-1.6-56.9-27.8-57.1-59.7h.2v-31.7h152.1v31.7h.2Z"/>
  <path class="st0" d="M110.9,99.7h9.8c16.3,0,29.5-13.1,29.5-29.4h-68.7c0,16.1,13.2,29.3,29.4,29.4Z"/>
  <path class="st0" d="M111,198.4c-16.3,0-29.5,13.2-29.5,29.4h0s68.7.1,68.7.1c0-16.3-13.2-29.5-29.4-29.5h-9.8Z"/>
  <path class="st0" d="M424.8,114c28.9-31,45.5-71.9,45.5-112h-37c0,42.4-24.8,87.2-65.6,110.7.6-1.5,1.2-2.9,1.8-4.5,10.9-28.6,17.2-67.4,17.2-106.3h-37c0,34.6-5.4,68.5-14.7,93.1-4,10.4-14.7,34.4-29.4,34.5,0,0-.2,0-.2,0v.5s-.8,0-.8,0V1.6h-37v294h37v-128.5h.8c0,0,.2,0,.2,0,14.6,0,25.4,24.2,29.4,34.5,9.4,24.6,14.8,58.5,14.7,93.1h37c0-38.9-6.2-77.6-17.2-106.3-.6-1.5-1.2-3-1.8-4.5,40.8,23.6,65.6,68.3,65.6,110.7h37c0-40.2-16.6-81-45.5-112-5.3-5.6-10.8-10.8-16.7-15.6h63.2v-37h-63.8c6-4.9,11.8-10.3,17.2-16.1Z"/>
  <path class="st0" d="M741.6,39h0V2c0,0-233.5-.5-233.5-.5v37c0,0,0,0,0,0,0,0,0,.1,0,.2v19.1s0,104.4,0,104.4c-.6,11.1,0,85.7,116.6,133.1h0c0,.1,0,0,.1,0,0,0,0,0,.1,0h0c116.6-47.5,117.2-122.1,116.6-133.2,0-40.8,0-116.2,0-123.2ZM526.7,38.5h0l6.4,17.2-6.4-17.2ZM554.8,197c-10-17.6-9.8-30.9-9.7-32.6,0-.7,0-.9,0-1.7,0-1.2,0-119.4,0-124.2h60.3v206.1c-23.3-13.7-40.5-29.9-50.6-47.7ZM695,197c-10.4,18.3-28.3,34.8-52.6,48.8V38.7h62.3c0,.4,0,.7,0,1v18s0,104.9,0,104.9c0,.8,0,1,0,1.7,0,1.7.3,14.9-9.7,32.6Z"/>
</svg>