<?xml version="1.0" encoding="UTF-8"?>
<svg id="Layer_1" xmlns="http://www.w3.org/2000/svg" version="1.1" viewBox="0 0 2167.5 560">
  <!-- Generator: Adobe Illustrator 30.1.0, SVG Export Plug-In . SVG Version: 2.1.1 Build 136)  -->
  <defs>
    <style>
      .st0 {
        fill: #ff6b4a;
      }
    </style>
  </defs>
  <path class="st0" d="M1066.3,336.3l18.8.2c.7-78,67.7-130.4,129.9-130.4h0v-37h-.6V38.5h.6V1.5h0c-40.7,0-82.1,16.8-113.6,46.2-14.6,13.6-26.3,29.2-35.1,46.3-8.8-17.1-20.5-32.7-35.1-46.3-31.5-29.4-72.8-46.2-113.6-46.2h0v37h.4v130.5h-.4v37h0c62.2,0,129.3,52.4,129.9,130.4l18.8-.2h0ZM1177.3,44.7v129.1c-27.7,6.9-54.2,21.2-76,41.5-6.1,5.7-11.6,11.7-16.7,18v-64.3h.4c.5-62.3,43.4-108.2,92.3-124.2h0ZM1031.2,215.3c-21.8-20.3-48.4-34.7-76.2-41.5V44.6c49,15.9,92,61.9,92.5,124.3h0v64c-5-6.2-10.5-12.1-16.5-17.7h0Z"/>
  <polygon class="st0" points="480 403.4 442.5 403.4 442.5 550.3 523.5 550.3 523.5 517.3 480 517.3 480 403.4"/>
  <path class="st0" d="M600.9,400.6c-25,0-47,10.3-62.1,30.2-3.8,5-7.3,10.7-9.5,16.5-4,10.1-5.8,20.4-5.8,31.4,0,42.3,35.7,74.4,77.2,74.4s77.8-32.7,77.8-76.2-34.7-76.2-77.6-76.2h0ZM601.5,520.1c-24.4,0-40.5-20.2-40.5-43.7s16.1-42.9,40.1-42.9,39.9,20.6,39.9,43.5-15.9,43.1-39.5,43.1Z"/>
  <polygon class="st0" points="778.3 495.3 777.9 495.7 721.2 403.4 688.8 403.4 688.8 550.3 724.7 550.3 723.7 461.2 724.1 461 780.1 550.3 812.6 550.3 812.6 403.4 776.7 403.4 778.3 495.3"/>
  <path class="st0" d="M892.6,466.7v30h43.9c-4.6,16.3-19.1,23.6-35.1,23.6-25,0-40.3-20-40.3-44.1s16.1-42.7,40.1-42.7,25.6,6.9,32.3,19.1h42.1c-8.9-31.4-41.7-52-73.4-52s-78.6,31.6-78.6,75.6,34.7,77,78,77,78.4-33.7,78.4-78.8,0-5.2-.2-7.7h-87.2Z"/>
  <path class="st0" d="M1113.5,472.6c11.3-6.4,17.7-17.7,17.7-30.7s-2.7-18.1-9.1-25.1c-13.2-14.6-30.5-14.8-48.8-14.8h-46.9v152.3h48.4c19.8,0,34.2.2,49.8-13.2,9.5-8,14-21,14-33.1,0-17.3-8.4-29.6-25.1-35.4h0ZM1063.7,436.2h15c8,0,15.2,1.9,15.2,11.5s-7,12.1-15.4,12.1h-14.8v-23.7h0ZM1083,520.2h-19.3v-27.8h19.5c9.1,0,18.1,2.3,18.1,13.2s-8.6,14.6-18.3,14.6h0Z"/>
  <path class="st0" d="M1224.6,399.2c-25.9,0-48.8,10.7-64.4,31.3-3.9,5.1-7.6,11.1-9.9,17.1-4.1,10.5-6,21.2-6,32.5,0,43.8,37,77.2,80,77.2s80.7-34,80.7-79-36-79-80.5-79h.1ZM1225.2,523c-25.3,0-42-21-42-45.3s16.7-44.4,41.6-44.4,41.4,21.4,41.4,45.1-16.5,44.6-40.9,44.6h0Z"/>
  <path class="st0" d="M1394.8,399.2c-25.9,0-48.8,10.7-64.4,31.3-3.9,5.1-7.6,11.1-9.9,17.1-4.1,10.5-6,21.2-6,32.5,0,43.8,37,77.2,80,77.2s80.7-34,80.7-79-36-79-80.5-79h.1ZM1395.4,523c-25.3,0-42-21-42-45.3s16.7-44.4,41.6-44.4,41.4,21.4,41.4,45.1-16.5,44.6-40.9,44.6h0Z"/>
  <polygon class="st0" points="1608.2 402 1567.5 402 1524.5 470.6 1524.1 470.6 1524.1 402 1485.2 402 1485.2 554.3 1524.1 554.3 1524.1 488.5 1524.5 488.5 1566 554.3 1611.5 554.3 1557.8 478 1608.2 402"/>
  <path class="st0" d="M65.5,549.2h-14.8v-131.7H2v-13.5h112v13.5h-48.6v131.7Z"/>
  <path class="st0" d="M142.7,404h14.8v63h79.2v-63h14.8v145.3h-14.8v-68.7h-79.2v68.7h-14.8v-145.3Z"/>
  <path class="st0" d="M308.6,535.7h77.8v13.5h-92.6v-145.3h90.1v13.5h-75.3v49.5h70.4v13.5h-70.4v55.2Z"/>
  <g>
    <path class="st0" d="M1773.6,527.9c-2.5,3.8-5.5,7.4-9.2,10.7-3.7,3.4-7.8,6.3-12.5,8.7-4.7,2.5-9.7,4.4-15.2,5.8-5.4,1.4-11.2,2.1-17.2,2.1-10.9,0-21-2-30.3-5.9-9.3-3.9-17.4-9.3-24.2-16.3-6.8-6.9-12.2-15.2-16-24.7-3.9-9.5-5.8-19.9-5.8-31.3s1.9-21.8,5.8-31.3c3.9-9.5,9.2-17.7,16-24.7,6.8-6.9,14.9-12.4,24.2-16.3,9.3-3.9,19.4-5.9,30.3-5.9s18.2,1.8,27.3,5.5c9.1,3.6,16.9,9.7,23.3,18.1l-13,9.9c-1.5-2.4-3.6-4.8-6.2-7.1-2.6-2.4-5.6-4.5-9-6.3-3.4-1.8-7-3.3-10.8-4.4-3.9-1.1-7.7-1.7-11.6-1.7-9.4,0-17.8,1.8-25.2,5.3-7.4,3.5-13.7,8.2-18.9,14.1-5.2,5.9-9.1,12.7-11.9,20.5-2.8,7.8-4.1,15.9-4.1,24.5s1.4,16.7,4.1,24.5c2.8,7.8,6.7,14.6,11.9,20.5,5.2,5.9,11.5,10.6,18.9,14.1,7.4,3.5,15.8,5.2,25.2,5.2s7.7-.3,11.5-1c3.8-.7,7.5-1.9,11.2-3.6,3.6-1.7,7.1-4,10.3-6.8,3.2-2.9,6.2-6.5,9-10.8l12.2,8.8Z"/>
    <path class="st0" d="M1831.7,537.6h68.2v13.9h-83v-148.7h14.9v134.8Z"/>
    <path class="st0" d="M2031.1,495.3c0,6.2-.7,12.7-2.2,19.6-1.4,6.9-4.2,13.3-8.2,19.2-4,5.9-9.5,10.7-16.4,14.6-7,3.8-15.9,5.8-26.7,5.8s-20-1.9-26.9-5.8c-6.9-3.8-12.3-8.7-16.3-14.6-4-5.9-6.7-12.3-8.2-19.2-1.4-6.9-2.2-13.5-2.2-19.6v-93.2h14.9v91.6c0,7.1.7,13.3,2.1,18.4,1.4,5.1,3.2,9.4,5.5,12.9,2.3,3.5,4.8,6.3,7.6,8.3,2.8,2,5.6,3.6,8.5,4.7,2.8,1.1,5.5,1.9,8.2,2.2,2.6.4,4.9.5,6.8.5s4-.2,6.7-.5c2.7-.3,5.4-1.1,8.3-2.2,2.8-1.1,5.6-2.7,8.5-4.7,2.8-2,5.4-4.8,7.6-8.3,2.3-3.5,4.1-7.8,5.5-12.9,1.4-5.1,2.1-11.2,2.1-18.4v-91.6h14.9v93.2Z"/>
    <path class="st0" d="M2064.7,403.5h43.6c6.1,0,11.9.6,17.6,1.9,5.6,1.3,10.7,3.4,15.1,6.3,4.4,2.9,7.9,6.8,10.5,11.5,2.6,4.8,3.9,10.6,3.9,17.6s-2.2,15.1-6.7,20.9c-4.5,5.8-10.8,9.7-19.1,11.7v.4c10.3.8,18.4,4.5,24.3,11,5.9,6.5,8.8,15.2,8.8,26.1s-.6,5.9-1.8,10.5c-1.2,4.6-3.6,9.2-7.3,13.8-3.7,4.6-9.1,8.5-16.1,11.9-7,3.4-16.4,5-28.1,5h-44.6v-148.7ZM2079.5,468.6h29.9c3.6,0,7.1-.5,10.6-1.4,3.5-.9,6.7-2.4,9.5-4.5,2.8-2.1,5.1-4.8,6.9-8.1,1.8-3.3,2.7-7.3,2.7-12.1s-.3-3.7-.9-6.5c-.6-2.8-2-5.6-4.1-8.4-2.1-2.8-5.3-5.2-9.4-7.2-4.1-2-9.7-3-16.7-3h-28.5v51.2ZM2079.5,538.3h28.5c5.4,0,10.4-.6,15.1-1.7,4.7-1.1,8.7-2.8,12.2-5.1,3.4-2.3,6.2-5.2,8.2-8.7,2-3.5,3-7.7,3-12.6,0-9.8-3.1-17.1-9.3-21.8-6.2-4.8-15.3-7.1-27.3-7.1h-30.4v57.1Z"/>
  </g>
</svg>