<?xml version="1.0" encoding="UTF-8"?>
<svg id="Layer_1" xmlns="http://www.w3.org/2000/svg" version="1.1" viewBox="0 0 321.9 225.4">
  <!-- Generator: Adobe Illustrator 30.1.0, SVG Export Plug-In . SVG Version: 2.1.1 Build 136)  -->
  <defs>
    <style>
      .st0 {
        fill: #2c5143;
      }
    </style>
  </defs>
  <g id="Layer_2">
    <g>
      <path class="st0" d="M92.2,174.4v-7.6c0-6.3.5-12.3,1.6-18.1v-.9l-93.7.2v26.5l92.2-.2h-.1Z"/>
      <path class="st0" d="M94.1,147c1.8-8.9,4.9-16.9,9.2-24L17.2,87.6l-10.1,24.5,86.7,35.7.3-.7h0Z"/>
      <path class="st0" d="M112.3,111.4c2.9-3,6.1-5.6,9.5-8L56.3,38.1l-18.7,18.8,66,65.7c2.5-4.1,5.4-7.8,8.7-11.2Z"/>
      <path class="st0" d="M146.9,93.2L111.2,7.5l-24.4,10.2,35.6,85.4c7.3-4.8,15.6-8.2,24.6-9.8h-.1Z"/>
      <path class="st0" d="M160.8,91.9h.2c4.4,0,8.7.4,12.9,1.1l-.2-92.8h-26.5l.2,92.9c4.3-.8,8.8-1.2,13.4-1.2Z"/>
      <path class="st0" d="M234.3,17.4l-24.5-10.1-35.3,85.8c9,1.6,17.4,4.9,24.7,9.6,0,0,35.1-85.3,35.1-85.3Z"/>
      <path class="st0" d="M209.6,111.2c3.2,3.3,6.1,7,8.6,11l65.5-65.8-18.8-18.7-65.1,65.4c3.5,2.4,6.8,5.1,9.8,8.1Z"/>
      <path class="st0" d="M227.8,147.4h0l86.5-36-10.2-24.4-85.7,35.7c4.4,7.2,7.5,15.6,9.3,24.7h.1Z"/>
      <path class="st0" d="M227.9,147.7c1.1,6,1.7,12.3,1.7,18.9v7.5l92.1-.2v-26.5l-93.8.2h0Z"/>
      <path class="st0" d="M203.7,198.6v-35.6h0c0-17.6-6.7-28.1-12.4-33.9-7.7-7.8-18.4-12.1-30.4-12.1h-.1c-11.9,0-22.7,4.4-30.4,12.3-8.1,8.4-12.5,20.1-12.5,33.9h0v35.5H-.9v26.5h145.3v-62.4h0c0-6.6,1.8-11.7,5-15,3.4-3.5,8.1-4.3,11.4-4.3s0,0,0,0c13.4,0,16.3,10.4,16.3,19.2h0v62.4h145.2v-26.5h-118.7.1Z"/>
    </g>
  </g>
</svg>