<?xml version="1.0" encoding="UTF-8"?>
<svg id="Layer_1" xmlns="http://www.w3.org/2000/svg" version="1.1" viewBox="0 0 2491 263.2">
  <!-- Generator: Adobe Illustrator 30.1.0, SVG Export Plug-In . SVG Version: 2.1.1 Build 136)  -->
  <defs>
    <style>
      .st0 {
        fill: #fff;
      }
    </style>
  </defs>
  <g>
    <path class="st0" d="M121.8,153.6c-.3-40.5-28.2-70.3-60-80.6v83.7c18.1,4.5,35.3,13.8,49.4,27,3.9,3.6,7.4,7.4,10.7,11.5v-41.5h0Z"/>
    <path class="st0" d="M146.1,153.6h-.2s0,41.7,0,41.7c3.3-4.1,6.9-8,10.8-11.7,14.1-13.2,31.3-22.4,49.3-26.9v-83.7c-31.7,10.4-59.5,40.2-59.9,80.6Z"/>
    <path class="st0" d="M134,1.8C62.4,1.8,4.3,59.9,4.3,131.5s51.6,122.9,117.5,129.1c-1.4-49.6-44.4-82.9-84.3-82.9h0v-24h0c0,0,.2,0,.2,0,0,0-.2-84.7-.2-84.7h0s-.1-24-.1-24c26.4,0,53.4,10.9,73.8,30,9.4,8.8,17.1,19,22.8,30,5.7-11.1,13.3-21.2,22.8-30,20.4-19,47.4-30,73.8-30s0,24,0,24h-.2c-.1,0-.4,84.7-.4,84.7.1,0,.3,0,.4,0h0v24h0c-39.9,0-82.9,33.2-84.3,82.9,65.9-6.2,117.5-61.6,117.5-129.1S205.6,1.8,134,1.8Z"/>
  </g>
  <polygon class="st0" points="800.9 49.8 763.4 49.8 763.4 196.7 844.4 196.7 844.4 163.7 800.9 163.7 800.9 49.8"/>
  <path class="st0" d="M921.8,47c-25,0-47,10.3-62.1,30.2-3.8,5-7.3,10.7-9.5,16.5-4,10.1-5.8,20.4-5.8,31.4,0,42.3,35.7,74.4,77.2,74.4s77.8-32.7,77.8-76.2-34.7-76.2-77.6-76.2h0ZM922.4,166.5c-24.4,0-40.5-20.2-40.5-43.7s16.1-42.9,40.1-42.9,39.9,20.6,39.9,43.5-15.9,43.1-39.5,43.1Z"/>
  <polygon class="st0" points="1099.2 141.7 1098.8 142.1 1042.1 49.8 1009.7 49.8 1009.7 196.7 1045.6 196.7 1044.6 107.6 1045 107.4 1101 196.7 1133.5 196.7 1133.5 49.8 1097.6 49.8 1099.2 141.7"/>
  <path class="st0" d="M1213.5,113.1v30h43.9c-4.6,16.3-19.1,23.6-35.1,23.6-25,0-40.3-20-40.3-44.1s16.1-42.7,40.1-42.7,25.6,6.9,32.3,19.1h42.1c-8.9-31.4-41.7-52-73.4-52s-78.6,31.6-78.6,75.6,34.7,77,78,77,78.4-33.7,78.4-78.8,0-5.2-.2-7.7h-87.2Z"/>
  <path class="st0" d="M1434.4,119c11.3-6.4,17.7-17.7,17.7-30.7s-2.7-18.1-9.1-25.1c-13.2-14.6-30.5-14.8-48.8-14.8h-46.9v152.3h48.4c19.8,0,34.2.2,49.8-13.2,9.5-8,14-21,14-33.1,0-17.3-8.4-29.6-25.1-35.4h0ZM1384.6,82.6h15c8,0,15.2,1.9,15.2,11.5s-7,12.1-15.4,12.1h-14.8v-23.7h0ZM1403.9,166.6h-19.3v-27.8h19.5c9.1,0,18.1,2.3,18.1,13.2s-8.6,14.6-18.3,14.6h0Z"/>
  <path class="st0" d="M1545.5,45.6c-25.9,0-48.8,10.7-64.4,31.3-3.9,5.1-7.6,11.1-9.9,17.1-4.1,10.5-6,21.2-6,32.5,0,43.8,37,77.2,80,77.2s80.7-34,80.7-79-36-79-80.5-79h.1ZM1546.1,169.4c-25.3,0-42-21-42-45.3s16.7-44.4,41.6-44.4,41.4,21.4,41.4,45.1-16.5,44.6-40.9,44.6h0Z"/>
  <path class="st0" d="M1715.7,45.6c-25.9,0-48.8,10.7-64.4,31.3-3.9,5.1-7.6,11.1-9.9,17.1-4.1,10.5-6,21.2-6,32.5,0,43.8,37,77.2,80,77.2s80.7-34,80.7-79-36-79-80.5-79h.1ZM1716.3,169.4c-25.3,0-42-21-42-45.3s16.7-44.4,41.6-44.4,41.4,21.4,41.4,45.1-16.5,44.6-40.9,44.6h0Z"/>
  <polygon class="st0" points="1929.1 48.4 1888.4 48.4 1845.4 117 1845 117 1845 48.4 1806.1 48.4 1806.1 200.7 1845 200.7 1845 134.9 1845.4 134.9 1886.9 200.7 1932.4 200.7 1878.7 124.4 1929.1 48.4"/>
  <path class="st0" d="M386.4,195.6h-14.8V63.9h-48.7v-13.5h112v13.5h-48.6v131.7h0Z"/>
  <path class="st0" d="M463.6,50.4h14.8v63h79.2v-63h14.8v145.3h-14.8v-68.7h-79.2v68.7h-14.8V50.4Z"/>
  <path class="st0" d="M629.5,182.1h77.8v13.5h-92.6V50.3h90.1v13.5h-75.3v49.5h70.4v13.5h-70.4v55.2h0Z"/>
  <g>
    <path class="st0" d="M2094.5,174.3c-2.5,3.8-5.5,7.4-9.2,10.7-3.7,3.4-7.8,6.3-12.5,8.7-4.7,2.5-9.7,4.4-15.2,5.8-5.4,1.4-11.2,2.1-17.2,2.1-10.9,0-21-2-30.3-5.9s-17.4-9.3-24.2-16.3c-6.8-6.9-12.2-15.2-16-24.7-3.9-9.5-5.8-19.9-5.8-31.3s1.9-21.8,5.8-31.3,9.2-17.7,16-24.7c6.8-6.9,14.9-12.4,24.2-16.3,9.3-3.9,19.4-5.9,30.3-5.9s18.2,1.8,27.3,5.5c9.1,3.6,16.9,9.7,23.3,18.1l-13,9.9c-1.5-2.4-3.6-4.8-6.2-7.1-2.6-2.4-5.6-4.5-9-6.3s-7-3.3-10.8-4.4c-3.9-1.1-7.7-1.7-11.6-1.7-9.4,0-17.8,1.8-25.2,5.3-7.4,3.5-13.7,8.2-18.9,14.1-5.2,5.9-9.1,12.7-11.9,20.5s-4.1,15.9-4.1,24.5,1.4,16.7,4.1,24.5c2.8,7.8,6.7,14.6,11.9,20.5,5.2,5.9,11.5,10.6,18.9,14.1s15.8,5.2,25.2,5.2,7.7-.3,11.5-1,7.5-1.9,11.2-3.6c3.6-1.7,7.1-4,10.3-6.8,3.2-2.9,6.2-6.5,9-10.8l12.2,8.8v-.2Z"/>
    <path class="st0" d="M2152.6,184h68.2v13.9h-83V49.2h14.9v134.8h0Z"/>
    <path class="st0" d="M2352,141.7c0,6.2-.7,12.7-2.2,19.6-1.4,6.9-4.2,13.3-8.2,19.2s-9.5,10.7-16.4,14.6c-7,3.8-15.9,5.8-26.7,5.8s-20-1.9-26.9-5.8c-6.9-3.8-12.3-8.7-16.3-14.6-4-5.9-6.7-12.3-8.2-19.2-1.4-6.9-2.2-13.5-2.2-19.6V48.5h14.9v91.6c0,7.1.7,13.3,2.1,18.4,1.4,5.1,3.2,9.4,5.5,12.9s4.8,6.3,7.6,8.3c2.8,2,5.6,3.6,8.5,4.7,2.8,1.1,5.5,1.9,8.2,2.2,2.6.4,4.9.5,6.8.5s4-.2,6.7-.5,5.4-1.1,8.3-2.2c2.8-1.1,5.6-2.7,8.5-4.7,2.8-2,5.4-4.8,7.6-8.3,2.3-3.5,4.1-7.8,5.5-12.9,1.4-5.1,2.1-11.2,2.1-18.4V48.5h14.9v93.2h-.1Z"/>
    <path class="st0" d="M2385.6,49.9h43.6c6.1,0,11.9.6,17.6,1.9,5.6,1.3,10.7,3.4,15.1,6.3,4.4,2.9,7.9,6.8,10.5,11.5,2.6,4.8,3.9,10.6,3.9,17.6s-2.2,15.1-6.7,20.9-10.8,9.7-19.1,11.7v.4c10.3.8,18.4,4.5,24.3,11,5.9,6.5,8.8,15.2,8.8,26.1s-.6,5.9-1.8,10.5c-1.2,4.6-3.6,9.2-7.3,13.8s-9.1,8.5-16.1,11.9-16.4,5-28.1,5h-44.6V49.8h0ZM2400.4,115h29.9c3.6,0,7.1-.5,10.6-1.4s6.7-2.4,9.5-4.5,5.1-4.8,6.9-8.1c1.8-3.3,2.7-7.3,2.7-12.1s-.3-3.7-.9-6.5c-.6-2.8-2-5.6-4.1-8.4s-5.3-5.2-9.4-7.2c-4.1-2-9.7-3-16.7-3h-28.5v51.2ZM2400.4,184.7h28.5c5.4,0,10.4-.6,15.1-1.7,4.7-1.1,8.7-2.8,12.2-5.1,3.4-2.3,6.2-5.2,8.2-8.7s3-7.7,3-12.6c0-9.8-3.1-17.1-9.3-21.8-6.2-4.8-15.3-7.1-27.3-7.1h-30.4v57.1h0Z"/>
  </g>
</svg>