<?xml version="1.0" encoding="UTF-8"?>
<svg id="Layer_1" xmlns="http://www.w3.org/2000/svg" version="1.1" viewBox="0 0 300.9 344.5">
  <!-- Generator: Adobe Illustrator 30.1.0, SVG Export Plug-In . SVG Version: 2.1.1 Build 136)  -->
  <defs>
    <style>
      .st0 {
        fill: #ff6b4a;
      }
    </style>
  </defs>
  <path class="st0" d="M150.7,340.3l18.8.2c.7-78,67.7-130.4,129.9-130.4h0v-37h0c-.2,0-.4,0-.6,0V42.5c.2,0,.4,0,.6,0h0V5.5h0c-40.7,0-82.1,16.8-113.6,46.2-14.6,13.6-26.3,29.2-35.1,46.3-8.8-17.1-20.5-32.7-35.1-46.3C84.2,22.4,42.8,5.5,2.1,5.5h0v37h0c.1,0,.3,0,.4,0v130.5c-.1,0-.3,0-.4,0h0v37h0c62.2,0,129.3,52.4,129.9,130.4l18.8-.2ZM261.8,48.7v129.1c-27.7,6.9-54.2,21.2-76,41.5-6.1,5.7-11.6,11.7-16.7,18v-64.3h.4c.5-62.3,43.4-108.2,92.3-124.2ZM115.6,219.2c-21.8-20.3-48.4-34.7-76.2-41.5V48.6c49,15.9,92,61.9,92.5,124.3h.1s0,64,0,64c-5-6.2-10.5-12.1-16.5-17.7Z"/>
</svg>