<?xml version="1.0" encoding="UTF-8"?>
<svg id="Layer_1" xmlns="http://www.w3.org/2000/svg" version="1.1" viewBox="0 0 455.9 319.9">
  <!-- Generator: Adobe Illustrator 30.1.0, SVG Export Plug-In . SVG Version: 2.1.1 Build 136)  -->
  <defs>
    <style>
      .st0 {
        fill: #fff;
      }
    </style>
  </defs>
  <path class="st0" d="M133.3,246.1v-10.6c0-8.8.7-17.2,2.2-25.2v-1.2s-130.9.3-130.9.3v37c0,0,128.8-.3,128.8-.3Z"/>
  <path class="st0" d="M135.9,207.8c2.6-12.4,6.9-23.6,12.9-33.5L28.5,124.8l-14.1,34.2,121.1,49.8.4-1Z"/>
  <path class="st0" d="M161.2,158.1c4.1-4.2,8.5-7.9,13.3-11.1L83,55.8l-26.1,26.2,92.1,91.7c3.5-5.7,7.6-10.9,12.2-15.7Z"/>
  <path class="st0" d="M209.7,132.7L159.8,13l-34.2,14.2,49.7,119.2c10.2-6.7,21.8-11.4,34.4-13.8Z"/>
  <path class="st0" d="M229.1,130.9h.2c6.2,0,12.2.6,18.1,1.6l-.3-129.7h-37c0,0,.3,129.8.3,129.8,6-1.1,12.3-1.7,18.7-1.7Z"/>
  <path class="st0" d="M331.7,26.8l-34.2-14.1-49.4,119.9c12.6,2.3,24.3,6.8,34.5,13.4l49.1-119.2Z"/>
  <path class="st0" d="M297.3,157.8c4.5,4.6,8.5,9.7,12,15.3l91.5-91.9-26.2-26.1-90.9,91.3c5,3.3,9.6,7.1,13.7,11.3Z"/>
  <path class="st0" d="M322.6,208.3h0c0,.1,120.9-50.3,120.9-50.3l-14.2-34.2-119.7,49.9c6.2,10.1,10.5,21.7,13,34.5Z"/>
  <path class="st0" d="M322.7,208.8c1.6,8.3,2.4,17.2,2.4,26.4v10.4c.1,0,128.7-.3,128.7-.3v-37c0,0-131,.3-131,.3h0Z"/>
  <path class="st0" d="M288.9,279.9v-49.7h0c0-24.5-9.4-39.3-17.3-47.4-10.7-10.9-25.8-16.9-42.4-17,0,0-.1,0-.2,0-16.6,0-31.6,6.1-42.4,17.1-11.4,11.7-17.4,28-17.5,47.4h0v49.6h0c0,0-166,0-166,0v37h170.1c0,0,0,0,0,0h32.9v-87.2h0c.1-9.2,2.5-16.4,6.9-20.9,4.8-4.9,11.3-6,15.9-6s0,0,0,0c18.7,0,22.7,14.5,22.8,26.8h0v87.2h36.8s166,0,166,0v-37h-165.8Z"/>
</svg>