<?xml version="1.0" encoding="UTF-8"?>
<svg id="Layer_1" xmlns="http://www.w3.org/2000/svg" version="1.1" viewBox="0 0 971.8 542.6">
  <!-- Generator: Adobe Illustrator 30.1.0, SVG Export Plug-In . SVG Version: 2.1.1 Build 136)  -->
  <defs>
    <style>
      .st0 {
        fill: #fff;
      }
    </style>
  </defs>
  <g>
    <path class="st0" d="M2.1,406.3v-105.8h27v82.1h31.3v23.7H2.1Z"/>
    <path class="st0" d="M134.9,408.3c-29.9,0-55.6-23.2-55.6-53.6s1.3-15.3,4.1-22.6c1.6-4.1,4.1-8.3,6.9-11.9,10.9-14.3,26.7-21.7,44.8-21.7,30.9,0,55.9,23.7,55.9,54.9s-25,54.9-56.1,54.9h0ZM135.2,322.3c-17.3,0-28.9,14.3-28.9,30.9s11.6,31.5,29.2,31.5,28.5-14.9,28.5-31-11.4-31.3-28.7-31.3h-.1Z"/>
    <path class="st0" d="M285.6,406.3l-40.3-64.4h-.3c0,.1.7,64.4.7,64.4h-25.9v-105.8h23.3l40.9,66.5.3-.3-1.1-66.2h25.9v105.8h-23.5,0Z"/>
    <path class="st0" d="M391.3,408.5c-31.2,0-56.2-24.2-56.2-55.5s25.6-54.5,56.6-54.5,46.5,14.9,52.9,37.5h-30.3c-4.9-8.7-13.3-13.7-23.3-13.7-17.3,0-28.9,14-28.9,30.7s11,31.7,29,31.7,22-5.3,25.3-17h-31.6v-21.6h62.8c.1,1.9.1,3.7.1,5.6,0,32.5-24,56.8-56.5,56.8h.1Z"/>
    <path class="st0" d="M572.8,397.2c-10.9,9.3-20.9,9.2-34.6,9.2h-33.6v-105.8h32.6c12.7,0,24.7.1,33.9,10.3,4.4,4.9,6.3,10.9,6.3,17.4s-4.4,16.9-12.3,21.3c11.6,4,17.4,12.6,17.4,24.6s-3.1,17.4-9.7,23h0ZM540.9,324.3h-10.4v16.4h10.3c5.9,0,10.7-1.7,10.7-8.4s-5-8-10.6-8ZM544.1,363.3h-13.6v19.3h13.4c6.7,0,12.7-2.3,12.7-10.2s-6.3-9.2-12.6-9.2h0Z"/>
    <path class="st0" d="M662.5,408.3c-29.9,0-55.6-23.2-55.6-53.6s1.3-15.3,4.1-22.6c1.6-4.1,4.1-8.3,6.9-11.9,10.9-14.3,26.7-21.7,44.8-21.7,30.9,0,55.9,23.7,55.9,54.9s-25,54.9-56.1,54.9h0ZM662.8,322.3c-17.3,0-28.9,14.3-28.9,30.9s11.6,31.5,29.2,31.5,28.5-14.9,28.5-31-11.4-31.3-28.7-31.3h0Z"/>
    <path class="st0" d="M795.5,408.3c-29.9,0-55.6-23.2-55.6-53.6s1.3-15.3,4.1-22.6c1.6-4.1,4.1-8.3,6.9-11.9,10.9-14.3,26.7-21.7,44.8-21.7,30.9,0,55.9,23.7,55.9,54.9s-25,54.9-56.1,54.9h0ZM795.8,322.3c-17.3,0-28.9,14.3-28.9,30.9s11.6,31.5,29.2,31.5,28.5-14.9,28.5-31-11.4-31.3-28.7-31.3h0Z"/>
    <path class="st0" d="M935.5,406.3l-28.9-45.8h-.3v45.8h-27v-105.8h27v47.6h.3l29.9-47.6h28.3l-35,52.8,37.3,53.1h-31.6Z"/>
  </g>
  <path class="st0" d="M360,538.7c-20.3,0-37-16.1-37-36.5s16.4-36.6,36.9-36.6,21.1,6,27.9,12.6c1.8,2,3.4,4.2,4.5,6.7h-7.9c-5.5-8.1-14.8-12.9-24.6-12.9-16.3,0-29.7,14.2-29.7,30.3s13.9,30,29.8,30,18.7-5.4,24.8-13.4h7.9c-6.5,12-18.9,19.8-32.6,19.8h0Z"/>
  <path class="st0" d="M428.2,537.4v-70.8h7.1v64.4h29.3v6.4h-36.4Z"/>
  <path class="st0" d="M556.5,525.5c-4,8.6-12,13.2-21.4,13.2s-17.4-4.6-21.4-13.2c-2-4.3-2.7-9.9-2.7-14.7v-44.1h7.1v44.1c0,3.8.5,9.4,2.4,12.8,3.2,5.7,8.1,8.7,14.6,8.7s11.5-3,14.6-8.7c1.9-3.4,2.4-9,2.4-12.8v-44.1h7.1v44.1c0,4.8-.7,10.4-2.7,14.7h0Z"/>
  <path class="st0" d="M638,533.5c-5.6,3.5-10.8,3.9-17.3,3.9h-19.5v-70.8h17.8c9,0,18,2.7,21.7,11.6,1,2.3,1.4,4.8,1.4,7.3,0,6.5-2.9,10.4-7.7,14.2,7.3,3,11.8,9.6,11.8,17.4s-2.7,12.9-8.1,16.4h-.1ZM632.1,477.5c-3.4-4-9.5-4.4-14.3-4.4h-9.5v24.1h8.9c4.1,0,8.4,0,12.1-2,3.6-1.9,5.7-5.9,5.7-9.9s-1-5.5-3-7.7h0ZM630.7,505.2c-4.3-1.7-9.2-1.6-13.8-1.6h-8.7v27.4h9.9c4.5,0,9.2,0,13.4-1.8,4.8-2,7.5-7,7.5-12s-3.4-9.9-8.3-12h0Z"/>
  <g id="Layer_2">
    <g>
      <path class="st0" d="M416,178.4v-7.6c0-6.3.5-12.3,1.6-18.1v-.9l-93.7.2v26.5l92.2-.2h-.1Z"/>
      <path class="st0" d="M417.9,151c1.8-8.9,4.9-16.9,9.2-24l-86.1-35.4-10.1,24.5,86.7,35.7.3-.7h0Z"/>
      <path class="st0" d="M436.1,115.4c2.9-3,6.1-5.6,9.5-8l-65.5-65.3-18.7,18.8,66,65.7c2.5-4.1,5.4-7.8,8.7-11.2Z"/>
      <path class="st0" d="M470.7,97.2l-35.7-85.7-24.4,10.2,35.6,85.4c7.3-4.8,15.6-8.2,24.6-9.8h-.1Z"/>
      <path class="st0" d="M484.6,95.9h.2c4.4,0,8.7.4,12.9,1.1l-.2-92.8h-26.5l.2,92.9c4.3-.8,8.8-1.2,13.4-1.2Z"/>
      <path class="st0" d="M558.1,21.4l-24.5-10.1-35.3,85.8c9,1.6,17.4,4.9,24.7,9.6,0,0,35.1-85.3,35.1-85.3Z"/>
      <path class="st0" d="M533.4,115.2c3.2,3.3,6.1,7,8.6,11l65.5-65.8-18.8-18.7-65.1,65.4c3.5,2.4,6.8,5.1,9.8,8.1Z"/>
      <path class="st0" d="M551.6,151.4h0l86.5-36-10.2-24.4-85.7,35.7c4.4,7.2,7.5,15.6,9.3,24.7h.1Z"/>
      <path class="st0" d="M551.7,151.7c1.1,6,1.7,12.3,1.7,18.9v7.5l92.1-.2v-26.5l-93.8.2h0Z"/>
      <path class="st0" d="M527.5,202.6v-35.6h0c0-17.6-6.7-28.1-12.4-33.9-7.7-7.8-18.4-12.1-30.4-12.1h-.1c-11.9,0-22.7,4.4-30.4,12.3-8.1,8.4-12.5,20.1-12.5,33.9h0v35.5h-118.8v26.5h145.3v-62.4h0c0-6.6,1.8-11.7,5-15,3.4-3.5,8.1-4.3,11.4-4.3s0,0,0,0c13.4,0,16.3,10.4,16.3,19.2h0v62.4h145.2v-26.5h-118.7.1Z"/>
    </g>
  </g>
</svg>