<?xml version="1.0" encoding="UTF-8"?>
<svg id="Layer_1" xmlns="http://www.w3.org/2000/svg" version="1.1" viewBox="0 0 341.8 278.6">
  <!-- Generator: Adobe Illustrator 30.2.1, SVG Export Plug-In . SVG Version: 2.1.1 Build 1)  -->
  <defs>
    <style>
      .st0 {
        fill: #fff;
      }
    </style>
  </defs>
  <path class="st0" d="M338.9,89h0c-.6-31.8-26.6-57.6-58.5-57.7h0s-10.8,0-10.8,0V-.7h-26c0,0-157,0-157,0h0c0,0-15,0-15,0v32h-10.4c-32,0-58,25.8-58.5,57.7h0c0,.2,0,.3,0,.5,0,.2,0,.3,0,.5h0c.6,31.9,26.6,57.7,58.7,57.7h0s22,0,22,0c13.9,26,39,45.3,68.8,51.2v41.5h-63.1v37h161.1v-37h-61.1v-41.5c29.8-5.9,54.9-25.1,68.8-51.2h22.4c32,0,58.1-25.7,58.7-57.6h0c0-.2,0-.3,0-.5,0-.2,0-.3,0-.5ZM61.2,110.7h0c-11.7,0-21.3-9.5-21.6-21.1.3-11.7,9.9-21.2,21.7-21.2h0s10.3,0,10.3,0v32.4h0c0,3.3.2,6.7.5,9.9h-10.9ZM232.6,100.7h0c0,34.4-27.7,62.5-62,63-34.2-.6-61.9-28.5-62-62.8h0V36.3h124v64.5ZM280.4,110.7h0s-11.3,0-11.3,0c.3-3.2.5-6.4.5-9.7h0v-33.2.5h10.6c11.8,0,21.4,9.5,21.7,21.2-.3,11.7-9.8,21.1-21.6,21.2Z"/>
</svg>