<?xml version="1.0" encoding="UTF-8"?>
<svg id="Layer_1" xmlns="http://www.w3.org/2000/svg" version="1.1" viewBox="0 0 2303.1 217.9">
  <!-- Generator: Adobe Illustrator 30.1.0, SVG Export Plug-In . SVG Version: 2.1.1 Build 136)  -->
  <defs>
    <style>
      .st0 {
        fill: #f66c4c;
      }
    </style>
  </defs>
  <path class="st0" d="M169.9,175.4h0c0,0,0-.2,0-.3.1-14.6,24.2-25.4,34.5-29.4,24.6-9.4,58.4-14.7,93-14.7h.1v-37h-.1c-38.9,0-77.5,6.3-106.1,17.2-1.5.6-3,1.2-4.5,1.8,23.6-40.8,68.3-65.6,110.7-65.6h0V10.4h0c-40.2,0-81,16.6-112,45.5-5.6,5.3-10.8,10.8-15.6,16.7V9.4h-37v63.8c-4.9-6-10.3-11.8-16.1-17.2C85.8,27,45,10.4,4.9,10.4h0v37h0c42.4,0,87.1,24.8,110.7,65.6-1.5-.6-2.9-1.2-4.5-1.8-28.6-10.9-67.3-17.2-106.1-17.2h-.1v37h.1c34.5,0,68.4,5.4,93,14.7,10.4,4,34.4,14.7,34.5,29.4,0,0,0,.2,0,.3h.5s0,.8,0,.8H4.4v37h294v-37h-128.5v-.8Z"/>
  <polygon class="st0" points="751 36 713.5 36 713.5 182.8 794.5 182.8 794.5 149.9 751 149.9 751 36"/>
  <path class="st0" d="M871.9,33.2c-25,0-47,10.3-62.1,30.2-3.8,5-7.3,10.7-9.5,16.5-4,10.1-5.8,20.4-5.8,31.4,0,42.3,35.7,74.4,77.2,74.4s77.8-32.7,77.8-76.2-34.7-76.2-77.6-76.2ZM872.5,152.7c-24.4,0-40.5-20.2-40.5-43.7s16.1-42.9,40.1-42.9,39.9,20.6,39.9,43.5-15.9,43.1-39.5,43.1Z"/>
  <polygon class="st0" points="1049.3 127.9 1048.9 128.3 992.1 36 959.8 36 959.8 182.8 995.7 182.8 994.7 93.7 995.1 93.5 1051.1 182.8 1083.6 182.8 1083.6 36 1047.7 36 1049.3 127.9"/>
  <path class="st0" d="M1163.6,99.3v30h43.9c-4.6,16.3-19.1,23.6-35.1,23.6-25,0-40.3-20-40.3-44.1s16.1-42.7,40.1-42.7,25.6,6.9,32.3,19.1h42.1c-8.9-31.4-41.7-52-73.4-52s-78.6,31.6-78.6,75.6,34.7,77,78,77,78.4-33.7,78.4-78.8,0-5.2-.2-7.7h-87.1Z"/>
  <path class="st0" d="M1384.3,104c10.9-6.2,17.1-17.1,17.1-29.6s-2.6-17.5-8.8-24.3c-12.7-14.1-29.4-14.3-47.1-14.3h-45.3v147.2h46.7c19.1,0,33,.2,48.1-12.7,9.1-7.8,13.5-20.3,13.5-32,0-16.7-8.2-28.6-24.3-34.2ZM1336.1,68.8h14.5c7.8,0,14.7,1.8,14.7,11.1s-6.8,11.7-14.9,11.7h-14.3v-22.9ZM1354.8,149.9h-18.7v-26.8h18.9c8.8,0,17.5,2.2,17.5,12.7s-8.4,14.1-17.7,14.1Z"/>
  <polygon class="st0" points="1817.1 35.8 1777.7 35.8 1736.2 102 1735.8 102 1735.8 35.8 1698.2 35.8 1698.2 182.9 1735.8 182.9 1735.8 119.3 1736.2 119.3 1776.3 182.9 1820.3 182.9 1768.4 109.2 1817.1 35.8"/>
  <path class="st0" d="M1609.8,33.2c-16.1,0-31,4.3-43.6,12.7,7.9,8.9,13.9,19,17.9,29.9,6.7-6,15.6-9.7,25.9-9.7,24,0,39.9,20.6,39.9,43.5s-15.9,43.1-39.5,43.1-19.4-3.7-26.2-9.9c-8.4-7.6-13.6-18.8-14.2-31.2,0-.9,0-1.7,0-2.6s0-1.6,0-2.4c-.6-18.5-7.6-34.9-18.8-47.5-4.4-5-9.5-9.4-15.1-13.1-12.4-8.2-27.4-12.8-43.6-12.8-25,0-47,10.3-62.1,30.2-3.8,5-7.3,10.7-9.5,16.5-4,10.1-5.8,20.4-5.8,31.4,0,42.3,35.7,74.4,77.2,74.4s31.3-4.7,43.7-12.8c-7.8-8.8-13.8-18.9-17.8-29.7-6.6,5.9-15.2,9.6-25.1,9.6-24.4,0-40.5-20.2-40.5-43.7s16.1-42.9,40.1-42.9,19,3.7,25.6,9.8c8.5,7.7,13.6,19.2,14.2,31.5,0,.7,0,1.5,0,2.2s0,1.9,0,2.9c.3,18.4,7.4,34.7,18.7,47.3,4.5,5,9.6,9.3,15.2,13,12.5,8.1,27.5,12.8,43.3,12.8,43.1,0,77.8-32.7,77.8-76.2s-34.7-76.2-77.6-76.2Z"/>
  <polygon class="st0" points="359.1 49.6 392.2 49.6 392.2 180.9 406.7 180.9 406.7 49.6 439.6 49.6 439.6 36.6 359.1 36.6 359.1 49.6"/>
  <polygon class="st0" points="538.2 100.2 463.5 100.2 463.5 36.6 449.1 36.6 449.1 180.9 463.5 180.9 463.5 113.2 538.2 113.2 538.2 180.9 552.6 180.9 552.6 36.6 538.2 36.6 538.2 100.2"/>
  <polygon class="st0" points="570.6 180.9 649.7 180.9 649.7 167.9 585.1 167.9 585.1 114.6 647.5 114.6 647.5 101.5 585.1 101.5 585.1 49.6 649.7 49.6 649.7 36.6 570.6 36.6 570.6 180.9"/>
  <path class="st0" d="M1924.7,170.5c-32.6,0-60.9-28.9-60.9-61.3s27.5-61.8,60.7-61.8,39,9.8,50.1,26.3h16.2c-2.1-5.1-5.5-9.6-9.2-13.7-14.4-16.4-35.1-25.8-57-25.8-41.9,0-75.3,32.6-75.3,74.7s34.1,74.5,75.5,74.5,53.3-16,66.5-40.4h-16.2c-12.3,16.4-29.7,27.3-50.5,27.3Z"/>
  <polygon class="st0" points="2021.4 36.6 2007 36.6 2007 181 2081.1 181 2081.1 167.9 2021.4 167.9 2021.4 36.6"/>
  <path class="st0" d="M2169.1,126.6c0,7.8-1,19.1-4.9,26.1-6.4,11.7-16.6,17.8-29.9,17.8s-23.4-6-29.9-17.8c-3.9-7-4.9-18.3-4.9-26.1V36.6h-14.4v89.9c0,9.8,1.4,21.3,5.5,30,8.2,17.6,24.6,26.9,43.7,26.9s35.5-9.4,43.7-26.9c4.1-8.8,5.5-20.3,5.5-30V36.6h-14.4v89.9Z"/>
  <path class="st0" d="M2271.3,104.1c10-7.8,15.8-15.8,15.8-29.1s-1-10.1-2.9-14.8c-7.6-18.1-25.9-23.6-44.3-23.6h-36.3v144.4h39.8c13.3,0,23.8-.8,35.3-8,11.1-7,16.6-20.5,16.6-33.4s-9.2-29.5-24-35.5ZM2218,49.7h19.3c10,0,22.2.8,29.3,9,4.1,4.7,6,9.6,6,15.8s-4.3,16.4-11.7,20.3c-7.6,4.1-16.4,4.1-24.8,4.1h-18.1v-49.2ZM2265.6,164.2c-8.6,3.7-18.1,3.7-27.3,3.7h-20.3v-56h17.8c9.4,0,19.3-.2,28.1,3.3,10,4.1,17,13.5,17,24.4s-5.5,20.5-15.2,24.6Z"/>
</svg>