<?xml version="1.0" encoding="UTF-8"?>
<svg id="Layer_1" xmlns="http://www.w3.org/2000/svg" version="1.1" viewBox="0 0 1979.1 235.1">
  <!-- Generator: Adobe Illustrator 30.1.0, SVG Export Plug-In . SVG Version: 2.1.1 Build 136)  -->
  <defs>
    <style>
      .st0 {
        fill: #fff;
      }
    </style>
  </defs>
  <path class="st0" d="M187.1,138.5V35s0,0,0,0h0V7.3h0c-25.2,0-50.9,8.7-70.5,23.9-8.2,6.4-15.1,13.6-20.5,21.5,0,0,0,0,0,0h0s0,0,0,0c0,0,0,0,0,0h0s0,0,0,0c-5.4-7.9-12.2-15.2-20.5-21.5C56,16,30.4,7.3,5.2,7.3h0v27.7h0s0,0,0,0v103.5s0,0,0,0h0v27.7h0c51.6,0,77.3,42.3,77.3,62.1h13.6c0-.1,0-.1,0-.1h13.7c0-19.7,25.8-62,77.3-62h0v-27.7h0s0,0,0,0ZM82.5,168.2c-2.2-2-21.4-23.7-49.7-26.3V39.5c49.5,14.6,49.7,57.6,49.7,57.6v71.1ZM159.4,141.9c-28.3,2.6-47.5,24.3-49.7,26.3v-71.1s.2-43,49.7-57.6v102.4Z"/>
  <g>
    <path class="st0" d="M310,66.4v96.2h-10.6v-96.2h-24.3v-9.6h59.1v9.6h-24.2Z"/>
    <path class="st0" d="M427.6,162.7v-49.6h-54.8v49.6h-10.6V56.8h10.6v46.6h54.8v-46.6h10.6v105.8h-10.6Z"/>
    <path class="st0" d="M473.4,162.7V56.8h57.9v9.6h-47.3v38h45.8v9.6h-45.8v39h47.3v9.6h-57.9Z"/>
    <path class="st0" d="M598.5,162.7V56.8h27v82.1h31.3v23.7h-58.3Z"/>
    <path class="st0" d="M731.4,164.7c-29.9,0-55.6-23.2-55.6-53.6s1.3-15.3,4.1-22.6c1.6-4.1,4.1-8.3,6.9-11.9,10.9-14.3,26.7-21.7,44.8-21.7,30.9,0,55.9,23.7,55.9,54.9s-25,54.9-56.1,54.9ZM731.7,78.6c-17.3,0-28.9,14.3-28.9,30.9s11.6,31.5,29.2,31.5,28.5-14.9,28.5-31-11.4-31.3-28.7-31.3Z"/>
    <path class="st0" d="M882.1,162.7l-40.3-64.4h-.3c0,.1.7,64.4.7,64.4h-25.9V56.8h23.3l40.9,66.5.3-.3-1.1-66.2h25.9v105.8h-23.5Z"/>
    <path class="st0" d="M987.8,164.8c-31.2,0-56.2-24.2-56.2-55.5s25.6-54.5,56.6-54.5,46.5,14.9,52.9,37.5h-30.3c-4.9-8.7-13.3-13.7-23.3-13.7-17.3,0-28.9,14-28.9,30.7s11,31.7,29,31.7,22-5.3,25.3-17h-31.6v-21.6h62.8c.1,1.9.1,3.7.1,5.6,0,32.5-24,56.8-56.5,56.8Z"/>
    <path class="st0" d="M1141.3,153.5c-10.9,9.3-20.9,9.2-34.6,9.2h-33.6V56.8h32.6c12.7,0,24.7.1,33.9,10.3,4.4,4.9,6.3,10.9,6.3,17.4s-4.4,16.9-12.3,21.3c11.6,4,17.4,12.6,17.4,24.6s-3.1,17.4-9.7,23ZM1109.4,80.6h-10.4v16.4h10.3c5.9,0,10.7-1.7,10.7-8.4s-5-8-10.6-8ZM1112.6,119.6h-13.6v19.3h13.4c6.7,0,12.7-2.3,12.7-10.2s-6.3-9.2-12.6-9.2Z"/>
    <path class="st0" d="M1231,164.7c-29.9,0-55.6-23.2-55.6-53.6s1.3-15.3,4.1-22.6c1.6-4.1,4.1-8.3,6.9-11.9,10.9-14.3,26.7-21.7,44.8-21.7,30.9,0,55.9,23.7,55.9,54.9s-25,54.9-56.1,54.9ZM1231.3,78.6c-17.3,0-28.9,14.3-28.9,30.9s11.6,31.5,29.2,31.5,28.5-14.9,28.5-31-11.4-31.3-28.7-31.3Z"/>
    <path class="st0" d="M1364,164.7c-29.9,0-55.6-23.2-55.6-53.6s1.3-15.3,4.1-22.6c1.6-4.1,4.1-8.3,6.9-11.9,10.9-14.3,26.7-21.7,44.8-21.7,30.9,0,55.9,23.7,55.9,54.9s-25,54.9-56.1,54.9ZM1364.2,78.6c-17.3,0-28.9,14.3-28.9,30.9s11.6,31.5,29.2,31.5,28.5-14.9,28.5-31-11.4-31.3-28.7-31.3Z"/>
    <path class="st0" d="M1504,162.7l-28.9-45.8h-.3v45.8h-27V56.8h27v47.6h.3l29.9-47.6h28.3l-35,52.8,37.3,53.1h-31.6Z"/>
    <path class="st0" d="M1635.7,164.5c-30.3,0-55.3-24-55.3-54.6s24.5-54.8,55.2-54.8,31.2,6.9,41.8,18.9c2.7,3,5.1,6.3,6.7,10h-11.9c-8.2-12.2-22.2-19.3-36.8-19.3-24.3,0-44.5,21.3-44.5,45.3s20.7,44.9,44.6,44.9,28-8,37-20h11.9c-9.7,17.9-28.3,29.6-48.8,29.6Z"/>
    <path class="st0" d="M1716.5,162.7V56.8h10.6v96.2h43.8v9.6h-54.3Z"/>
    <path class="st0" d="M1863.9,144.8c-6,12.9-18,19.7-32,19.7s-26-6.9-32-19.7c-3-6.4-4-14.9-4-22V56.8h10.6v65.9c0,5.7.7,14,3.6,19.2,4.7,8.6,12.2,13,21.9,13s17.2-4.4,21.9-13c2.9-5.1,3.6-13.4,3.6-19.2V56.8h10.6v65.9c0,7.2-1,15.6-4,22Z"/>
    <path class="st0" d="M1958.7,156.8c-8.4,5.3-16.2,5.9-25.9,5.9h-29.2V56.8h26.6c13.4,0,26.9,4,32.5,17.3,1.4,3.4,2.1,7.2,2.1,10.9,0,9.7-4.3,15.6-11.6,21.3,10.9,4.4,17.6,14.3,17.6,26s-4,19.3-12.2,24.5ZM1949.9,73c-5.1-6-14.2-6.6-21.5-6.6h-14.2v36h13.3c6.1,0,12.6,0,18.2-3,5.4-2.9,8.6-8.9,8.6-14.9s-1.4-8.2-4.4-11.6ZM1947.9,114.5c-6.4-2.6-13.7-2.4-20.6-2.4h-13v41h14.9c6.7,0,13.7,0,20-2.7,7.2-3,11.2-10.4,11.2-18s-5.1-14.9-12.4-17.9Z"/>
  </g>
</svg>