<?xml version="1.0" encoding="UTF-8"?>
<svg id="Layer_1" xmlns="http://www.w3.org/2000/svg" version="1.1" viewBox="0 0 309 307">
  <!-- Generator: Adobe Illustrator 30.1.0, SVG Export Plug-In . SVG Version: 2.1.1 Build 136)  -->
  <defs>
    <style>
      .st0 {
        fill: #fff;
      }
    </style>
  </defs>
  <path class="st0" d="M300.6,274.7l-61.7-61.7c5.7-7.8,10.6-16.3,14.6-25.5,28.8-66.5-1.8-144.1-68.3-173C118.7-14.3,41.2,16.4,12.3,82.9c-28.9,66.5,1.8,144.1,68.3,173,17,7.4,34.7,10.9,52.1,10.9,29.1,0,57.4-9.7,80.3-27.3l60.1,60.1c6.7,6.7,17.5,6.7,24.2,0l3.3-3.3c5.9-5.9,5.9-15.6,0-21.5ZM132.8,228.4c-12.4,0-24.9-2.5-37-7.7-47.1-20.4-68.9-75.4-48.4-122.6,15.2-35.1,49.6-56.1,85.6-56.1s24.9,2.5,37,7.7c47.1,20.4,68.9,75.4,48.4,122.6-15.2,35.1-49.6,56.1-85.6,56.1Z"/>
  <path class="st0" d="M157.1,79.4c-14.9-6.5-31.4-6.7-46.5-.8-15.1,6-27,17.5-33.4,32.3-13.3,30.7.8,66.6,31.6,79.9,7.8,3.4,16,5.1,24.2,5.1s15.1-1.4,22.3-4.3c15.1-6,27-17.5,33.4-32.3,13.3-30.7-.8-66.6-31.6-79.9ZM153.6,144.2c-4.9,11.4-18.2,16.6-29.6,11.7-11.4-4.9-16.6-18.2-11.7-29.6,2.4-5.5,6.8-9.8,12.4-12,2.7-1.1,5.5-1.6,8.3-1.6s6.1.6,8.9,1.9c11.4,4.9,16.6,18.2,11.7,29.6Z"/>
</svg>