<?xml version="1.0" encoding="UTF-8"?>
<svg id="Layer_3" xmlns="http://www.w3.org/2000/svg" version="1.1" viewBox="0 0 314.2 232">
  <!-- Generator: Adobe Illustrator 30.1.0, SVG Export Plug-In . SVG Version: 2.1.1 Build 136)  -->
  <defs>
    <style>
      .st0 {
        fill: #f66c4c;
      }
    </style>
  </defs>
  <path class="st0" d="M312,2.6h-32.6v-.3H1.8v.3h-.2v226.5h.2c0,0,277.6,0,277.6,0h0c0,0,32.6,0,32.6,0V2.6ZM38.6,66.8c25.7.2,50.1,12.7,68.6,35.4,19.1,23.3,30,54.6,30.8,88.3,0,.6,0,1.2,0,1.8H38.6s0-125.5,0-125.5ZM84.7,39.3h143.7c-19.1,8.2-36.6,21.5-51.2,39.3-8.1,9.8-15,20.7-20.6,32.4-5.7-11.7-12.6-22.6-20.6-32.4-14.6-17.8-32.1-31.1-51.2-39.3ZM175,190.5c.8-33.7,11.6-65,30.8-88.3,18.7-22.8,43.3-35.4,69.2-35.4v125.5h-99.9c0-.6,0-1.2,0-1.8Z"/>
</svg>