<?xml version="1.0" encoding="UTF-8"?>
<svg id="headphones_long_listen" xmlns="http://www.w3.org/2000/svg" version="1.1" viewBox="0 0 2198.9 474.3">
  <!-- Generator: Adobe Illustrator 30.1.0, SVG Export Plug-In . SVG Version: 2.1.1 Build 136)  -->
  <defs>
    <style>
      .st0 {
        fill: #fff;
      }
    </style>
  </defs>
  <path class="st0" d="M2179.3,93v-42.1c0-6.1-4.9-11-11-11s-11,4.9-11,11v42.1c-11.1,4.4-19,15.2-19,27.9v44.8c0,9.6,4.5,18.1,11.5,23.6v.3h0v97.5h.7-.7c0,4.7-1.8,9.1-5.1,12.5-3.2,3.2-7.5,5.1-12,5.2h0c0,0,0,0,0,0-9.7,0-17.5-7.8-17.6-17.5h0V91.9h0c0-14.5-5.7-28.2-15.9-38.4-10.3-10.3-24.1-16-38.7-16h0s0,0-.1,0c-30.1,0-54.3,24-54.3,54v.5s0,195.1,0,195.1h.7-.7c0,4.7-1.8,9.1-5.1,12.5-3.3,3.3-7.7,5.1-12.3,5.2-9.7,0-18-7.3-18-17v-.7c0,0-.1-194.3-.1-194.3v-.8c0-14.5-5.7-28.2-15.9-38.4-10.3-10.3-24.1-16-38.7-16h0s0,0-.1,0c-30,0-54.4,24.3-54.6,54.2v.8c0,0-.2,194.5-.2,194.5h.7-.7c0,4.7-1.8,9.1-5.1,12.5-3.3,3.3-7.7,5.2-12.4,5.2h0c0,0,0,0,0,0-9.7,0-17.5-7.8-17.6-17.5h0V92.3c0,0,0-.4,0-.4,0-14.5-5.7-28.2-15.9-38.4-10.3-10.3-24.2-16-38.7-16h0s0,0,0,0c-30.1,0-54.3,23.2-54.3,53.3v1.2s0,195.1,0,195.1h.7-.7c0,4.7-1.8,9.1-5.1,12.5-3.3,3.3-7.7,5.2-12.4,5.2-9.6,0-17.6-7.9-17.7-17.6h0V91.9h0c0-30-24.6-54.4-54.6-54.5h0s0,0,0,0c-30.1,0-54.3,23.2-54.3,53.3v1.2s0,195.1,0,195.1h.7-.7c0,4.7-1.8,9.1-5.1,12.5-3.3,3.3-7.9,5.1-12.5,5.1h0s0,0,0,0c-9.7,0-17.6-7.9-17.6-17.6h-.2s0-195.1,0-195.1h0c0-14.5-5.7-28.2-15.9-38.4-10.3-10.3-24.1-16-38.7-16h0s0,0,0,0c-30,0-54.4,24.3-54.6,54.2v1.2s-.2,194.2-.2,194.2h.7-.7c0,4.7-1.8,9.1-5.1,12.5-3.3,3.3-7.7,5.2-12.4,5.2h0c0,0,0,0,0,0-9.7,0-17.5-7.8-17.6-17.5h0V91.9h0c0-14.5-5.7-28.2-15.9-38.4-10.3-10.3-24.1-16-38.7-16h0s0,0,0,0c-30.1,0-54.2,23.7-54.3,53.8v.7s0,195.1,0,195.1h.7-.7c0,4.7-1.8,9.1-5.1,12.5-3.3,3.3-7.9,5.1-12.5,5.1h0c-9.7,0-17.8-7.6-17.8-17.3v-.2s0-195.1,0-195.1h0c0-14.5-5.7-28.2-15.9-38.4-10.3-10.3-24.1-16-38.7-16h0s0,0,0,0c-30,0-54.4,24.3-54.6,54.2v1.5s-.2,193.8-.2,193.8h.7-.7c0,4.7-1.8,9.1-5.1,12.5-3.3,3.3-7.7,5.2-12.4,5.2h0c0,0,0,0,0,0-9.7,0-17.5-7.8-17.6-17.5h0V91.9h0c0-14.5-5.7-28.2-15.9-38.4-10.3-10.3-24.1-16-38.7-16h0s0,0-.1,0c-30.1,0-54.3,23.7-54.3,53.8v.7s0,195.1,0,195.1h.7-.7c0,4.7-1.8,9.1-5.1,12.5-3.3,3.3-7.6,5.1-12.2,5.2h0s0,0,0,0c-9.7,0-18-7.4-18-17.1v-.5c0,0,0-195.1,0-195.1h0c0-14.5-5.7-28.2-15.9-38.4-10.3-10.3-24.2-16-38.8-16h0s0,0,0,0c-30,0-54.4,24.3-54.6,54.2v1.3s-.2,194-.2,194h.7-.7c0,4.7-1.8,9.1-5.1,12.5-3.3,3.3-7.7,5.2-12.4,5.2h0c0,0,0,0,0,0-9.7,0-17.5-7.8-17.6-17.5h0V91.9h0c0-14.5-5.7-28.2-15.9-38.4-10.3-10.3-24.1-15.9-38.7-16h0s0,0-.1,0,0,0,0,0h0s0,0,0,0c-30.1,0-54.2,23.5-54.3,53.6v.9s0,195.1,0,195.1h.7-.7c0,4.7-1.8,9.1-5.1,12.5-3.3,3.3-7.9,5.1-12.6,5.1h0c-9.7,0-17.8-7.4-17.8-17.1v-.5s0-195.1,0-195.1h0c0-14.5-5.7-28.2-15.9-38.4-10.3-10.3-24.2-16-38.8-16h0c-30,0-54.4,24.3-54.6,54.3v.8s-.2,194.5-.2,194.5h.7-.7c0,4.7-1.8,9.1-5.1,12.5-3.3,3.3-8.1,5.1-12.8,5.1h0c-9.6-.1-17.3-7.9-17.4-17.5h0V91.9h0c0-14.5-5.7-28.2-15.9-38.4-10.3-10.3-24.3-16-38.9-16h0c-30,0-54.8,24.8-54.9,54.8h0v286.5h-.1c0,13.8-5.4,26.7-15.2,36.4-9.8,9.7-22.7,15-36.5,15h0c-13.6-.1-26.4-5.5-36.1-15.2-9.7-9.8-15-22.7-15-36.5h0v-26.5c-4.2,3.6-8.3,6.6-12.2,9.2-9.2,6.1-18,10.2-24.8,12.9v4.7h0c0,23.5,9.2,45.6,25.7,62.2,16.7,16.8,38.9,26,62.5,26.1h0c23.5,0,45.6-9.2,62.3-25.8,16.7-16.6,26-38.8,26.1-62.4h.1V92.5h0c0-9.7,8.3-18,18-18h0c4.7,0,9.2,1.8,12.6,5.1,3.3,3.3,5.1,7.8,5.1,12.5h0v195.1h1.4-1.5c0,30.1,24.6,54.5,54.6,54.5h0c14.6,0,28.5-5.7,38.7-16,10.3-10.3,15.9-24,15.9-38.6h0V91.6c.1-9.7,8.1-17.1,17.8-17.1h0c4.7,0,9.2,1.8,12.5,5.1,3.3,3.3,5.1,7.8,5.1,12.5h0v194.4c0,0,.1.7.1.7,0,30.1,24.7,54.5,54.7,54.5h0c14.6,0,28.5-5.7,38.8-16,10.3-10.3,15.9-24,15.9-38.6h0l-.4-193.6v-1.7c.3-9.5,8.3-17.3,17.9-17.3h0c4.7,0,9,1.9,12.3,5.2,3.3,3.3,5.1,7.8,5.1,12.5h0v195.1h1.4-1.5c0,30.1,24.6,54.5,54.6,54.5h.1c14.6,0,28.3-5.7,38.6-16,10.3-10.3,15.9-24,15.9-38.6h0V91.5c0-9.7,8.5-17.2,18.2-17.2h0c9.6.2,17.3,8,17.3,17.7h0v195.1h0v.3c0,30.1,24.7,54.2,54.8,54.2h.1c14.6,0,28.4-5.7,38.7-16,10.3-10.3,15.9-24,15.9-38.6h0l-.3-193v-2.3c.2-9.5,8.2-17.3,17.8-17.3h0c4.7,0,9.1,1.9,12.4,5.2,3.3,3.3,5.1,7.8,5.1,12.5h0v194.9s0,.2,0,.2c0,30.1,24.6,54.5,54.6,54.5h0c14.6,0,28.3-5.7,38.6-16,10.3-10.3,15.9-24,15.9-38.6h0V91.6c0-9.7,8.4-17.2,18.1-17.2,4.6,0,9,1.9,12.3,5.2,3.3,3.3,5.1,7.8,5.1,12.5h0s.2,194.7.2,194.7v.2s0,.2,0,.2c0,30.1,24.6,54.5,54.6,54.5h0c14.6,0,28.5-5.7,38.8-16,10.3-10.3,15.9-24,15.9-38.6h0l-.4-193.8v-1.5c.3-9.5,8.3-17.3,17.8-17.3,9.7,0,17.6,8,17.5,17.7h0v195.1h1.4-1.5c0,30.1,24.6,54.5,54.6,54.5h.1c14.6,0,28.3-5.7,38.6-16,10.3-10.3,15.9-24,15.9-38.6h0V91.3c0-9.7,8.2-16.9,17.9-16.9h0c4.7,0,9.1,1.9,12.4,5.2,3.3,3.3,5.1,7.8,5.1,12.5h0v195.1h1.6-1.5c0,30,24.5,54.4,54.5,54.5h0c0,0,.1,0,.2,0h0c14.5-.1,28.4-5.7,38.7-16,10.3-10.3,15.9-24,15.9-38.6h0l-.3-193.8v-1.5c.2-9.5,8.1-17.3,17.7-17.3h0c9.7,0,17.6,8,17.5,17.7h0v195.1h1.4-1.5c0,30.1,24.6,54.5,54.6,54.5h0c14.6,0,28.4-5.7,38.7-16,10.3-10.3,15.9-24,15.9-38.6h0l-.3-193.7v-1.6c.3-9.5,8.2-17.3,17.8-17.3h0c4.7,0,9.1,1.9,12.4,5.2,3.3,3.3,5.1,7.8,5.1,12.5h0v195.1h1.4-1.5c0,30.1,24.6,54.5,54.6,54.5h.1c14.6,0,28.3-5.7,38.6-16,10.3-10.3,15.9-24,15.9-38.6h0V91.4c0-9.7,8.3-17.1,18-17.1,4.7,0,9,1.9,12.3,5.2,3.3,3.3,5.2,7.5,5.1,12.2v.3s.2,194.5.2,194.5v.6c0,30.1,24.6,54.5,54.6,54.5h0c14.6,0,28.5-5.7,38.8-16,10.3-10.3,15.9-24,15.9-38.6h0l-.3-194.7v-.6c.2-9.5,8.2-17.3,17.8-17.3h0c4.7,0,9,1.9,12.3,5.2,3.3,3.3,5.1,7.8,5.1,12.5h0v195.1h1.4-1.5c0,30,24.4,54.3,54.3,54.5h0c14.6,0,28.3-5.7,38.6-16,10.3-10.3,15.9-24,15.9-38.6h0v-3.4h0v-94.3c7-5.5,11.5-14,11.5-23.6v-44.8c0-12.7-7.9-23.5-19-27.9Z"/>
  <path class="st0" d="M52.4,156.6c10.3,0,18.5-8.2,18.5-18.5.1-51.8,42.3-93.8,94.1-93.8s.2,0,.3,0c51.9.1,94,42.5,93.8,94.3,0,10.2,8.2,18.5,18.5,18.5h0c10.2,0,18.5-8.3,18.5-18.5.2-72.3-58.4-131.2-130.7-131.4-.1,0-.2,0-.4,0-72.1,0-130.9,58.6-131.1,130.7,0,10.2,8.2,18.5,18.5,18.5Z"/>
  <path class="st0" d="M273.7,346.7c2.3-1.1,4.7-2.5,7.1-3.9,1.5-.9,3.1-1.9,4.7-3,4.3-2.9,8.3-6.1,12.1-9.5.6-.6,1.3-1.2,1.9-1.8,16-16,25.9-38.1,25.9-63.1s-15.3-57.9-38.8-73.8c-6.8-4.5-14.1-8.1-21.8-10.8-9.7-3.3-20.1-5.1-31-5.1-18.6,0-36.3,5.5-51,15.1-6.6,4.3-12.6,9.5-17.9,15.3-13.3,14.8-21.6,34.1-22,55.7,0,1.1.1,2.2.1,3.4s0,1.7,0,2.6c-.7,14.5-6.7,27.9-16.7,37-7.9,7.1-18.1,11.5-30.2,11.5-28.3,0-47.2-23.4-47.2-50.5s18.9-51.4,47.6-51.4,21.8,4.3,29.5,11.3c4.7-12.8,11.8-24.6,21-35-14.6-9.6-32.3-15-51.4-15s-16.4,1.1-24.2,3.2c-13.7,3.9-26.1,10.5-37.1,19.7-18.1,15.8-29.6,38.6-29.6,64.7s2.1,25,6.8,36.9c2.6,6.8,6.8,13.5,11.2,19.4,17.8,23.4,43.7,35.5,73.1,35.5s36.7-5.5,51.3-15.1c6.6-4.3,12.6-9.5,17.8-15.4,13.2-14.9,21.4-34.2,22.2-55.9,0-.9,0-1.8,0-2.8s0-2.1,0-3.1c.7-14.5,6.8-27.8,16.7-36.7,8-7.2,18.5-11.6,30.8-11.6,27.8,0,46.5,24.3,46.5,50.7s-18.7,51.2-46.9,51.2-22.6-4.3-30.5-11.4c-4.7,12.8-11.8,24.7-21.1,35.2,14.8,9.9,32.4,15,51.4,15s27.7-3.1,39.7-8.6v.2Z"/>
</svg>