<?xml version="1.0" encoding="UTF-8"?>
<svg id="Layer_1" xmlns="http://www.w3.org/2000/svg" version="1.1" viewBox="0 0 549.8 169.6">
  <!-- Generator: Adobe Illustrator 30.1.0, SVG Export Plug-In . SVG Version: 2.1.1 Build 136)  -->
  <defs>
    <style>
      .st0 {
        fill: #ff6b4a;
      }

      .st1 {
        fill: #cbd6ab;
      }
    </style>
  </defs>
  <g>
    <path class="st1" d="M66.2,166.7c-1.6,0-2.4-.6-2.4-1.8s.7-1.8,2.1-2l7.3-1.1c2.2-.3,3.6-.9,4.4-1.7.8-.8,1.1-2.4,1.1-4.6V14c0-1.5-.3-2.6-1-3.3-.7-.7-2-1-4.1-1-4,0-8,1.7-11.9,5.2-3.9,3.5-6.5,9.1-7.6,16.7l-.8,5.4c-.2,1.4-1,2.1-2.3,2.1s-2.3-.9-2.1-2.8l1.5-29.4c.2-2.5,1.2-3.7,2.9-3.7s1.5.2,2.1.6c.7.4,1.8.8,3.3,1.2,1.6.4,4.1.7,7.6.7h36.3c3.5,0,6-.2,7.6-.7,1.6-.4,2.7-.8,3.4-1.2.7-.4,1.4-.6,2-.6,1.7,0,2.7,1.2,2.9,3.7l1.5,29.4c.2,1.8-.5,2.8-2.1,2.8s-2.1-.7-2.3-2.1l-.8-5.4c-1.1-7.7-3.6-13.3-7.5-16.7-3.9-3.5-7.9-5.2-12-5.2s-3.4.3-4.1,1c-.7.7-1,1.7-1,3.3v141.5c0,2.3.4,3.8,1.2,4.6.8.8,2.2,1.4,4.3,1.7l7.3,1.1c1.4.1,2.1.8,2.1,2s-.8,1.8-2.4,1.8h-36.6Z"/>
    <path class="st1" d="M126.3,166.7c-1.3,0-2-.6-2-1.8s.6-1.7,1.8-2l2.3-.3c2.3-.3,3.8-1,4.5-2,.7-1,1.1-2.6,1.1-23.2V18.7c0-2.7-.3-3.7-.9-4.4-.6-.7-1.7-1.2-3.2-1.4l-3.4-.5c-1.2-.2-1.8-.9-1.8-2s.6-1.7,1.8-2c3-.7,5.6-1.4,7.6-2.3,2.1-.9,3.8-1.7,5.2-2.6,1.7-1.1,3-1.6,3.9-1.6s1.8.9,1.8,2.6v50.8c0,1,.3,1.5,1,1.7.7.2,1.5-.2,2.4-1.1,4.1-3.8,7.7-6.4,10.9-7.8,3.1-1.4,6.4-2.1,9.9-2.1,5.1,0,9.1,1.7,12,5.1,2.9,3.4,4.4,5.6,4.4,12.2v92.3c0,2.3.4,3.9,1.1,4.8.7.9,2.2,1.5,4.5,1.9l3.6.5c1.2.2,1.8.9,1.8,2s-.7,1.8-2,1.8h-27.3c-1.5,0-2.3-.6-2.3-1.8s.6-1.7,1.8-2l2.3-.3c2.3-.3,3.8-1,4.5-2,.7-1,1.1-2.6,1.1-4.9v-86.1c0,6.7,1-8.6-2.9-12.8s-4.7-3.3-8.3-3.3-6.6,1-9.3,3c-2.8,2-5,4.7-6.6,8-1.6,3.3-2.4,7-2.4,11v80.2c0,2.3.4,3.9,1.1,4.9.7,1,2.2,1.6,4.5,1.8l4.4.5c1.2.2,1.8.9,1.8,2s-.7,1.8-2,1.8h-28.5Z"/>
    <path class="st1" d="M222.1,168.1c-5.2,0-9.9-1.7-14-5.2-4.1-3.5-7.7-8.3-9.8-14.7-3-9.3-3.7-35.6-3.7-44s1.2-31.8,3.7-38.3c2.5-6.5,5.9-11.6,10.2-15.3,4.3-3.7,9.2-5.5,14.5-5.5s12,2.3,15.5,7.9,5.9,29.5,5.9,41.3-1.4,5.4-4.1,5.4h-30.9c-2.2,0-3.3,2.4-3.3,3.7,0,3-2.7,32.1,5,47.8,2.9,6,7.6,8.6,12.8,8.6s7.5-1.5,10.1-4.4c2.6-2.9,4.7-7.9,6.3-14.8.3-1.2,1-1.8,2.1-1.8s1.8,1.1,1.5,3.3c-1.7,9.6-4.5,16.4-8.3,20.2-3.8,3.8-8.4,5.8-13.8,5.8ZM209.1,95.6h16.4c9.8,0,7.8-9.2,7.8-23.9s-.9-12.6-2.6-16.6c-1.7-4-4.3-6-7.8-6s-7.8,2.4-10.7,7.3c-2.9,4.9-4.7,27.5-5.6,36.5-.2,1.7.6,2.6,2.4,2.6Z"/>
    <path class="st1" d="M283.6,166.7c-1.6,0-2.4-.6-2.4-1.8s.7-1.6,2.1-2l3.7-.7c2.3-.4,3.8-1,4.5-1.8.7-.8,1.1-2.3,1.1-22.8V37.8c0,16-.4-25.9-1.1-26.6-.7-.8-2.2-1.4-4.5-1.8l-3.7-.7c-1.4-.3-2.1-1-2.1-2s.8-1.8,2.4-1.8h54.6c2.5,0,3.8,1.2,4.1,3.7l1.3,27c.2,1.8-.5,2.8-2.1,2.8s-2.1-.7-2.3-2.1l-1-6c-1.2-7.4-3.6-12.8-7.3-16.2-3.7-3.4-8.8-5.1-15.3-5.1s-7.3.6-9,1.9c-1.7,1.2-2.5,3.4-2.5,6.6v65.5c0,1.5.8,2.3,2.3,2.3h8.1c4.8,0,7.7-2.5,8.8-7.6l1.6-8.1c.4-1.6,1.4-2.3,2.8-2.1,1.2.2,1.8,1.1,1.8,2.8v36.6c0,1.6-.6,2.5-1.8,2.8-1.4.2-2.3-.5-2.8-2.1l-1.6-8c-.8-3.8-1.8-6.3-3.2-7.5-1.4-1.2-3.3-1.8-5.8-1.8h-8c-1.5,0-2.3.8-2.3,2.3v59.1c0,3.9,1,6.7,3,8.5,2,1.7,5.7,2.6,11,2.6s10.1-1.4,13.9-4.1c3.8-2.8,6.5-7.9,8-15.5l2-9.6c.3-1.4,1.1-2.1,2.4-2.1s2.2.9,2,2.8l-1.6,28.9c-.2,2.5-1.6,3.7-4.1,3.7h-57.1Z"/>
    <path class="st1" d="M359.3,166.7c-1.6,0-2.4-.6-2.4-1.8s.7-1.6,2.1-2l2-.3c2.3-.4,3.8-1.1,4.5-2,.7-.9,1.1-2.5,1.1-4.8V62.4c0-2-.3-3.3-.9-4-.6-.7-1.7-1.2-3.2-1.4l-3.4-.5c-1.4-.1-2.1-.7-2.1-1.8s.9-1.5,2.6-1.8c3.4-.5,5.9-1.4,7.7-2.6,1.8-1.2,3.7-2.7,5.6-4.4,1-1,1.8-1.5,2.4-1.5,1,0,1.5.7,1.5,2v7.3c0,1,.4,1.6,1.1,1.9.7.3,1.5,0,2.4-.9,4.3-4.1,8.2-6.9,11.5-8.5,3.3-1.5,6.8-2.3,10.5-2.3s8.8,1.7,11.7,5.1c2.9,3.4,4.4,8.4,4.4,15v91.6c0,2.3.4,3.9,1.1,4.8.7.9,2.2,1.5,4.5,1.9l3.6.5c1.2.2,1.8.9,1.8,2s-.7,1.8-2,1.8h-27.3c-1.5,0-2.3-.6-2.3-1.8s.6-1.7,1.8-2l2.3-.3c2.3-.3,3.8-1,4.5-2,.7-1,1.1-2.6,1.1-4.9v-89.8c0-5.3-1-9-2.9-11.2-2-2.2-4.7-3.3-8.3-3.3s-6.6,1-9.3,3c-2.8,2-5,4.7-6.6,8-1.6,3.3-2.4,7-2.4,11v82.4c0,2.3.4,3.9,1.1,4.9.7,1,2.2,1.6,4.5,1.8l4.4.5c1.2.2,1.8.8,1.8,1.8s-.8,2-2.4,2h-27.5Z"/>
    <path class="st1" d="M450.6,168.1c-4.8,0-9-1.7-12.8-5-3.7-3.3-6.6-7.9-8.7-13.8-2.1-5.9-3.1-31.1-3.1-38.9s1.4-36.9,4.2-43.7c2.8-6.9,6.7-12.3,11.7-16.2,5-3.9,10.6-5.9,16.9-5.9s3,.1,4.6.4c1.5.3,3,.7,4.4,1.4,1.7.9,2.6.5,2.6-1.1v-28.1c0-2-.3-3.3-.9-4.1-.6-.8-1.7-1.2-3.2-1.3l-4.2-.5c-1.2-.2-1.8-.9-1.8-2s.6-1.7,1.8-2c3.5-.7,6.3-1.4,8.4-2.3,2.1-.9,3.9-1.7,5.3-2.6,1.7-1.1,3-1.6,3.9-1.6,1.5,0,1.9.5,1.8,1.9v130c0,22.8,1.1,25.1,3.4,25.1s2.7-.9,3.9-2.8c1.2-1.9,1.8-5.1,1.8-9.7s.7-2.6,2.1-2.6,2,.9,2,2.8c0,7.9-1.4,13.6-4.1,17.2-2.7,3.5-5.8,5.3-9.3,5.3s-5.5-1.1-7.2-3.2c-1.6-2.1-2.7-4.6-3.3-7.6-.1-.9-.5-1.3-1.1-1.4-.7,0-1.2.4-1.8,1.2-3,4.2-5.8,7.1-8.3,8.6-2.5,1.5-5.5,2.3-9.1,2.3ZM454.1,160.6c2.8,0,5.4-.9,7.9-2.8,2.4-1.9,4.4-4.5,6-7.7,1.6-3.3,2.4-6.9,2.4-10.9v-74.6c0-4.9-1.1-8.7-3.3-11.5-2.2-2.8-5.1-4.2-8.7-4.2-6.1,0-11,3.6-14.7,10.7-3.7,7.1-5.6,16.8-5.6,29s-3.4,35.1,4.3,63.5c1.7,6.2,6.8,8.7,11.8,8.7Z"/>
  </g>
  <g id="xnivPp.tif">
    <g>
      <path class="st0" d="M91.2,78.9c-.8,0-1.3.7-1.9,1.5-1-.3-.4-1-.7-1.7.8,0,1.4-.2,2.6.2Z"/>
      <path class="st0" d="M70.7,98.8c-.6,1-2.2,1-2.5.3.4-.8,2-.5,2.5-.3Z"/>
      <path class="st0" d="M414.3,78.1v-.6c.1-.3.2-.6.5-.7.4-.1,1-.2.9.3,0,.9-1,.7-1.4,1Z"/>
      <path class="st0" d="M196.3,109.3c-.3,0-.2-1,0-1s.7.1,1.2-.3c.4.6-.6,1.6-1.3,1.4Z"/>
      <g>
        <path class="st0" d="M6.7,112.3c.7.5.8.9.4,1.1-.4.4-1.1.2-1.5.5-.7-.6-1.5-.9-2.7-1,.2-.4.7-.6.6-.9l-.5-.9c1.3-.6,2.9.2,3.7,1.1Z"/>
        <path class="st0" d="M11.8,109.9c-1.9.7.1.9-.9,2.5-.8-.2-.8-1.5-.7-2.3.2-.8,0-1.7.6-2.7.8,1.9,1.7,1.2,1,2.5Z"/>
        <path class="st0" d="M65,103.2c-.5,0-1.1-.3-1.1-.7,0-.8-.3-1.5,0-2,.6,1.2,1.7.8,2.8.9-.4,1-1.6.6-2.3,1.1,0,.3.3.5.4.7Z"/>
        <path class="st0" d="M27.7,123.1c.3.5-1.1,1.7-1.6,1.1s-.3-1.5-.5-2.1c.8-.3,1.5,0,2.2.9Z"/>
        <path class="st0" d="M112.6,112.6c1.1-.2,1.2.4.3,1-.3.3-.8.2-1.1.4-.2,0-.4-.1-.6-.1.1-.5-.5-.9-.2-1.6.7.4,1.2.7,1.7.3Z"/>
        <path class="st0" d="M158.1,110.6c-.2-.5-.5-.7-.6-.9,1.1-.5,2.2-.4,2.6.5-.1.3-.6.6-.7.7-.2.2-.9.4-1.2-.3Z"/>
        <path class="st0" d="M96.8,114c-.1.2-.2.6,0,.9s.6.2.7.5c0,.5,0,1,.1,1.3-.5.1-1.1.1-1.2-.3s-.2-.8-.3-1.2c-.1-.9,0-1.1.7-1.2Z"/>
        <path class="st0" d="M8.1,116.7c-1.1,0-1.7-1-1.7-2,1.8.6.4-.3,1.7,2Z"/>
        <path class="st0" d="M179.5,110.2c0,1.1-1.1.9-2.2.7.2-.8,1.1-1,1.8-1.3l.4.6Z"/>
        <path class="st0" d="M186.8,108.1c.1,0,.2-.2.3-.4.6,0,1.3-.2,1.9.2-.5.3-1.2.2-1.1.7s.2.6,0,.7-.5.4-.8,0c-.6-.7.1-.4-.3-1.4Z"/>
        <path class="st0" d="M30.3,123c-.3.6-1.7.3-2.1-.2,0-.4.8-.5,1-.7s1.4.2,1.1.8Z"/>
        <path class="st0" d="M115.5,115.7c-.5.5-1,.4-1.3.6s-1.1-.4-.9-.8c.3-.6,1.7-.5,2.2.2Z"/>
        <path class="st0" d="M89.9,96.5c-.5.6-1.9.4-2.7-.2.7-.6,2.4-.6,2.7.2Z"/>
        <path class="st0" d="M84.6,116.4c.3.4-.4,1.1-.6,2-.1.1-.6-.3-.6-.5s.3-.5.3-.9c0-.4-.1-.6,0-.7.3-.1.7-.2.9,0Z"/>
        <path class="st0" d="M193.1,108.4c-1,.7-1.9.6-2.6,0,1-.3,1.8-.7,2.6,0Z"/>
        <polygon class="st0" points="14.9 120.5 16.2 121 15.8 122 14.5 121.6 14.9 120.5"/>
        <path class="st0" d="M87.9,118.2c-.6-.4-1.2-.3-1.9-.6-.4-.1,2.2-.5,2.1-.6.3.2.3.6-.2,1.1Z"/>
        <path class="st0" d="M7.1,113.5c-.1-.3-.5-.8-.4-1.1,1,.5,2.1.3,3.1,1.1-1.2.3-2-.6-2.7,0Z"/>
        <g>
          <path class="st0" d="M346.6,79.1c.7-.6.8-.6,1,.3.5-.1.9-.4,1.2-.8,2.5.4,3.4,3,7-.4.4.7.3,1.1.6,1.4s.6,0,1.2-.1c.3.4-.1.8-.1,1.5.8-.8,3.7,1.4,2.7-.6s-.7,0-1.4-.3c1.5-.6,3.1-.2,4.4.8.3-.5.2-.9-.2-1.2s-.9.1-1.3-.7c4.8-1,2.7,2.1,6-.4s1.6.6,2.4.8,5.1-.2,6.8.8l.7-1.8c1.2,0,1.7,1,2.4,1.8s1.1-.3.9-.5l-.5-.5c-.2-.2.3-.6.5-.7s.6,0,.9,0c.7.3.9-.2,1.4-.8l.9,1.8c.4-.6,1-.8,1.6-.9s.7.9,1.1,1c1,0,2.4,0,3.3-.7.1-.5.2-1.3.6-1.4.8-.2.8.5,1.3.8,1,.8,3.2.7,3.2,1.6v1.1c0,.9,2.4,0,3.2-.5-.2-.2-1-.6-1.4-.5s-.2.6-.9,1.1c-.4-.5,0-.9-.2-1.5,1.1-.1,1.8-.7,2.4-1.6.4.8-.1,1.3-.3,1.9.7,0,1.4.5,1.8.4.3-.6-.5-.8-1.1-1.1.5-.4.7-1.2,1.4-1.3-2,.3,2,0,.8.6s-.5,0-.5.4c1.9,0,3,.7,4,2,.5-.7-.1-1,0-1.4s.3-.6.6-.5c.5.1.9.4,1.3.3s.4-.4.5-.8c.3-.8,1.3-.7,2-.4s0,1.1.3,1.4l1.1-1.1c.3-.3.8.5,1.3.7s.7,0,1-.3c.4-.4,0-.1-.6-.7.8-.2,1.3,0,1.9,0,.5.3.6.6.2.6s.6-.9,1-.3c.4.3.9.6,1.2,1,.5.5-.4,1.1.1,1.9,1-.9,1.6-2,2.9-2.4s1.5,1.1,2.1,1.3c1.5-.1,3.2.1,3.5,2s.5,1.7,1,1.7c.5-.5,0-1.2-.6-1.5.2-.2.4-.5.6-.6.4-.2.9.5,1.3.5l4.2.3c1.1,0,2.4-.4,2.9,1.3.3.3,1.4-.2,1.8.7-.9.2-2,1.5-1.3,2s1.9.2,1.7,1.3-.3,2,.4,2.8c-.7.4-1.5.4-1.9,1s.4,1,.7,1.3c.5.3,1.3.2,1.9-.2,2.5-1.7,5.3,2.5,6.4-.8.7.2,1.1.5,1.5.7-.4.2-.6.4-.7.4-.2.2,0,.6.1.8.3.3,2.1-.9,2.3-1.1s-.4-.3-.2-.9c1.1.5,1.4,1.6,2.2,2.3.6-1.1-.8-1.4-.7-2.5s1-.4,1.4-.4c.7-.1.7,1.2,1,1.4,4,2.3,2.9-.5,5.4,2s.7-.6.4-.7-.6-.3-.7-.6c-.2-.7.5-1,1-1.1,2-.1,1.6,1.2,2.6,1.2s1.5-1.6,2.2-1.5.5.4.8.7-.3.6-.6,1c1.3.5,2.1-.3,2.9-.9.3.3.6.5.8.7.4.2.8-.1,1.1-.3,1.7-1,3.4,0,4.9.3s2.8-1,4.1,0c.8-.9,1.5-1.4,2.4-2s.7,1.2,1.1,1.5c.6.4,2.2,0,2.8,1.2.6-.8.5-1.4,1-1.7.7-.3,1.4.4,2.1.3s1-1.4,1.9-1.4c.7.5.6,1.3,1.1,1.9,3.8-1.9,2.2,1.9,4.7-.9s1,.4,1.5.5.9-.5,1.2-.6c.6-.1,1.1.8,1.8.8.5-.2.4-1.9,1.4-1.3.1.2-.2.7-.2.9s.2.6.6.5.7-.7,1-.7c1.1,0,2.6,2.2,5.1.5.6-.1,1-.5,1.2-1-.5-.5-.2-.7.4-.4,1.3-.2,2.5.3,3.2,1.7.9-.2,1.1-.3.2-.8.9-.3,2,0,2.8.2,0,.2-.1.8,0,.8,2.1-.4,2.2,1,4.1.5-.2-.8-1.1,0-1.4-.9.9-.8,1.8,0,2.7-.2,1.6-.2,2.6.5,4,1s2.1-.8,2.7,0,.3.8.8,1c1.9.6-1.1-1.5,3.5-.6,0,.4-.1.7,0,.8.6.5.2-.6.6-.8,1-.6,2.3,1.1,3,.8.7-.6,1.6.1,2.1,0,1.6-.6,6.4-.2,7.9,1.4s1.4.1,1.3.6,0,.9-.5,1l-.9.2c.1.6.4,1.2,0,1.5s-.8.4-1.4.9l4.4-.5c.3,0,.8.3.9.5s0,.6-.3.8-1.1-.2-1.4.1-.3.5-.1.8c.5.9,1.6.9,2.3,1.4-.2.5-.9.7-.8,1s.3.5.7.8c-3.7,1.5-3.1-.5-4.5.1s-.7,1-1,1c-1.8.2-2.2-1.5-3.4-.3s-1.3.5-2.1.2-.4.6,0,.6.4,0,.4.5c-.8.2-1.1-.7-1.9-.3,0,.2.4.4.4.6s-.1.5-.4.4c-1.4-.7-2.9-.4-4.4-.7s-2.4-.8-3.7,0c-.2-.7.5-.7.2-1.4-1.3,1.3-2.7,1.3-4.4.9s-2.4.3-3.5-.3c.2-.7.5-.9.7-1.1s-.2-.7-.5-.6c-.7.1-.4,1.3-.7,1.6-1.7,1.3-4.9-1.5-6.7-1.2-.4.1-.8.8-1.1.6s-.4-1.1-.7-1l-1.6.6c-.4.1-.8-.5-1.3-.8s-.8,0-.8.3v.8c-4.8-2.6-2.9.8-6.8-.1l-1.1.4c-.3,0-.6.4-.9.3s-1.5-1.9-3.3-1.2-1.7-.5-2.6-.6c-4.5-.3-4.7,1-6-.5.4.4-4.8.1-3.9.3-1.6-.3-2.7,0-4.2.7s-1.5-.8-1.9,0c-1.4,2.4-2.3-1.3-5.6.3,0-.6.6-.8.3-1.5-.8.6-3.9,2.7-4.5,1.2,0,1.4-3.9,1.2-3.8,1.2-.2-.2-.4-.9-.7-.9-.8,0-1.5.4-2.2-.2s-1.2-.5-1.5,0-.2.9-.6,1.2c-.4-.3-1.1-1.3-1.8-1.1s-.9.6-1.5.9c-.3.4-.5.2-.3-.2,0-.5,0-1.2-.6-1.2.2,0-3.3,1.3-1.4,2.2-.6.1-1.9.7-2.5,0s.6-1.3.1-1.8c-.9-.9-1.8.3-2.5.2-1.5-.1-2.6-.5-3.9,1.2,0-1-.7-1.3-.9-1.8-.5-.8-1.2.1-1.8-.2s-1.5-1.2-2.1-.3-.6,1.2-1.1,1.3c-.8.2-2.1-1.1-3,.5s.3.6.4,1.1c0,.3-.7.5-.8.7s.3.9,0,1.1c-.5.3-1.2.2-1.8,0,.9-.8,1.7-1.8,1.5-3-1.1.2-1.7.6-2.6.4,0-.6.5-.8.4-1.6-2,.8-3.9.8-5.9.6s-1.4,1.1-2,.7c.1-.5.4-1,0-1.4-1.2.7-2.5.7-3.8,0-2.7-1.3-4.1,1.5-5.5-.5s0-.5-.2-1.7c-1.6,1.9-3.4,2.3-5.2,1.7-.4.2-.8.5-1.1.6-.5.1-.6-.6-1-.7-1.5-.4-3.2-.6-4.6,0,.8.7,1.6.6,1.9,1.5-1.1.6-2.4.3-3-.9-1-.2-1.9.4-2.8,0-.2-.2-.6-.7-1-.6s-.4.2-.4.5.2.4.2.7c-1.6-.1-3.5.4-4.9-.5s-2.1-.7-3.5-.3-1.6-.2-2.4.4-1.7-.9-2.3-1c-8.1,2.2-4.3-1.8-8.9-.7l-2.5.6c-.7.2-2.4-.7-2.8-.1.6.8-1.2.8-.8,0-1-1.1-1.7.9-3.5.7s-.9-1-1.3-1.1c-1.4,1-2.1,1.1-2.2,2.4s.5.5.5.8c-.4.6-1.5.8-1.6,0s.3-.9,0-1.1-.6-.4-1.1-.3c-.8,0-.8-.8,0-.9.8-.3.4-.6-.3-.8-1.7,1.2-3.3,1.4-5.2,1s-1.1.4-1.4-.1.1-1.1-.8-1.6-.3.9-.5.9c-1.2,0-2.3.8-3.1,1.9-1.4-1.7-3.2-1.1-4.5-1.2s-2.9-.3-4.2.7c-.9,0-2.3-1.1-3.2,0s-.8-1.2-6.9.6-.4,1.1-.9.8c-1.3-.7-1-1.4-1.9-1.6s-.9.9-1.2.7c-.9-.6-1.4-.4-2-.4-1.5.2-2.9,0-4.1-.4-2.7,2.3-2.9-1.9-6.1,0,.8.5.6.9-.2.9-.9,0-.7-1.3-1.3-2-.9.7,0,1.3-.4,2.2-1.4-.8-4.3-2-5.6-1.3-2.8,1.7-2-2.4-6.6,1.2-2.9-1.9-4.4.5-5.9,0s0-1.3-.8-1.9-3.2,2-3.9,3.2l-1.6-2.3c-.7.6-.6,1.2-1,1.7-.4-1.7-3.2-1.1-4.3-.8-.1-.5.6-.6.2-1.2-2.2,2.2-2.8-1.2-5.4,1.3s-1.4-.3-2.2-.8c-.3.6.2,1.1,0,1.3-.4.4-1.2.6-1.3,0s-.1-1.2-.5-2c-.3.4-.7,1-1.2.8l-1.1-.5c-.6-.3-1.3,0-1.6-.7-.2.6-.3.9-.5,1s-.9.3-1.1,0c-1.3-.8-2.4.1-3.6,0s-2.2,0-3.2.5-.7-.7-1-.7-.6.6-.8.6c-1.2-.2-2.7.2-3.9-.1s-2.9-1.2-4.3,0-2.4.3-3.5,0-1.7.4-2.2-.2,0-.6,0-.7c0-.4-3.7.7-7.4.3s-.5-1.3-.8-.8-.9.4-1,.7.8.7.9,1.1c-.1.3-.9.5-1.3.6-.6.1-.7-.6-1.1-1-1.6-1.3-3.6,3.7-3.4-.4-.8,1.6-2,.8-3,.9s-1.8,1.2-2.5.3c-.2-.9-.8-.8-1.9.3-.7.3-.7-1-1.1-1-1,0-2.2,1.1-3.3.4s-.5-.5-.7-.4-.4.4-.7.5c-1.3.4-2.6-.2-3.8.2.2.6.7.6.8.8,0,.5-.3.7-.6.5s-.7.2-.9-.1c0-.6.6-1.2-.1-1.9-.4.8-2.1,1.7-2.7,1.2s-1-.5-1.6-.8-.2-1.2-1.2-.9-.9.2-.3.9c.8.1,1.2.7.2.8-2.4-2.4-3.3.9-5.5.1s-.7-.9-1.1-1.5-1.4,0-2,0-.5,1.2-1,1.6c-1.4,1-2.2-1.8-5-.2.1-.4.5-1,.2-1.1s-1-.1-1.1.1c-1.2,2.1-3.1,0-3.6,1.3.2.3.1.4-.3.4-1,0-2.2-.8-3.1-.3s-.3.9-.5,1.2c-1.1,0-2.3-.7-3.3-1.4s-1.1.9-1.5.9c-1.3,0-2.6.3-3.2,1.8-1-.3-.7-1.3-1-1.7-.6-.6-2.7-1.3-3.3-.7s-1.2,1.4-2.4,1.5-1.3-.8-2.1-1.1-1.6.4-2,0c-1.6,1.7-4-.4-6.4.3s-1.4,1.2-2.7.3c-1,.3-.9,1,.4,1.1-4.9,2-1.7-1.2-5.2.4-.2-.1.3-.7.2-.9-.4-.9-2.4.9-3.1.9s-.9-1-1.4-.6-.8.4-1.3.5c-.4,0-.6-.5-.9-1.2l-.3.5c-.2.4-.2.9-.7,1.5-.7-.6-1.4-1.6-2.3-1.5-.3.1-.4,1-.8,1s-.6-.2-.9-.4c-.7-.3-1.1-.6-1.4.1s0,1,0,1.3c-2.4.3,1-.9-4.5-1-.7,1.1-1,2.7-2.6,2.6s-.8-.8-1.2-.7-1.7,1.2-2.8.5-.2-1.3-.8-1.3c-.8,0-1.4,1.6-2.3,1s0-.9-.6-.8-1.4,1.6-4.4,1.8c0-.7-.1-.9-.2-1.1-.6-2.1-2.4,2.8-3.4,2.2-.4-.2-1-.8-1.3-.5s-.4.9-.6.8c-.5,0-1.1-.5-1-1-.2-.9.6-1,1.1-.4.3-.7.2-1-.3-1,0,.5-.5,1-1.5,1.4-.3.4-.8.5-1.4.5s-.7-.9-1.1-1.2l-5.3,1.2c-1.8-2.4-.3,2.3-1.9,1.6s-.6-.6-.6-1c0-.6.6-.4,1.2-.6-.2-.8-4.7-.6-5.2-.5-.3.4-.5.8-.7,1.2-.1-.1-.6,0-.7-.3s.2-.7-.2-.7c-.7-.1-1.1,0-.7.6.3.8-.8.5-1.4.3s0-.8,0-1.2-1-.1-1.2.1.2,1.7,0,2-2.2.9-3.9-.6-1.2,0-1.3-1.1l-1.9,1.6c-.9-.6-1.8-.5-2.5.3-.9-1.8-.8,0-2.9.6l.9,1.5c-.9.4-1.2-.5-1.9-.6s-.8.3-1,.2c-.3-.2-.3-.6-.4-1-.2-.6-.6-.4-.8-.2s.2,2-.4,2.3-1-.4-1.2-.6c-.3-.4.6-.8.6-1.2s-.6-.8-.8-.7c.6,0-3.4,1.8-5.9.6s-2.1-.4-3.6-.5l-3.8-.2c-.1.7,1,.5.6,1.2-1.8-.4-2.6.3-3.4,1.1-.8,0-1.9,0-2.9,0l-4.5.3c-.5,0-.8.8-1.2.7s-.7-.9-.9-.8c-.8.3-2.1-.4-2.8-.4s-2,.9-2.9,0c-.7.4,0,1.4-.3,1.8-.7,1.4-2.2-.1-2.9,0-5.8.2-4.2-3-6.1-.5s0,1-.1,1.7-1,.9-1.3.7c-.4-.5.3-1,.2-2-1.2.8-3.8,1.8-4.7.7-.3.3-.8.6-1,.4l-.6-.6c0,1-2.2,1.3-3.2,1.5.3-.7.5-1.3-.2-1.5-.4.9-1.1,1.1-2.1,1,.4-.3.6-.5.5-.8s0-1.1-.5-.7c-.7,4.6-9.1-3.5-11.2-1.6-.4-.6.2-1.3,0-1.6-.4-.6-1.2-.1-1.7-.1-.7-.6-1.3-1.3-1.7-2-.2,0-.8,0-1.1-.3s0-.3.2-.5c0-1.1.9-1.2,1.5-.5l-.4-1.1c.6-1.1,1.9-1.7,3.1-1.7.2.8.6,1.4,1.1,1.8-.4-2.6-.1-3.4.9-2.5,1.2-.4,3.3-1.7,4-.7l.7,1c.3.4.6-.5,1-.8.6-.4,1.6.2,2.1-.5s-.2-.8,0-1c.4-.4,2.8-.7,1-1.3,1.8-1.2,4.1-1.2,6.2-.3s1.6-.5,2.3.4c.1-.8-.4-1.2,0-1.3-.3,0,2.4,0,2.7.4s.4.9.7,1.6c.7-1,1.6-.6,2.7-.6h3.3c-.3-.9-.9-.8-1.4-1.3.6-.8-.2-1.8,0-2.5s1.9-.5,2.5-.3c-.4.5-.7.8-.6,1,.1.4.4.7.8.9s1.2,0,1.7-.2q.3.6,0,0c-.4-.5-1-1.1-1-2s.7-.8,1.2-.7.5.9.9,1.2c3.6.7,1.9-1.7,6.1-2.1l-1.7,2.6c2-.9,3.6-.4,5.1.9.6,0,.6-.9.4-1.2-.2-.5-.8-.5-1.6-.5.9-1.8,1-.8,3.8-1.1-.1-.6-.8-1-.2-1.7,3.8,3.3,4-.2,4.7,1.8-.8,0-1.6.3-1.9,1.2,2.2-.5,4.5-.5,5.4-1.6.6.8.5,1.6.8,2.4s.8.7,1.4.4.5-.5.1-.9c.1,0,.5,0,.7,0s.2.3,0,.6c2.2.2,3.1-1.3,3.6-3.3,2.2-2,5.6,2,4.7-1.4,1-.3,1.2.2,1.4,1s-.3.7-.8,1.2c.3.6.9,0,1.4,0s-.3-.8,0-1c.5-.3,1.1,0,1.8-.2-.1-1.1.3-1.1.9-1.1.9,0,.9.7,1.1,1.1,1.7-1.4,5,1.4,4.6-.6,1,.5,1.1,1.2,2.1,1.4v-1.6c1.1-.1,1.9-.4,2.6-1.1,1.4,1.3,3.5,1.2,4.9.1-.8-.5-1.2-1.3-1.2-2,1.6.3,2.9-.1,4,.4.3.3.5,1.1.9,1.2s.6-.3,1-.4c.2-1,.5-1,.8,0,2.2,1,1.1-.3,3.5,1.3.1-.6.3-1,.6-1s.5.3.8.1c0-.5-.6-.8-.8-1.1,1-.9,2-1.5,3.1-1.2.3.1.2.4-.4.7.6.4,1.3.9,2,1.3s1.5-.8,1.7-1.6c.7,0,.8.5,1.3.8.6-.7,1.2-1.1,1.9-.7l1.5.9c.5.3,1.6-.7,2.1,0s.8,1.1,1.5,1,1.4-.6.9-.9l-.6-.4c-3.2-2.2,6.6,1.7,5.2.6.6-3.5.7-.3,3.8,0s.7.6,1.1.6c2,0-.3-2.5,1.1-2.5s2,.3,2.9,0c1,.8,2.4,1.3,4,1.3s1.2-1.7,1.9-2.1,1.8.2,1.9,1c1.6-2.1,3.2,1.1,3.4-1.4.5-.4,1.2-.7,1.7-.3s.4,1,0,1.6c4-.3,1.4,1,4,0l-2-2.7c0-.4,1.4-1.3,1.8-.5s-.6,1.5.1,1.8c1.1-.3,2.4-.6,3.3-.5.1.5,0,1,.2,1.3.3.3.7.3,1,.2.7-.3.2-.7.3-1.2,0-.9.9-1,1.4-1s1.2,1,1.7,1.2c.8,0,1.8,0,2.5.5.4,0,1.2-.8,1.5-.3l.6.9c.4-.7.7-1.4,1.2-1.7s1.2-.2,1.7.2-.2.8,0,1c-.1,0,3.5,1.9,4.5-.5.5.4.8.8,1.6.9.2-.8.3-2.3,1.4-2.6s1.3.6,1.9.2c.8-.6,1-1.7,1.9-1.2s0,.3,0,.7c1.5,2.7-1.1.5,2.2,2.6s.7-.6.5-.7-.3-.9-.2-.9c.8-.2,2-.3,2.1-1.1-.2,0-1-.8-.5-.8,1.2-.2,2.2,1,2.6,2l2,.4c.4,1.1,1.6,1.5,2.4.8-1-.3-1.4-.9-1.9-1.6.9-.2,1.4.3,2.3.4-1.5-2.4,2.6-1.3,1.9-2.8s-5.2.1-4.6,1.2c-.8-.4-.9-1.1-.6-1.9l-3.5,1.1c-.9.3-1.6-.9-2.5-1.1-3.9,3.3-4-1.7-8.4.4-.2-.7.4-.7.7-.8,2.2-.7-4.6-.2-3.6-.4l-6.4,1.1c0-.7.2-1.1-.1-1.1-.4,0-1,0-.9.3.2.6.2.8,0,1.1-.5.4-.6,0-1.4-.4.1-.3.8-.2.7-1-1.2.2-2.4,1.1-3.4.7l-1.3-.6c-.9,1.2-1.9.4-2.9.1s-1.9.5-2.6-.2c-.6.4-1.7.8-1.9-.2-.6,0-1.1.2-1.7.6-.9.6-1.3-.6-1.9-.7,1.5.1-8-.5-4.8-.7-2.8.1-5.4-.3-8.1-.6s-3.5,1.7-5.2.8c.1-.4.4-.8.4-1,0-.3-.4-.3-.5-.3-3,.8,0-.6-2.3.7s-2.7-.3-4-.4-2.9.8-3.6,0-1.1,0-1.6-.2c-1.1-.5-1.6-.6-2.8-.3-1.9.5-3.9-.5-5.7-.1s-1.1,1.2-1.7.7-.5-.9-1-.9-.7,0-1.1.4c-2.7,0-7.6-1.2-10.4-.1s-1.3-.7-5-.5c-1.2.6-2.7,1.8-4.1,2.3.6.7,1,.2,1.2.3.5.2.5.6.6.9.3,2.2-6-.9-6.1-3-1.1.6-1.3,1.5-1.5,2.7-1,0-.4-1.1-.7-1.4-.7-.9-1.6-1.6-.7-2.8-.8,0-1.7.1-2-.3l-.8-1.3c-.5-.8-2.1-.5-2.6-1.5.5-.5,1.2-.4,1.6-.7s0-1.1,0-1.6.7-.5.7-.1.2.3.5.5c1.4-.7,2.9-.4,4,.7.4,0,.8-.6,1.1-.6.5,0,.8.6,1.2.8,1,.8,2.1,0,2.7-.9.9,0,1.1.3.1.7l3.9,1.6c.4-.1.5-.9.8-1,.4-.3,1-.1,1.5-.1l3.9.2c0-.6,0-.8.1-.9s.9-.3,1.1-.2c1.4,1.3,3.3.7,4.8,1.1s2,.5,3.3,0,4.7.9,6.2,0,2.3-1,3.1-.7l2.2.9c.5.2,1,.7,1.5.3s.2-.8.5-1.1c.7-.8,1.9,0,2.7.3l.3-.6c0-.1.9-.3,1,0,.3.5.5,1.3,1.2,1.3s1.1-.2,1.4-.8c.5.2,1.1.1,1.5.5l-1.2.4c2.5,1.2,1.8,0,3.9-.8,3.8,1.5,1.4-1.6,4.2-1.2s-.2.7.1,1.1c.3.8.2,1.2.7,1.2,1,0,1.2-.3,1.6-1s1.2,0,1.6.6l1.3-1.2c.2,1.1,1.3.4,1.7.7.9.6,2,.4,3,.7,2,.5,4,.8,5.3-1.6.9.6.1,1.1.3,1.3s1.7.6,1.8.4.3-.2.3-.4-.4-.2-.7-.4c.5-.1.9-.5,1.4-.5-.4,3.6,2.8-.5,3.7,1l.4.8c-.4-.6,2.2,1,3.5.4s1.4-.8,1.8-1.7c.4.7.5,1.1.9,1.4-.1,0,7.5.2,7.5.2.4,0,.8.8,1.3.5,1.9-1.4,2.6-.3,5.8-1.6,1.3,0,2.9,1.6,4.2,1.6,4.2,0,4.7,1.7,4.8-1,1.4,1.1,2.9,1.1,4.5.8,5.8-1.2,6,1,7.3,1s1-1.1,3.4-.9c0,.7,0,.8.4.6s.6-.3.6-.4-.7-.6-.7-.7c.5-1,1.7-.4,2.7.1,1.7.9,3.8.4,5.7,1s.7-.8,1.1-1.3l1,1.6c.2.5.5.7.5,0,.6-.4,1.2-.8,1.8-.6s1.3.8,2,1.4c.2-.4.5-1,.9-1.1,1.3-.3,2.8.9,3.4.2l.5-.7c.3.6.6.9.9.9s.8.1,1-.2c-.5-.3-.7-.5-.8-.7-.1-.4.3-.7.5-.6,4.3,1.6.7.3,2.6,1.3s1.7-.9,2.3-1.6c.9.5,1.4,1.8,2.4,2.1s1-.2,1.1-.4-.1-.6,0-.8c2.6-.7-.7-.6,4-1.1.2,0,.2.7.2,1.1l3,.2c-2.5-.2,3.4-.7,5.2.3s4.1-2.1,6.4-.1c.4.3.8.4.8,0,0-2.3,2,1.2,3.8-.4.3-.2.5-.5.6-1,.6.7,1.6.2,2.4.4,1.4.4,2,.2,3.2-.2s2.5.7,3.6.3,2.8,0,3.4,1.1c.4,0,.7-.3.9-.5.4-.3-.3-1.4.2-1.8s.5.4.8.7c4.2-2.3,1-1,5-.8s2.7,1.2,4.3,1.3c.5-.2.4-.6-.2-.6-.8,0-.7-.9.2-.8s1.4,1.1,2.2,1,.7-.5,1-.5.2.4.4.7c3.1-1,2.9.6,3.5.7,1.1.3.4-.6.5-.8.2-.4-.3-.6-.8-.9.5-1.1,1.8-.7,2.7-.2.5-.3.4-.9.9-1.4.9.5,5.2,1.8,5,.3s.5-.1.6,0,0,.4,0,.8c1,.6,2.4,1.1,3.7,1.2,6.8-3.4,4.6,2.1,10.3-2.7-.7.2-1.7.4-1.9-.4,1.3-.9,3.2-.9,4.6-.4-1.2.1-1.4.7-.5,1.1,5.8.4,5.3,2.7,9.9,1.4s5.1,0,7.5.2.7-.3,1-.3-.1-.8,0-.9c.3-.4.8,0,.9.3s.2.6.2.9c.3.4.2.8,0,1.3s-.2-1,.4-1.2c.7-.5,1.1-1.2,1.8-1.3,1.1-.2,1.9.4,2.8.7,2.2-1.9,1.8,1.2,4.4-.1-.7-.9-1.4-1.1-2-1.4.6-.6,1.1-1.7,1.7-1.6.7.3.7,1.3,1,2.1.6-.4,6.5.6,6.1,1.6.5-2.5,1.7.2,3.7-1.2-.6-.4-1.2-.1-1.5-.5s-.8-1-.2-1.2,1,0,1.3.1,0,.5.2.9.8,0,1,.2ZM351.7,80.9c-.4-.5-1.1-.8-1.5-.7s-.6.8-.5,1.2c.9-.4,1.3-.5,2-.5ZM432.9,85c-.2-.6-.9-1-1.1-1.3-.6-.5-1.1.4-1.4.7-.5.4.3,1.1.7,1.4s2-.3,1.9-.8ZM319.1,82.7c-1.3-.3-2.4-.8-3,.3.6.6,1.3.2,1.9.3.3.4.4.6.7.6s.9,0,.9-.2c0-.5.1-.9-.5-1ZM299.1,89.6c.9-.3,1.9-.2,2.6-1-.8-.5-1.7,0-2.1-.4-1.7-2.4-3.1.6-6.7.9,1.7,1.1,3.9,1.3,5.8.2-.1-.3-.9-.3-.9-.5s.8-1.2,1.2-.8.2.7.2,1.5ZM219.4,86.6c-.5.8.2.9.5,1.1s.6.3.6,0-.1-.8-.1-1.1-.7-.4-1,0ZM320,88.6c-.7,0-1-.2-1.7,0,.4.8,1.1,1,1.9,1.5.1-.6,0-1.2-.2-1.4ZM242,91.3c.5-.5.3-.6-.1-.9-.6-.4-1,.3-1.5.3-.8,0-1.7-1-2.5-.6-.3-.3-.5-.8-.9-.7s-1.1.6-1,1c.6,1.6,3.2-.2,4.5,1.1-.2.3-.5.7-.6.8-.3.2.3.9.5.4l.5-1.2c.1-.3.7-.3,1.1-.2-1.1.4,5.1.6,6,1,1.8.7,3.4.2,4.7-1.2.1-.1.8.3.8,0,.1-2,1.1.3,2.2-2.1-1.6.6-2.8.4-4.2.2s-2.2.4-3.3,0-1.1.4-.9.7.7.2.6.9c-5.2-2.6-4.3.7-6,.3ZM270.7,91.1c-.2-.9-.9-1-1.2-1.7-.6.4,0,1,0,1.4s1.3.7,1.2.2ZM279.2,90.6c-.5-1-1-.8-1.3-.3s-.8.4-.5,1.2c.5-.5,1-.6,1.8-.9ZM193.7,90.1c-.1.4-.1.8.1.9,2,1.4.2-.5,3.9-1.1.1-.4-.2-.8-.5-.9-1.4-.4-2.1,1.5-3.5,1.1,0-.9-.8-1.1-1.3-1.2s-1.1.6-.9,1.1c.9-.3,1.5-.2,2.2,0ZM203.3,93.2c-.3-1-.5-1.9.8-2.4-1.3-2.3-1.8-.9-5-1.6.2.9,1.1.6,1.4,1.4-.7.6-1.3,0-2.1.4,5.8,1.4-.7,1.7,5,2.2ZM207.2,91.7c1.2,1.8,6.3,1.2,6.3-.4,0-.6-.7-1.4-.8-1.9-.9.9-2.1.4-3,1-.2.3-.1,1.3-.9,1.6l-1.6-1.9c-.3,0-.5.7-.7,1-.4.4.7.5.8.7ZM226.9,91.9c.2-1.3-1.3-2-2.4-2.1s-2,.5-3,1.1-2.3-.6-2.7-1.6c-.9.8-.4,1.6,0,2.4,1.1,1.7,3.5-1.3,5.6,2,.9-.4,2.1-1.1,2.4-1.9ZM261.7,91c-3.1,0-1.7-1.4-4.1-.9,0,.2.4.4.4.6,0,.3-.3.3-.4.4s-.6-.2-.8.3c1.6,0,3.3.6,4.9-.4ZM422.7,94.9c2.9,1.9,1.4-.2,4.9-1-.9-1-2.1-1.3-3.1-.5,2.5,2.1-2.2.6-1.8,1.6ZM231,91.8c1.2,0,2.2-.5,3.4-.8-1.2-1.9-1.3.8-5.1-1.2-.2.6.3,1.1.2,1.4-.2.4-1.2,0-1.4.3-.4.6.7,1,1.1.9s.6-.8.9-1.3.7.7,1,.7ZM440.5,94.9c.5-.5,1.3-.2,2.2-.4-.8-1-2.2-.2-3-.4-1.3-.2-2.8-1.1-4.2.2,1.6.9,2.9.6,4.2,1.2s1.2,1,2.1.4c-.6-.2-1.1-.5-1.4-1ZM190.7,93.3c.7-.5.8-1.4,1.8-1.5.2-.2.1-.8.5-1.2-.8-.2-2.2-.2-2.9.5s.3,1.2-.4,1.1-.6-.5-1.1,0c.4.5,1.5,1.5,2.1,1.1ZM197.1,94.6c.7,0,1.3-.3,1.3-.5v-.8c.1-.3.8.1,1.2,0-.4-1-1.2-1.5-2.1-2.1-3.2,2.1-2.8,2-4,1.1s-.5.4-.5.5c.2,1.3,1.9,0,3.4.7s.4.8.7,1ZM213.5,92.3l-.4.7,1.9,1.2.4-.7-1.9-1.2ZM174.9,92.6l-1.8.6.3,1,1.8-.6-.3-1ZM420.5,104.4c.7.2,1.2,0,1.9,0-.1-.8-4.3-1.8-3.3-.7s1-.3,1.3,0-.1.6.1.7Z"/>
          <path class="st0" d="M322.6,105.7l-2.5.5c.2.4.8,1,.5,1.2s-1.1.2-1.4,0c.2-.8.1-1.7-.6-2.1,1.2-1,2.8.3,4.1.4Z"/>
          <path class="st0" d="M196.4,80.9c.1,1.4-3.8.9-3.9.7-.2-.4,0-.8.3-1.1.7-.7,0,.7,3.6.4Z"/>
          <path class="st0" d="M506.6,91.5c0,.1-.2.4-.4.4-.2,1.2-.6,1.6-1.2,1-.4-.7-.9-1.2-.7-1.7.3-.8.7-1.1,1.3-1s.9.7,1,1.3Z"/>
          <path class="st0" d="M348.9,78.7c-.3.5-.7.8-1.2.8-.4,0-.7-.1-1-.3,0,.3.6-1.6.6-1.7-.2-.2-.5-.2-.6-.7,1.2-.1,2.4.8,2.2,1.9Z"/>
          <path class="st0" d="M149.1,88.3c-.5,1.1-2,1.7-3.3,1.2.5-.9,1.3-.7,1.4-1.3.6,0,1.4-.4,1.9.2Z"/>
          <path class="st0" d="M179.5,110.2c-.9.5-1,.2-.4-.6,0-.4.5-1.2.9-1.1s1.1.6,1.2,1.2-1.3.6-1.8.5Z"/>
          <path class="st0" d="M322.3,79.8c-.8.6-2.1.4-2.5-.7s.8-.7,1.2-.6,1,.3,1.3,1.2Z"/>
          <path class="st0" d="M294.6,80.3c-.8,0-1.6-.1-2.4-.4,1-.7,1.7-.7,2.7-.9-.2.5-.4.7-.4,1.3Z"/>
          <path class="st0" d="M99.7,97.5c-.2,0-.6,0-.8,0-.1-.6-.8-.5-1-1,1-.3,1.5-.9,1.9-.3s.4.9,0,1.3Z"/>
          <path class="st0" d="M144.8,110.4c-.3.3,0,.9-.6,1.2,0-1,.3-1.7-.6-1.9s-.3-.7-.3-1,.4-.6.7-.3c.7.6.4,1.5.7,2Z"/>
          <path class="st0" d="M106.4,96.2c0-.2.2-.5.4-.7.4-.3.8-.5,1.1-.6.5-.3.9,0,1.2.5-1,.6-1.9.5-2.7.8Z"/>
          <path class="st0" d="M395.8,105.9c.6,0,1.5-.3,2.3.2.2.5-.9.8-1.3.9-.6,0-1-.5-.9-1.1Z"/>
          <path class="st0" d="M223.9,106.9c-.5-.2-1.5,0-1.9.3.3-.4.4-1.2.8-1.4.6-.3,1.5.1,1.9.8s-.6.4-.7.3Z"/>
          <path class="st0" d="M326,80.7c.1.3.2.2.4,0,0,.5.5,1.2.3,1.6-.5.4-1.2.6-1.9.4,0-1,1-1.3,1.2-2Z"/>
          <path class="st0" d="M370.4,79.1c-.3,0-.4-.3-.3-.6s.4-.2.4-.6c0-.6.6-.4.8-.2s.4.4.3.8-.5.6-1.2.6Z"/>
          <path class="st0" d="M132.6,95.2c-.4-.5-.4-.9-.2-1,.4-.2,1.7-.3,1.7.2,0,.9-1.1.7-1.5.9Z"/>
          <path class="st0" d="M509.7,91.8c-.6-.4-1.2-.6-1.2-.9.2-.5.6-.6.9-.6s.7.3.9.6-.3,1.1-.6.8Z"/>
          <path class="st0" d="M452.8,106.4c.1,0,.5,0,.3.2-.3.2-.2,1.2-1,.9s-.5-.5-.9-1c.5-.3,1,0,1.6-.1Z"/>
          <path class="st0" d="M368.5,104.3c.5,0,1.5.4,1,1s-1.1-.3-1.5-.3c-.7.1-.9-.6-.2-.7,0,.1,0,.4.1.3.2,0,.6-.2.6-.3Z"/>
          <path class="st0" d="M439.2,89.5c-.2.6-.8,1-1.7,1.2,0-.8.7-1.5,1.3-1.9.2.2.5.4.4.7Z"/>
          <path class="st0" d="M250.5,81.3l.2.4c0,.6.8,1,0,1.8-.4-.2-.4-.6-.7-.8-.8-1.1-1.2-2.3.3-1.4Z"/>
          <path class="st0" d="M262.7,81.3c-1.1,0-2,.2-3.2-.5,1-.3,2.3-.7,3.2.5Z"/>
          <path class="st0" d="M280.2,80.4c-1,.3-1.8,0-2.6.5-.1-.5,0-.7,0-1.2,1,.2,1.8.3,2.6.7Z"/>
          <path class="st0" d="M414.3,78.1c0,.2,0,.4.3.5-.5.6-1.3,1.1-2.1.4.2-.8,1.3-.2.9-.8,0-.4.6-.5.8-.7.9-.2,1,.2.1.6Z"/>
          <path class="st0" d="M499.1,106c-.3.4-.8.3-1.1.4.1-.2.3-.4.2-.6s-.4-.4-.5-.7.3-.6.5-.6.8-.1.9.2c-.4.3-.6.4-.6.6,0,.4.3.6.6.7Z"/>
          <path class="st0" d="M207.5,83.6h.5c.2.1.3.3.4.4,0,.2,0,.4-.2.5-.2,0-.7,0-.9-.3-.7-.3-.6-.6.1-.6Z"/>
          <path class="st0" d="M250.5,81.3c-.2-.2-.6-.2-.7,0,.4.6.4.9.4,1.3-.5-.4-1-.9-1.4-1.4.7-.2.9-.5,1.2-.5s.7,0,.5.5Z"/>
          <path class="st0" d="M246.3,83.1c.4.3.5.9.2,1.1s-1.1.5-1.3,0c.3-.3.5-.4.5-.5,0-.2-.1-.4-.2-.6.2.2.6,0,.8,0Z"/>
          <path class="st0" d="M135.5,92.4c0,.6-.7.5-.9.4s-1.1-.3-.6-.9,1.5.2,1.5.5Z"/>
          <rect class="st0" x="156.6" y="91.4" width="1.9" height=".8" transform="translate(1.5 -2.5) rotate(.9)"/>
          <path class="st0" d="M158.1,89.2c0,.2-1.1,1.5-.9,1.5-.3,0-1,0-.9-.2.4-.8.9-1.4,1.8-1.3Z"/>
          <path class="st0" d="M420.5,104.4c-.2,0,0-.6-.1-.7-.3-.3-.9.3-1.3,0-1-1.2,3.1-.1,3.3.7-.7,0-1.2.3-1.9,0Z"/>
          <path class="st0" d="M440.5,94.9c-.2-.3-.5-.6-.8-.8.8.1,2.1-.6,3,.4-.9.2-1.7-.2-2.2.4Z"/>
          <path class="st0" d="M237.8,90.1c-.6.3-1.2.5-1.9.3-.2-.4.6-1,1-1s.6.4.9.7Z"/>
          <path class="st0" d="M506.2,91.9c-.1.4,0,.7.2,1.2s-.4.7-.7.5-.5-.4-.7-.6c.6-.2.7-1,1.2-1Z"/>
        </g>
      </g>
    </g>
  </g>
</svg>