<?xml version="1.0" encoding="UTF-8"?>
<svg id="Layer_1" xmlns="http://www.w3.org/2000/svg" version="1.1" viewBox="0 0 234.9 234.2">
  <!-- Generator: Adobe Illustrator 30.2.1, SVG Export Plug-In . SVG Version: 2.1.1 Build 1)  -->
  <defs>
    <style>
      .st0 {
        fill: #fff;
      }
    </style>
  </defs>
  <path class="st0" d="M215.6,57.6c-6.7,0-12.2-5.4-12.2-12.2v-10.7c0-6.7,5.4-12.2,12.2-12.2h18.2V1H.8v21.6h12.8c6.7,0,12.2,5.4,12.2,12.2v10.7c0,6.7-5.4,12.2-12.2,12.2H.8v118.3h12.8c6.7,0,12.2,5.4,12.2,12.2v10.7c0,6.7-5.4,12.2-12.2,12.2H.8v23.5h233v-23.5h-18.2c-6.7,0-12.2-5.4-12.2-12.2v-10.7c0-6.7,5.4-12.2,12.2-12.2h18.2V57.6h-18.2ZM48.3,34.8c0-6.7,5.4-12.2,12.2-12.2h32.9c6.7,0,12.2,5.4,12.2,12.2v10.7c0,6.7-5.4,12.2-12.2,12.2h-32.9c-6.7,0-12.2-5.4-12.2-12.2v-10.7ZM105.5,198.8c0,6.7-5.4,12.2-12.2,12.2h-32.9c-6.7,0-12.2-5.4-12.2-12.2v-10.7c0-6.7,5.4-12.2,12.2-12.2h32.9c6.7,0,12.2,5.4,12.2,12.2v10.7ZM95.6,131.7v-31.9c0-7.1,7.7-11.6,13.9-8l27.6,15.9c6.2,3.6,6.2,12.4,0,16l-27.6,15.9c-6.2,3.6-13.9-.9-13.9-8ZM183.1,198.8c0,6.7-5.4,12.2-12.2,12.2h-32.9c-6.7,0-12.2-5.4-12.2-12.2v-10.7c0-6.7,5.4-12.2,12.2-12.2h32.9c6.7,0,12.2,5.4,12.2,12.2v10.7ZM183.1,45.5c0,6.7-5.4,12.2-12.2,12.2h-32.9c-6.7,0-12.2-5.4-12.2-12.2v-10.7c0-6.7,5.4-12.2,12.2-12.2h32.9c6.7,0,12.2,5.4,12.2,12.2v10.7Z"/>
</svg>