<?xml version="1.0" encoding="UTF-8"?>
<svg id="Layer_10" xmlns="http://www.w3.org/2000/svg" version="1.1" viewBox="0 0 344.7 339.8">
  <!-- Generator: Adobe Illustrator 30.2.1, SVG Export Plug-In . SVG Version: 2.1.1 Build 1)  -->
  <defs>
    <style>
      .st0 {
        fill: #fff;
      }
    </style>
  </defs>
  <g>
    <path class="st0" d="M268.4,209.6c22.2-51.1-1.4-110.7-52.5-132.8-24.7-10.7-52.2-11.2-77.3-1.3-25.1,9.9-44.8,29-55.5,53.7-22.2,51.1,1.4,110.7,52.5,132.8,13,5.7,26.6,8.3,40,8.3,39,0,76.3-22.8,92.8-60.8h0ZM150.9,226.9c-31.7-13.8-46.3-50.7-32.6-82.4,6.7-15.4,18.9-27.2,34.5-33.4,7.5-2.9,15.3-4.4,23-4.4s16.9,1.7,24.9,5.2c31.7,13.8,46.3,50.7,32.6,82.4-13.8,31.7-50.7,46.3-82.4,32.6Z"/>
    <path class="st0" d="M49.5,188.3H10.9c1.9,16,6.1,31.8,12.4,46.6l33.4-19.2c-3.5-8.9-5.9-18.1-7.3-27.4Z"/>
    <path class="st0" d="M75.8,248.9l-33.4,19.2c9.5,12.9,20.9,24.5,34.1,34.3l19.4-33.4c-7.4-5.9-14.1-12.7-20-20.1Z"/>
    <path class="st0" d="M302.1,150.6h38.7c-1.6-14.2-5.2-28.4-10.6-42.1-.6-1.5-1.2-3-1.9-4.5l-33.5,19.2c3.5,8.9,5.9,18.1,7.3,27.4Z"/>
    <path class="st0" d="M294.6,216.2l33.4,19.4c0,0,0-.1,0-.2,6.5-15,10.7-30.7,12.6-46.5h-38.7c-1.4,9.2-3.9,18.4-7.5,27.3Z"/>
    <path class="st0" d="M255.2,269.3l19.2,33.5c12.9-9.5,24.5-20.9,34.3-34.1l-33.4-19.4c-6,7.5-12.8,14.1-20.1,20Z"/>
    <path class="st0" d="M109.6,321.6c0,0,.1,0,.2,0,15.2,6.6,30.8,10.7,46.5,12.6v-38.6c-9.1-1.4-18.3-3.9-27.3-7.4l-19.4,33.4Z"/>
    <path class="st0" d="M194.6,295.7v38.6c16-1.9,31.8-6.1,46.6-12.4l-19.2-33.5c-8.8,3.4-18,5.9-27.4,7.3Z"/>
    <path class="st0" d="M275.8,89.9l33.5-19.2c-9.6-13.1-21.1-24.6-34.1-34.3l-19.4,33.4c7.4,5.9,14.1,12.7,20,20.1Z"/>
    <path class="st0" d="M96.3,69.5l-19.2-33.5c-12.9,9.5-24.5,20.9-34.3,34.1l33.4,19.4c6-7.5,12.8-14.1,20.1-20Z"/>
    <path class="st0" d="M242,17.2c0,0-.1,0-.2,0-15.2-6.6-30.8-10.7-46.5-12.6v38.6c9.1,1.4,18.3,3.9,27.3,7.4l19.4-33.4Z"/>
    <path class="st0" d="M57,122.6l-33.4-19.4c0,0,0,.1,0,.2-6.6,15.2-10.7,30.8-12.6,46.5h38.6c1.4-9.2,3.9-18.4,7.4-27.3Z"/>
    <path class="st0" d="M156.9,43.2V4.6c-16,1.9-31.8,6.1-46.6,12.4l19.2,33.5c8.8-3.4,18-5.9,27.4-7.3Z"/>
  </g>
  <path class="st0" d="M165.6,151.7l5.7-18.4c1.3-4.1,7.1-4.2,8.5-.1l6.2,18.3c.6,1.8,2.4,3.1,4.3,3l19.3-.2c4.3,0,6.2,5.5,2.7,8.1l-15.5,11.5c-1.6,1.2-2.2,3.2-1.6,5l6.2,18.3c1.4,4.1-3.3,7.6-6.8,5.1l-15.7-11.2c-1.6-1.1-3.7-1.1-5.3,0l-15.5,11.5c-3.5,2.6-8.2-.8-6.9-4.9l5.7-18.4c.6-1.9-.1-3.9-1.7-5l-15.7-11.2c-3.5-2.5-1.8-8.1,2.5-8.1l19.3-.2c1.9,0,3.6-1.3,4.2-3.1Z"/>
</svg>