<?xml version="1.0" encoding="UTF-8"?>
<svg id="Layer_11" xmlns="http://www.w3.org/2000/svg" version="1.1" viewBox="0 0 394.3 373.7">
  <!-- Generator: Adobe Illustrator 30.2.1, SVG Export Plug-In . SVG Version: 2.1.1 Build 1)  -->
  <defs>
    <style>
      .st0 {
        fill: #fff;
      }
    </style>
  </defs>
  <path class="st0" d="M342.9,293.5l30.8-30.8c7.2-7.2,7.2-18.9,0-26.2s-18.9-7.2-26.2,0l-3,3-43.6-43.6c7.6-16.7,13.1-36.2,13.1-57.2s0-1.8,0-2.7l37.6-37.6,13.8-91.7-94.6,13.6-64.2,64.2c-3.2,2.4-6.2,5-8.9,7.8-1.6-1.7-3.4-3.4-5.2-4.9L125.3,20.4,30.7,6.8l13.8,91.7,36.9,36.9c0,1.1,0,2.3,0,3.4,0,17.4,5.1,36.8,14.6,56.5l-44.4,44.4-3-3c-7.2-7.2-18.9-7.2-26.2,0s-7.2,18.9,0,26.2l30.8,30.8-44.5,44.5,26.2,26.2,44.5-44.5,30.8,30.8c3.6,3.6,8.3,5.4,13.1,5.4s9.5-1.8,13.1-5.4c7.2-7.2,7.2-18.9,0-26.2l-5.2-5.2,38.4-38.4c10.5,6.5,20.1,9.8,28.5,9.8s18.4-3.2,29.1-9.4l38.1,38.1-5.2,5.2c-7.2,7.2-7.2,18.9,0,26.2s8.3,5.4,13.1,5.4,9.5-1.8,13.1-5.4l30.8-30.8,44.5,44.5,26.2-26.2-44.5-44.5ZM197.9,253.4c-.3,0-.7-.1-1.1-.2-5-1.4-16.6-8.5-30.2-22.1-4.7-4.7-9.7-10.2-14.8-16.5-3.5-4.4-6.8-8.8-9.8-13.2-3.1-4.6-6-9.2-8.5-13.8-3.9-6.9-7.1-13.8-9.5-20.5-3.7-10.2-5.7-19.8-5.7-28.3s1.4-10.5,3.9-14.9c5.2-9.2,15.1-15.5,26.5-15.5s13.5,2.4,18.7,6.4c1.7,1.3,3.2,2.8,4.5,4.4.3.3.5.6.7.9,4,5.2,6.4,11.6,6.4,18.7v11.5c0,.1,0,.3,0,.4v.2h0c.1,4.1,1.3,7.5,3.1,10.3,3.5,5.4,9.6,8.3,15.4,8.3s12.2-3,15.7-8.8c1.6-2.7,2.7-6,2.8-9.9h0s0-.1,0-.2c0-.1,0-.3,0-.4v-11.5c0-5.9,1.7-11.4,4.6-16.1.9-1.4,1.8-2.7,2.9-3.9,2-2.2,4.2-4.2,6.7-5.8,4.7-2.9,10.2-4.6,16.1-4.6,11.6,0,21.6,6.5,26.8,16,2.3,4.3,3.6,9.2,3.6,14.4,0,9.1-1.6,18.7-4.7,28.5-1.8,5.8-4.2,11.7-7.1,17.6-2.9,5.9-6.3,11.8-10.1,17.6-3.6,5.4-7.5,10.7-11.9,15.8-4.4,5.2-8.7,9.8-12.8,13.7-14.5,13.9-26.5,20-31.2,21.1-.5.1-.9.2-1.2.2ZM288.1,55.3l33.2-4.8-4.6,30.4-16.8,16.8c-8-10.4-18.9-18.4-31.6-22.7l19.7-19.7ZM79.2,80.9l-4.6-30.4,33.2,4.8,19.5,19.5c-12.7,4.2-23.7,12.1-31.8,22.5l-16.4-16.4ZM104.8,292.9l-27.1-27.1,37.8-37.8c2.8,3.9,5.7,7.7,8.8,11.5,5.2,6.4,10.6,12.3,16.1,17.8l-35.7,35.7ZM256.5,258.2c4.9-4.8,9.8-9.9,14.4-15.3,3.2-3.8,6.9-8.5,10.8-13.8l36.7,36.7-27.1,27.1-34.7-34.7Z"/>
</svg>