<?xml version="1.0" encoding="UTF-8"?>
<svg id="Layer_1" xmlns="http://www.w3.org/2000/svg" version="1.1" viewBox="0 0 234.9 300.3">
  <!-- Generator: Adobe Illustrator 30.2.1, SVG Export Plug-In . SVG Version: 2.1.1 Build 1)  -->
  <defs>
    <style>
      .st0 {
        fill: #fff;
      }
    </style>
  </defs>
  <path class="st0" d="M230,39.4V2.4H3.5v37h.3v31.3h-.2c0,32.6,16.2,61.6,40.9,79.2C19.7,167.5,3.5,196.4,3.5,229.1h.2v31.3h-.3v37h226.5v-37h-.2v-31.3h.2c0-32.6-16.2-61.5-41-79.2,24.8-17.7,41-46.6,41-79.2h-.2v-31.3h.2ZM193,71.1c-.2,32.3-26.2,58.7-58.3,59.8v38c32.2,1,58.1,27.5,58.3,59.8h-.2v31.7H40.7v-31.7h-.2c.2-32,25.5-58.2,57.1-59.8v-38.1c-31.6-1.6-56.9-27.8-57.1-59.7h.2v-31.7h152.1v31.7h.2Z"/>
  <path class="st0" d="M112.4,100.4h9.8c16.3,0,29.5-13.1,29.5-29.4h-68.7c0,16.1,13.2,29.3,29.4,29.4Z"/>
  <path class="st0" d="M112.5,199c-16.3,0-29.5,13.2-29.5,29.4h68.7c0-16.1-13.2-29.3-29.4-29.4h-9.8Z"/>
</svg>