<?xml version="1.0" encoding="UTF-8"?>
<svg id="Layer_1" xmlns="http://www.w3.org/2000/svg" version="1.1" viewBox="0 0 282 279">
  <!-- Generator: Adobe Illustrator 30.2.1, SVG Export Plug-In . SVG Version: 2.1.1 Build 1)  -->
  <defs>
    <style>
      .st0 {
        fill: #fff;
      }
    </style>
  </defs>
  <path class="st0" d="M272.3,125.6s-33.8-34.6-49.3-48.4l-1.2-1.3c-5.5,4.8-14,12.6-22.7,20.7v-25.5c0-5.4-2.3-10.5-6.4-14,0,0-35.1-36.2-50.1-49.3l-.4-.4c-14.9,13-52.4,48.8-54,50.3-3.7,3.5-5.7,8.3-5.7,13.4v23.5c-7.5-7.4-14.8-14.4-19.8-18.7h0s0,0,0,0c-14.9,13-52.4,48.8-54,50.3-3.7,3.5-5.7,8.3-5.7,13.4v136.4h37v-128.5c4.9-4.7,12.4-11.8,20.2-19.1,8.2,7.1,17.2,15.1,22.3,19.5v128h0s37,0,37,0v-136.4c0-.4,0-.8,0-1.2v-59.3c5.1-4.8,13-12.3,21.1-19.9h0c8.4,7.4,16.3,15.9,21.5,20.4v58.4c0,.5,0,1.1,0,1.6v136.4h37s0,0,0,0v-128.6c5.1-4.8,13-12.3,21-19.9v.4c8.4,7.3,16.2,15.5,21.5,20v128h37v-136.4c0-5.4-2.3-10.5-6.4-14Z"/>
</svg>