<?xml version="1.0" encoding="UTF-8"?>
<svg id="Layer_1" xmlns="http://www.w3.org/2000/svg" version="1.1" viewBox="0 0 343 282.4">
  <!-- Generator: Adobe Illustrator 30.2.1, SVG Export Plug-In . SVG Version: 2.1.1 Build 1)  -->
  <defs>
    <style>
      .st0 {
        fill: #fff;
      }
    </style>
  </defs>
  <path class="st0" d="M338,106.4c0-.2,0-.3,0-.5h0c-.6-31.8-26.6-57.6-58.5-57.7h0s-10.7,0-10.7,0v37h10.6c11.8,0,21.4,9.5,21.7,21.2-.3,11.7-9.8,21.1-21.6,21.2h0s-13.7,0-13.7,0c1.9-7.6,2.9-15.5,2.9-23.7h0V2.3h-26c0,0-157,0-157,0h0c0,0-15,0-15,0v46h-10.4c-32,0-58,25.8-58.5,57.7h0c0,.2,0,.3,0,.5,0,.2,0,.3,0,.5h0c.6,31.9,26.6,57.7,58.7,57.7h0s31,0,31,0c14.5,18.8,35.6,32.4,59.7,37.2v41.5h-63.1v37h161.1v-37h-61.1v-41.5c24.2-4.8,45.3-18.4,59.8-37.2h31.5c32,0,58.1-25.7,58.7-57.6h0c0-.2,0-.3,0-.5ZM60.3,127.6h0c-11.7,0-21.3-9.5-21.6-21.1.3-11.7,9.9-21.2,21.7-21.2h0s10.3,0,10.3,0v18.4h0c0,8.2,1,16.3,2.9,23.9h-13.3ZM169.6,166.7c-34.2-.6-61.9-28.5-62-62.8h0V39.2h124v64.5h0c0,34.4-27.7,62.5-62,63Z"/>
</svg>