<?xml version="1.0" encoding="UTF-8"?>
<svg id="Layer_1" xmlns="http://www.w3.org/2000/svg" version="1.1" viewBox="0 0 327.2 183.6">
  <!-- Generator: Adobe Illustrator 30.2.1, SVG Export Plug-In . SVG Version: 2.1.1 Build 1)  -->
  <defs>
    <style>
      .st0 {
        fill: #fff;
      }
    </style>
  </defs>
  <path class="st0" d="M93.9,181.6c19,0,36.5-5.1,51.4-15-9.3-10.5-16.4-22.4-21.1-35.2-7.9,7.1-18.3,11.4-30.5,11.4-28.3,0-46.9-24.3-46.9-51.2s18.7-50.7,46.5-50.7,22.9,4.4,30.8,11.6c9.9,8.9,16,22.2,16.7,36.7,0,1,0,2,0,3.1s0,1.9,0,2.8c.7,21.7,9,41.1,22.2,55.9,5.2,5.9,11.2,11,17.8,15.4,14.6,9.6,32.3,15.1,51.3,15.1,29.4,0,55.4-12.1,73.1-35.5,4.4-5.8,8.6-12.6,11.2-19.4,4.7-11.9,6.8-24.1,6.8-36.9,0-49.8-42-87.6-90.9-87.6s-36.8,5.5-51.4,15c9.2,10.3,16.3,22.2,21,35,7.8-7,17.8-11.3,29.5-11.3,28.7,0,47.7,23.8,47.7,51.4s-18.9,50.5-47.2,50.5-22.3-4.4-30.2-11.5c-10-9.1-16.1-22.6-16.7-37,0-.9,0-1.7,0-2.6s0-2.2.1-3.4c-.4-21.6-8.7-40.9-22-55.7-5.2-5.8-11.3-11-17.9-15.3-14.7-9.6-32.3-15.1-51-15.1C43.5,2.2,2.6,40.7,2.6,91.9s40.9,89.7,91.3,89.7Z"/>
</svg>